%TF.GenerationSoftware,KiCad,Pcbnew,9.0.3*%
%TF.CreationDate,2026-05-18T21:25:21-03:00*%
%TF.ProjectId,PCB TG William v3,50434220-5447-4205-9769-6c6c69616d20,rev?*%
%TF.SameCoordinates,Original*%
%TF.FileFunction,Copper,L1,Top*%
%TF.FilePolarity,Positive*%
%FSLAX46Y46*%
G04 Gerber Fmt 4.6, Leading zero omitted, Abs format (unit mm)*
G04 Created by KiCad (PCBNEW 9.0.3) date 2026-05-18 21:25:21*
%MOMM*%
%LPD*%
G01*
G04 APERTURE LIST*
G04 Aperture macros list*
%AMRoundRect*
0 Rectangle with rounded corners*
0 $1 Rounding radius*
0 $2 $3 $4 $5 $6 $7 $8 $9 X,Y pos of 4 corners*
0 Add a 4 corners polygon primitive as box body*
4,1,4,$2,$3,$4,$5,$6,$7,$8,$9,$2,$3,0*
0 Add four circle primitives for the rounded corners*
1,1,$1+$1,$2,$3*
1,1,$1+$1,$4,$5*
1,1,$1+$1,$6,$7*
1,1,$1+$1,$8,$9*
0 Add four rect primitives between the rounded corners*
20,1,$1+$1,$2,$3,$4,$5,0*
20,1,$1+$1,$4,$5,$6,$7,0*
20,1,$1+$1,$6,$7,$8,$9,0*
20,1,$1+$1,$8,$9,$2,$3,0*%
G04 Aperture macros list end*
%TA.AperFunction,ComponentPad*%
%ADD10C,2.000000*%
%TD*%
%TA.AperFunction,ComponentPad*%
%ADD11C,1.600000*%
%TD*%
%TA.AperFunction,ComponentPad*%
%ADD12R,1.700000X1.700000*%
%TD*%
%TA.AperFunction,ComponentPad*%
%ADD13C,1.700000*%
%TD*%
%TA.AperFunction,ComponentPad*%
%ADD14RoundRect,0.250000X-0.550000X-0.550000X0.550000X-0.550000X0.550000X0.550000X-0.550000X0.550000X0*%
%TD*%
%TA.AperFunction,ComponentPad*%
%ADD15R,3.000000X3.000000*%
%TD*%
%TA.AperFunction,ComponentPad*%
%ADD16C,3.000000*%
%TD*%
%TA.AperFunction,ComponentPad*%
%ADD17C,1.440000*%
%TD*%
%TA.AperFunction,ViaPad*%
%ADD18C,0.600000*%
%TD*%
%TA.AperFunction,Conductor*%
%ADD19C,0.250000*%
%TD*%
%TA.AperFunction,Conductor*%
%ADD20C,0.600000*%
%TD*%
G04 APERTURE END LIST*
D10*
%TO.P,INA,1,1*%
%TO.N,Net-(C3-Pad1)*%
X130000000Y-79000000D03*
%TD*%
D11*
%TO.P,R2,2*%
%TO.N,Net-(U1--)*%
X117580000Y-91000000D03*
%TO.P,R2,1*%
%TO.N,GND*%
X107420000Y-91000000D03*
%TD*%
%TO.P,R5,2*%
%TO.N,Net-(U2A--)*%
X117580000Y-106000000D03*
%TO.P,R5,1*%
%TO.N,Net-(C3-Pad2)*%
X107420000Y-106000000D03*
%TD*%
D12*
%TO.P,J2,1,Pin_1*%
%TO.N,GND*%
X109960000Y-111000000D03*
D13*
%TO.P,J2,2,Pin_2*%
%TO.N,Net-(J2-Pin_2)*%
X112500000Y-111000000D03*
%TO.P,J2,3,Pin_3*%
%TO.N,Net-(J2-Pin_3)*%
X115040000Y-111000000D03*
%TD*%
D11*
%TO.P,R4,2*%
%TO.N,GND*%
X117580000Y-101000000D03*
%TO.P,R4,1*%
%TO.N,Net-(U2A-+)*%
X107420000Y-101000000D03*
%TD*%
%TO.P,R3,2*%
%TO.N,Net-(R3-Pad2)*%
X117580000Y-96000000D03*
%TO.P,R3,1*%
%TO.N,Net-(R3-Pad1)*%
X107420000Y-96000000D03*
%TD*%
%TO.P,R1,2*%
%TO.N,Net-(U1-+)*%
X117580000Y-86000000D03*
%TO.P,R1,1*%
%TO.N,GND*%
X107420000Y-86000000D03*
%TD*%
%TO.P,C4,2*%
%TO.N,Net-(U2A-+)*%
X165500000Y-94433333D03*
%TO.P,C4,1*%
%TO.N,Net-(C3-Pad2)*%
X160500000Y-94433333D03*
%TD*%
%TO.P,C3,2*%
%TO.N,Net-(C3-Pad2)*%
X165500000Y-86400000D03*
%TO.P,C3,1*%
%TO.N,Net-(C3-Pad1)*%
X160500000Y-86400000D03*
%TD*%
%TO.P,C5,2*%
%TO.N,GND*%
X165500000Y-102466667D03*
%TO.P,C5,1*%
%TO.N,Net-(U2C-+)*%
X160500000Y-102466667D03*
%TD*%
%TO.P,C6,2*%
%TO.N,Net-(U2C--)*%
X165500000Y-110500000D03*
%TO.P,C6,1*%
%TO.N,Net-(C6-Pad1)*%
X160500000Y-110500000D03*
%TD*%
%TO.P,R6,2*%
%TO.N,Net-(C6-Pad1)*%
X144080000Y-86000000D03*
%TO.P,R6,1*%
%TO.N,Net-(U2B--)*%
X133920000Y-86000000D03*
%TD*%
%TO.P,R8,2*%
%TO.N,Net-(C9-Pad1)*%
X144080000Y-96000000D03*
%TO.P,R8,1*%
%TO.N,Net-(U2D--)*%
X133920000Y-96000000D03*
%TD*%
%TO.P,R7,2*%
%TO.N,Net-(U2C-+)*%
X144080000Y-91000000D03*
%TO.P,R7,1*%
%TO.N,Net-(C6-Pad1)*%
X133920000Y-91000000D03*
%TD*%
%TO.P,R10,2*%
%TO.N,GND*%
X144080000Y-106000000D03*
%TO.P,R10,1*%
%TO.N,Net-(C7-Pad2)*%
X133920000Y-106000000D03*
%TD*%
%TO.P,R9,2*%
%TO.N,Net-(U3A-+)*%
X144080000Y-101000000D03*
%TO.P,R9,1*%
%TO.N,Net-(C9-Pad1)*%
X133920000Y-101000000D03*
%TD*%
D14*
%TO.P,U3,1*%
%TO.N,Net-(U3A--)*%
X184500000Y-95760000D03*
D11*
%TO.P,U3,2,-*%
X184500000Y-98300000D03*
%TO.P,U3,3,+*%
%TO.N,Net-(U3A-+)*%
X184500000Y-100840000D03*
%TO.P,U3,4,V+*%
%TO.N,+9V*%
X184500000Y-103380000D03*
%TO.P,U3,5,+*%
%TO.N,Net-(U3A--)*%
X184500000Y-105920000D03*
%TO.P,U3,6,-*%
%TO.N,Net-(U3B--)*%
X184500000Y-108460000D03*
%TO.P,U3,7*%
%TO.N,Net-(NOTCH1-Pad1)*%
X184500000Y-111000000D03*
%TO.P,U3,8*%
%TO.N,Net-(D1-K)*%
X192120000Y-111000000D03*
%TO.P,U3,9,-*%
%TO.N,Net-(D2-K)*%
X192120000Y-108460000D03*
%TO.P,U3,10,+*%
%TO.N,GND*%
X192120000Y-105920000D03*
%TO.P,U3,11,V-*%
%TO.N,-9V*%
X192120000Y-103380000D03*
%TO.P,U3,12,+*%
%TO.N,GND*%
X192120000Y-100840000D03*
%TO.P,U3,13,-*%
%TO.N,Net-(U3D--)*%
X192120000Y-98300000D03*
%TO.P,U3,14*%
%TO.N,Net-(R17-Pad2)*%
X192120000Y-95760000D03*
%TD*%
D14*
%TO.P,U2,1*%
%TO.N,Net-(U2A--)*%
X148500000Y-95760000D03*
D11*
%TO.P,U2,2,-*%
X148500000Y-98300000D03*
%TO.P,U2,3,+*%
%TO.N,Net-(U2A-+)*%
X148500000Y-100840000D03*
%TO.P,U2,4,V+*%
%TO.N,+9V*%
X148500000Y-103380000D03*
%TO.P,U2,5,+*%
%TO.N,Net-(U2A--)*%
X148500000Y-105920000D03*
%TO.P,U2,6,-*%
%TO.N,Net-(U2B--)*%
X148500000Y-108460000D03*
%TO.P,U2,7*%
X148500000Y-111000000D03*
%TO.P,U2,8*%
%TO.N,Net-(U2C--)*%
X156120000Y-111000000D03*
%TO.P,U2,9,-*%
X156120000Y-108460000D03*
%TO.P,U2,10,+*%
%TO.N,Net-(U2C-+)*%
X156120000Y-105920000D03*
%TO.P,U2,11,V-*%
%TO.N,-9V*%
X156120000Y-103380000D03*
%TO.P,U2,12,+*%
%TO.N,Net-(U2C--)*%
X156120000Y-100840000D03*
%TO.P,U2,13,-*%
%TO.N,Net-(U2D--)*%
X156120000Y-98300000D03*
%TO.P,U2,14*%
X156120000Y-95760000D03*
%TD*%
D14*
%TO.P,U1,1,Rg*%
%TO.N,Net-(R3-Pad1)*%
X121880000Y-91460000D03*
D11*
%TO.P,U1,2,-*%
%TO.N,Net-(U1--)*%
X121880000Y-94000000D03*
%TO.P,U1,3,+*%
%TO.N,Net-(U1-+)*%
X121880000Y-96540000D03*
%TO.P,U1,4,V-*%
%TO.N,-9V*%
X121880000Y-99080000D03*
%TO.P,U1,5,Ref*%
%TO.N,GND*%
X129500000Y-99080000D03*
%TO.P,U1,6*%
%TO.N,Net-(C3-Pad1)*%
X129500000Y-96540000D03*
%TO.P,U1,7,V+*%
%TO.N,+9V*%
X129500000Y-94000000D03*
%TO.P,U1,8,Rg*%
%TO.N,Net-(R3-Pad2)*%
X129500000Y-91460000D03*
%TD*%
D10*
%TO.P,OUT,1,1*%
%TO.N,Net-(J3-Pin_2)*%
X167500000Y-79000000D03*
%TD*%
%TO.P,NOTCH,1,1*%
%TO.N,Net-(NOTCH1-Pad1)*%
X155000000Y-79000000D03*
%TD*%
%TO.P,LPF,1,1*%
%TO.N,Net-(U2D--)*%
X148750000Y-79000000D03*
%TD*%
%TO.P,HPF,1,1*%
%TO.N,Net-(U2B--)*%
X136250000Y-79000000D03*
%TD*%
D11*
%TO.P,R17,1*%
%TO.N,Net-(U3D--)*%
X169920000Y-111000000D03*
%TO.P,R17,2*%
%TO.N,Net-(R17-Pad2)*%
X180080000Y-111000000D03*
%TD*%
%TO.P,R16,1*%
%TO.N,Net-(D2-K)*%
X169920000Y-106000000D03*
%TO.P,R16,2*%
%TO.N,Net-(D1-A)*%
X180080000Y-106000000D03*
%TD*%
%TO.P,R15,1*%
%TO.N,Net-(NOTCH1-Pad1)*%
X169920000Y-101000000D03*
%TO.P,R15,2*%
%TO.N,Net-(U3D--)*%
X180080000Y-101000000D03*
%TD*%
%TO.P,R14,1*%
%TO.N,Net-(D1-A)*%
X170000000Y-96000000D03*
%TO.P,R14,2*%
%TO.N,Net-(U3D--)*%
X180160000Y-96000000D03*
%TD*%
%TO.P,R13,1*%
%TO.N,Net-(NOTCH1-Pad1)*%
X169920000Y-91000000D03*
%TO.P,R13,2*%
%TO.N,Net-(D2-K)*%
X180080000Y-91000000D03*
%TD*%
D12*
%TO.P,J3,1,Pin_1*%
%TO.N,GND*%
X196750000Y-78475000D03*
D13*
%TO.P,J3,2,Pin_2*%
%TO.N,Net-(J3-Pin_2)*%
X199290000Y-78475000D03*
%TD*%
D15*
%TO.P,J1,1,Pin_1*%
%TO.N,+9V*%
X112420000Y-78500000D03*
D16*
%TO.P,J1,2,Pin_2*%
%TO.N,GND*%
X117500000Y-78500000D03*
%TO.P,J1,3,Pin_3*%
%TO.N,-9V*%
X122580000Y-78500000D03*
%TD*%
D10*
%TO.P,GND,1,1*%
%TO.N,GND*%
X161250000Y-79000000D03*
%TD*%
%TO.P,GND,1,1*%
%TO.N,GND*%
X142500000Y-79000000D03*
%TD*%
D14*
%TO.P,D2,1,K*%
%TO.N,Net-(D2-K)*%
X195190000Y-91187500D03*
D11*
%TO.P,D2,2,A*%
%TO.N,Net-(D1-K)*%
X202810000Y-91187500D03*
%TD*%
D14*
%TO.P,D1,1,K*%
%TO.N,Net-(D1-K)*%
X195190000Y-86000000D03*
D11*
%TO.P,D1,2,A*%
%TO.N,Net-(D1-A)*%
X202810000Y-86000000D03*
%TD*%
%TO.P,C16,1*%
%TO.N,-9V*%
X189935000Y-86080000D03*
%TO.P,C16,2*%
%TO.N,GND*%
X192435000Y-86080000D03*
%TD*%
%TO.P,C15,1*%
%TO.N,GND*%
X184435000Y-86080000D03*
%TO.P,C15,2*%
%TO.N,+9V*%
X186935000Y-86080000D03*
%TD*%
%TO.P,C14,1*%
%TO.N,-9V*%
X154120000Y-86000000D03*
%TO.P,C14,2*%
%TO.N,GND*%
X156620000Y-86000000D03*
%TD*%
%TO.P,C13,1*%
%TO.N,GND*%
X148370000Y-86000000D03*
%TO.P,C13,2*%
%TO.N,+9V*%
X150870000Y-86000000D03*
%TD*%
%TO.P,C12,1*%
%TO.N,-9V*%
X126935000Y-86000000D03*
%TO.P,C12,2*%
%TO.N,GND*%
X129435000Y-86000000D03*
%TD*%
%TO.P,C11,1*%
%TO.N,GND*%
X121935000Y-86000000D03*
%TO.P,C11,2*%
%TO.N,+9V*%
X124435000Y-86000000D03*
%TD*%
D14*
%TO.P,C10,1*%
%TO.N,Net-(J3-Pin_2)*%
X174000000Y-78500000D03*
D11*
%TO.P,C10,2*%
%TO.N,GND*%
X176500000Y-78500000D03*
%TD*%
%TO.P,C9,1*%
%TO.N,Net-(C9-Pad1)*%
X196500000Y-110500000D03*
%TO.P,C9,2*%
%TO.N,Net-(U3A--)*%
X201500000Y-110500000D03*
%TD*%
%TO.P,C8,1*%
%TO.N,Net-(C7-Pad2)*%
X196500000Y-103812500D03*
%TO.P,C8,2*%
%TO.N,Net-(U3A-+)*%
X201500000Y-103812500D03*
%TD*%
%TO.P,C7,1*%
%TO.N,Net-(U2D--)*%
X196500000Y-97125000D03*
%TO.P,C7,2*%
%TO.N,Net-(C7-Pad2)*%
X201500000Y-97125000D03*
%TD*%
%TO.P,C2,1*%
%TO.N,Net-(J2-Pin_2)*%
X123185000Y-110687246D03*
%TO.P,C2,2*%
%TO.N,Net-(U1--)*%
X128185000Y-110687246D03*
%TD*%
%TO.P,C1,1*%
%TO.N,Net-(J2-Pin_3)*%
X123185000Y-104687246D03*
%TO.P,C1,2*%
%TO.N,Net-(U1-+)*%
X128185000Y-104687246D03*
%TD*%
D17*
%TO.P,RV1,1,1*%
%TO.N,Net-(R17-Pad2)*%
X189040000Y-78495000D03*
%TO.P,RV1,2,2*%
%TO.N,Net-(J3-Pin_2)*%
X186500000Y-78495000D03*
%TO.P,RV1,3,3*%
X183960000Y-78495000D03*
%TD*%
D11*
%TO.P,R12,1*%
%TO.N,Net-(NOTCH1-Pad1)*%
X169920000Y-86000000D03*
%TO.P,R12,2*%
%TO.N,Net-(U3B--)*%
X180080000Y-86000000D03*
%TD*%
%TO.P,R11,1*%
%TO.N,GND*%
X133920000Y-111000000D03*
%TO.P,R11,2*%
%TO.N,Net-(U3B--)*%
X144080000Y-111000000D03*
%TD*%
D18*
%TO.N,GND*%
X182000000Y-82000000D03*
X182580000Y-86080000D03*
%TO.N,Net-(U3A-+)*%
X144000000Y-115000000D03*
%TO.N,Net-(U2D--)*%
X147000000Y-93500000D03*
X145000000Y-94000000D03*
%TO.N,Net-(U3A--)*%
X188300000Y-111000000D03*
%TO.N,Net-(U3B--)*%
X183000000Y-109960000D03*
X177000000Y-101500000D03*
%TO.N,Net-(U3A--)*%
X186577000Y-113577000D03*
%TO.N,Net-(C6-Pad1)*%
X131500000Y-115500000D03*
%TO.N,Net-(R17-Pad2)*%
X192000000Y-91500000D03*
%TO.N,Net-(U3A-+)*%
X198000000Y-102000000D03*
%TO.N,Net-(D1-A)*%
X200500000Y-114500000D03*
%TO.N,Net-(NOTCH1-Pad1)*%
X182375000Y-112500000D03*
%TO.N,Net-(U2D--)*%
X158625000Y-96000000D03*
%TO.N,Net-(U2C--)*%
X154000000Y-106000000D03*
%TO.N,+9V*%
X148500000Y-89000000D03*
%TO.N,Net-(U3B--)*%
X147000000Y-114500000D03*
%TO.N,Net-(U2C-+)*%
X147000000Y-91000000D03*
%TO.N,Net-(C3-Pad1)*%
X132500000Y-91500000D03*
%TD*%
D19*
%TO.N,GND*%
X182000000Y-85500000D02*
X182000000Y-82000000D01*
X182580000Y-86080000D02*
X182000000Y-85500000D01*
%TO.N,Net-(C3-Pad1)*%
X132500000Y-81500000D02*
X130000000Y-79000000D01*
X132500000Y-91500000D02*
X132500000Y-81500000D01*
%TO.N,Net-(C6-Pad1)*%
X131500000Y-96885298D02*
X132626000Y-95759298D01*
X132626000Y-95759298D02*
X132626000Y-92294000D01*
X132626000Y-92294000D02*
X133920000Y-91000000D01*
X131500000Y-115500000D02*
X131500000Y-96885298D01*
%TO.N,Net-(U3A-+)*%
X200500000Y-102000000D02*
X198000000Y-102000000D01*
X201500000Y-103000000D02*
X200500000Y-102000000D01*
X201500000Y-103812500D02*
X201500000Y-103000000D01*
%TO.N,GND*%
X143000000Y-82000000D02*
X142500000Y-81500000D01*
X146000000Y-82000000D02*
X143000000Y-82000000D01*
X148370000Y-84370000D02*
X146000000Y-82000000D01*
X142500000Y-81500000D02*
X142500000Y-79000000D01*
X148370000Y-86000000D02*
X148370000Y-84370000D01*
%TO.N,Net-(D1-A)*%
X204000000Y-87190000D02*
X202810000Y-86000000D01*
X204000000Y-111000000D02*
X204000000Y-87190000D01*
X200500000Y-114500000D02*
X204000000Y-111000000D01*
%TO.N,Net-(D1-K)*%
X193246000Y-105474095D02*
X193246000Y-109874000D01*
X197000000Y-101720095D02*
X193246000Y-105474095D01*
X197000000Y-99500000D02*
X197000000Y-101720095D01*
X193246000Y-109874000D02*
X192120000Y-111000000D01*
X197500000Y-86000000D02*
X198000000Y-86500000D01*
X198000000Y-98500000D02*
X197000000Y-99500000D01*
X195190000Y-86000000D02*
X197500000Y-86000000D01*
X198000000Y-86500000D02*
X198000000Y-98500000D01*
X199187500Y-91187500D02*
X202810000Y-91187500D01*
X199000000Y-91000000D02*
X199187500Y-91187500D01*
X198500000Y-86000000D02*
X199000000Y-86500000D01*
X195190000Y-86000000D02*
X198500000Y-86000000D01*
X199000000Y-86500000D02*
X199000000Y-91000000D01*
%TO.N,GND*%
X128500000Y-84000000D02*
X122435000Y-84000000D01*
X129435000Y-84935000D02*
X128500000Y-84000000D01*
X129435000Y-86000000D02*
X129435000Y-84935000D01*
X122435000Y-84000000D02*
X121935000Y-84500000D01*
%TO.N,Net-(U3A-+)*%
X142951000Y-113951000D02*
X144000000Y-115000000D01*
X142951000Y-102129000D02*
X142951000Y-113951000D01*
X144080000Y-101000000D02*
X142951000Y-102129000D01*
%TO.N,GND*%
X192500000Y-80000000D02*
X194025000Y-78475000D01*
X192500000Y-86015000D02*
X192500000Y-80000000D01*
X192435000Y-86080000D02*
X192500000Y-86015000D01*
X194025000Y-78475000D02*
X196750000Y-78475000D01*
X121935000Y-84500000D02*
X121935000Y-86000000D01*
%TO.N,Net-(U3A--)*%
X187000000Y-113000000D02*
X186000000Y-113000000D01*
X188300000Y-111700000D02*
X187000000Y-113000000D01*
X188300000Y-111000000D02*
X188300000Y-111700000D01*
%TO.N,Net-(U2D--)*%
X151996000Y-82246000D02*
X151996000Y-88996000D01*
X153860000Y-93500000D02*
X156120000Y-95760000D01*
X147000000Y-93500000D02*
X153860000Y-93500000D01*
X135920000Y-94000000D02*
X145000000Y-94000000D01*
X133920000Y-96000000D02*
X135920000Y-94000000D01*
%TO.N,Net-(C3-Pad1)*%
X133000000Y-76000000D02*
X130000000Y-79000000D01*
X150500000Y-76000000D02*
X133000000Y-76000000D01*
X151000000Y-79374752D02*
X151000000Y-76500000D01*
X156076248Y-84451000D02*
X151000000Y-79374752D01*
X151000000Y-76500000D02*
X150500000Y-76000000D01*
X158551000Y-84451000D02*
X156076248Y-84451000D01*
X160500000Y-86400000D02*
X158551000Y-84451000D01*
%TO.N,Net-(U3B--)*%
X177000000Y-89080000D02*
X177000000Y-101500000D01*
X180080000Y-86000000D02*
X177000000Y-89080000D01*
%TO.N,Net-(U3A--)*%
X185840000Y-105920000D02*
X184500000Y-105920000D01*
X186000000Y-106080000D02*
X185840000Y-105920000D01*
X186577000Y-113577000D02*
X186000000Y-113000000D01*
X186000000Y-113000000D02*
X186000000Y-106080000D01*
%TO.N,Net-(NOTCH1-Pad1)*%
X169920000Y-101000000D02*
X168500000Y-99580000D01*
X168500000Y-99580000D02*
X168500000Y-92420000D01*
X168500000Y-92420000D02*
X169920000Y-91000000D01*
X169000000Y-90080000D02*
X169920000Y-91000000D01*
X169920000Y-86000000D02*
X169000000Y-86920000D01*
X169000000Y-86920000D02*
X169000000Y-90080000D01*
%TO.N,Net-(U3A--)*%
X184500000Y-98300000D02*
X184500000Y-95760000D01*
%TO.N,Net-(R17-Pad2)*%
X189500000Y-91500000D02*
X192000000Y-91500000D01*
X188320001Y-79214999D02*
X188320001Y-90320001D01*
X188320001Y-90320001D02*
X189500000Y-91500000D01*
X189040000Y-78495000D02*
X188320001Y-79214999D01*
%TO.N,Net-(C7-Pad2)*%
X197000000Y-106000000D02*
X196500000Y-105500000D01*
X196500000Y-105500000D02*
X196500000Y-103812500D01*
X202626000Y-104874000D02*
X201500000Y-106000000D01*
X201500000Y-106000000D02*
X197000000Y-106000000D01*
X202626000Y-98251000D02*
X202626000Y-104874000D01*
X201500000Y-97125000D02*
X202626000Y-98251000D01*
%TO.N,Net-(D2-K)*%
X195190000Y-96822405D02*
X195190000Y-91187500D01*
X190994000Y-100299595D02*
X191867595Y-99426000D01*
X191867595Y-99426000D02*
X192586405Y-99426000D01*
X190994000Y-107334000D02*
X190994000Y-100299595D01*
X192586405Y-99426000D02*
X195190000Y-96822405D01*
X192120000Y-108460000D02*
X190994000Y-107334000D01*
%TO.N,Net-(C3-Pad2)*%
X165500000Y-92000000D02*
X165500000Y-86400000D01*
X161000000Y-93500000D02*
X164000000Y-93500000D01*
X160500000Y-94000000D02*
X161000000Y-93500000D01*
X164000000Y-93500000D02*
X165500000Y-92000000D01*
X160500000Y-94433333D02*
X160500000Y-94000000D01*
%TO.N,Net-(NOTCH1-Pad1)*%
X156000000Y-83500000D02*
X156000000Y-80000000D01*
X156500000Y-84000000D02*
X156000000Y-83500000D01*
X156000000Y-80000000D02*
X155000000Y-79000000D01*
X169340000Y-84000000D02*
X156500000Y-84000000D01*
X169920000Y-84580000D02*
X169340000Y-84000000D01*
X169920000Y-86000000D02*
X169920000Y-84580000D01*
%TO.N,Net-(J3-Pin_2)*%
X168000000Y-78500000D02*
X167500000Y-79000000D01*
X174000000Y-78500000D02*
X168000000Y-78500000D01*
X169000000Y-80500000D02*
X167500000Y-79000000D01*
X183960000Y-78495000D02*
X181955000Y-80500000D01*
X181955000Y-80500000D02*
X169000000Y-80500000D01*
X186500000Y-78495000D02*
X183960000Y-78495000D01*
X198114000Y-77299000D02*
X187696000Y-77299000D01*
X187696000Y-77299000D02*
X186500000Y-78495000D01*
X199290000Y-78475000D02*
X198114000Y-77299000D01*
%TO.N,Net-(D2-K)*%
X180080000Y-91580000D02*
X181000000Y-92500000D01*
X180080000Y-91000000D02*
X180080000Y-91580000D01*
X194000000Y-92500000D02*
X181000000Y-92500000D01*
X195190000Y-91187500D02*
X195190000Y-91310000D01*
X195190000Y-91310000D02*
X194000000Y-92500000D01*
%TO.N,Net-(U3D--)*%
X181000000Y-100080000D02*
X180080000Y-101000000D01*
X181000000Y-96500000D02*
X181000000Y-100080000D01*
X180500000Y-96000000D02*
X181000000Y-96500000D01*
X180160000Y-96000000D02*
X180500000Y-96000000D01*
X192586405Y-94634000D02*
X193246000Y-95293595D01*
X193246000Y-95293595D02*
X193246000Y-97174000D01*
X181526000Y-94634000D02*
X192586405Y-94634000D01*
X193246000Y-97174000D02*
X192120000Y-98300000D01*
X180160000Y-96000000D02*
X181526000Y-94634000D01*
%TO.N,Net-(R17-Pad2)*%
X190500000Y-97380000D02*
X192120000Y-95760000D01*
X190500000Y-100932000D02*
X190500000Y-97380000D01*
X189466000Y-101966000D02*
X190500000Y-100932000D01*
X183374000Y-102626000D02*
X184034000Y-101966000D01*
X183374000Y-107706000D02*
X183374000Y-102626000D01*
X180080000Y-111000000D02*
X183374000Y-107706000D01*
X184034000Y-101966000D02*
X189466000Y-101966000D01*
%TO.N,Net-(NOTCH1-Pad1)*%
X182549000Y-112500000D02*
X182375000Y-112500000D01*
X169827595Y-112500000D02*
X182549000Y-112500000D01*
X168794000Y-102126000D02*
X168794000Y-111466405D01*
X169920000Y-101000000D02*
X168794000Y-102126000D01*
X168794000Y-111466405D02*
X169827595Y-112500000D01*
%TO.N,Net-(D2-K)*%
X179000000Y-91000000D02*
X180080000Y-91000000D01*
X178000000Y-92000000D02*
X179000000Y-91000000D01*
X178000000Y-102000000D02*
X178000000Y-92000000D01*
X177000000Y-103000000D02*
X178000000Y-102000000D01*
X171000000Y-103000000D02*
X177000000Y-103000000D01*
X169920000Y-104080000D02*
X171000000Y-103000000D01*
X169920000Y-106000000D02*
X169920000Y-104080000D01*
%TO.N,Net-(U3D--)*%
X179500000Y-101000000D02*
X180080000Y-101000000D01*
X178500000Y-102000000D02*
X179500000Y-101000000D01*
X178500000Y-107000000D02*
X178500000Y-102000000D01*
X177000000Y-108500000D02*
X178500000Y-107000000D01*
X171000000Y-108500000D02*
X177000000Y-108500000D01*
X169920000Y-109580000D02*
X171000000Y-108500000D01*
X169920000Y-111000000D02*
X169920000Y-109580000D01*
%TO.N,Net-(U2D--)*%
X158500000Y-92500000D02*
X158500000Y-96000000D01*
X158500000Y-96000000D02*
X158625000Y-96000000D01*
X151996000Y-88996000D02*
X153500000Y-90500000D01*
X153500000Y-90500000D02*
X156500000Y-90500000D01*
X156500000Y-90500000D02*
X158500000Y-92500000D01*
X148750000Y-79000000D02*
X151996000Y-82246000D01*
%TO.N,Net-(U2C--)*%
X154000000Y-102960000D02*
X154000000Y-106000000D01*
X156120000Y-100840000D02*
X154000000Y-102960000D01*
%TO.N,Net-(U2D--)*%
X156120000Y-95760000D02*
X156120000Y-98300000D01*
%TO.N,Net-(U2C--)*%
X156120000Y-108460000D02*
X156120000Y-111000000D01*
X164200001Y-111799999D02*
X165500000Y-110500000D01*
X156120000Y-111000000D02*
X156919999Y-111799999D01*
X156919999Y-111799999D02*
X164200001Y-111799999D01*
%TO.N,Net-(U2B--)*%
X148500000Y-108460000D02*
X148500000Y-111000000D01*
%TO.N,Net-(U2A--)*%
X148500000Y-98300000D02*
X148500000Y-95760000D01*
%TO.N,Net-(U2A-+)*%
X165500000Y-100637810D02*
X165500000Y-94433333D01*
X159091810Y-107046000D02*
X165500000Y-100637810D01*
X148033595Y-107046000D02*
X159091810Y-107046000D01*
X147374000Y-106386405D02*
X148033595Y-107046000D01*
X147374000Y-101966000D02*
X147374000Y-106386405D01*
X148500000Y-100840000D02*
X147374000Y-101966000D01*
%TO.N,Net-(U2A--)*%
X150000000Y-104420000D02*
X148500000Y-105920000D01*
X150000000Y-97260000D02*
X150000000Y-104420000D01*
X148500000Y-95760000D02*
X150000000Y-97260000D01*
X148500000Y-98300000D02*
X148500000Y-98500000D01*
D20*
%TO.N,+9V*%
X148500000Y-88370000D02*
X148500000Y-89000000D01*
X150870000Y-86000000D02*
X148500000Y-88370000D01*
D19*
%TO.N,Net-(U2C-+)*%
X160500000Y-105000000D02*
X160500000Y-102466667D01*
X159580000Y-105920000D02*
X160500000Y-105000000D01*
X156120000Y-105920000D02*
X159580000Y-105920000D01*
%TO.N,Net-(U3B--)*%
X183000000Y-109960000D02*
X184500000Y-108460000D01*
X182000000Y-114500000D02*
X183000000Y-113500000D01*
X183000000Y-113500000D02*
X183000000Y-109960000D01*
X147000000Y-114500000D02*
X182000000Y-114500000D01*
%TO.N,Net-(C7-Pad2)*%
X197000000Y-108500000D02*
X196500000Y-108000000D01*
X198500000Y-114000000D02*
X198500000Y-109500000D01*
X133000000Y-116000000D02*
X196500000Y-116000000D01*
X198500000Y-109500000D02*
X197500000Y-108500000D01*
X197500000Y-108500000D02*
X197000000Y-108500000D01*
X132500000Y-107420000D02*
X132500000Y-115500000D01*
X196500000Y-116000000D02*
X198500000Y-114000000D01*
X133920000Y-106000000D02*
X132500000Y-107420000D01*
X132500000Y-115500000D02*
X133000000Y-116000000D01*
X196500000Y-108000000D02*
X196500000Y-105500000D01*
%TO.N,Net-(C9-Pad1)*%
X196500000Y-113500000D02*
X196500000Y-110500000D01*
X194500000Y-115500000D02*
X196500000Y-113500000D01*
X145206000Y-114706000D02*
X146000000Y-115500000D01*
X146000000Y-115500000D02*
X194500000Y-115500000D01*
X145206000Y-97126000D02*
X145206000Y-114706000D01*
X144080000Y-96000000D02*
X145206000Y-97126000D01*
X133920000Y-99580000D02*
X133920000Y-101000000D01*
X137500000Y-96000000D02*
X133920000Y-99580000D01*
X144080000Y-96000000D02*
X137500000Y-96000000D01*
%TO.N,Net-(U2C-+)*%
X158000000Y-101000000D02*
X159466667Y-102466667D01*
X158000000Y-93000000D02*
X158000000Y-101000000D01*
X156000000Y-91000000D02*
X158000000Y-93000000D01*
X159466667Y-102466667D02*
X160500000Y-102466667D01*
X147000000Y-91000000D02*
X156000000Y-91000000D01*
%TO.N,Net-(U2B--)*%
X146000000Y-86000000D02*
X146000000Y-107500000D01*
X146000000Y-107500000D02*
X146960000Y-108460000D01*
X144500000Y-84500000D02*
X146000000Y-86000000D01*
X146960000Y-108460000D02*
X148500000Y-108460000D01*
X135420000Y-84500000D02*
X144500000Y-84500000D01*
X133920000Y-86000000D02*
X135420000Y-84500000D01*
%TO.N,Net-(C6-Pad1)*%
X133920000Y-89080000D02*
X133920000Y-91000000D01*
X137000000Y-86000000D02*
X133920000Y-89080000D01*
X144080000Y-86000000D02*
X137000000Y-86000000D01*
%TO.N,Net-(U2B--)*%
X133500000Y-85580000D02*
X133920000Y-86000000D01*
X133500000Y-81750000D02*
X133500000Y-85580000D01*
X136250000Y-79000000D02*
X133500000Y-81750000D01*
%TO.N,Net-(U1-+)*%
X116454000Y-98454000D02*
X116454000Y-92454000D01*
X117000000Y-99000000D02*
X116454000Y-98454000D01*
X125629436Y-104687246D02*
X119942190Y-99000000D01*
X119942190Y-99000000D02*
X117000000Y-99000000D01*
X128185000Y-104687246D02*
X125629436Y-104687246D01*
%TO.N,Net-(U1--)*%
X130626000Y-90993595D02*
X130626000Y-109874000D01*
X125546000Y-90334000D02*
X129966405Y-90334000D01*
X130626000Y-109874000D02*
X129812754Y-110687246D01*
X121880000Y-94000000D02*
X125546000Y-90334000D01*
X129966405Y-90334000D02*
X130626000Y-90993595D01*
X129812754Y-110687246D02*
X128185000Y-110687246D01*
%TO.N,Net-(J2-Pin_3)*%
X122000000Y-110000000D02*
X123185000Y-108815000D01*
X123185000Y-108815000D02*
X123185000Y-104687246D01*
X116040000Y-110000000D02*
X122000000Y-110000000D01*
X115040000Y-111000000D02*
X116040000Y-110000000D01*
%TO.N,Net-(J2-Pin_2)*%
X121696246Y-112176000D02*
X123185000Y-110687246D01*
X113676000Y-112176000D02*
X121696246Y-112176000D01*
X112500000Y-111000000D02*
X113676000Y-112176000D01*
%TO.N,Net-(R3-Pad1)*%
X105000000Y-85000000D02*
X105000000Y-93580000D01*
X106500000Y-83500000D02*
X105000000Y-85000000D01*
X105000000Y-93580000D02*
X107420000Y-96000000D01*
X119500000Y-91000000D02*
X119500000Y-84000000D01*
X119000000Y-83500000D02*
X106500000Y-83500000D01*
X119960000Y-91460000D02*
X119500000Y-91000000D01*
X121880000Y-91460000D02*
X119960000Y-91460000D01*
X119500000Y-84000000D02*
X119000000Y-83500000D01*
%TO.N,Net-(R3-Pad2)*%
X127000000Y-94500000D02*
X127000000Y-92500000D01*
X123834000Y-97666000D02*
X127000000Y-94500000D01*
X127000000Y-92500000D02*
X128040000Y-91460000D01*
X128040000Y-91460000D02*
X129500000Y-91460000D01*
X119246000Y-97666000D02*
X123834000Y-97666000D01*
X117580000Y-96000000D02*
X119246000Y-97666000D01*
%TO.N,Net-(U1-+)*%
X120540000Y-96540000D02*
X121880000Y-96540000D01*
X116454000Y-92454000D02*
X120540000Y-96540000D01*
X116454000Y-87126000D02*
X116454000Y-92454000D01*
X117580000Y-86000000D02*
X116454000Y-87126000D01*
%TO.N,Net-(U1--)*%
X119000000Y-94000000D02*
X121880000Y-94000000D01*
X117580000Y-91000000D02*
X117580000Y-92580000D01*
X117580000Y-92580000D02*
X119000000Y-94000000D01*
%TD*%
%TA.AperFunction,Conductor*%
%TO.N,GND*%
G36*
X182281479Y-82055946D02*
G01*
X182288907Y-82060945D01*
X182290626Y-82069733D01*
X182290315Y-82070937D01*
X182127583Y-82586060D01*
X182121823Y-82592917D01*
X182116426Y-82594236D01*
X181883574Y-82594236D01*
X181875301Y-82590809D01*
X181872417Y-82586060D01*
X181709684Y-82070937D01*
X181710460Y-82062016D01*
X181717317Y-82056256D01*
X181718500Y-82055950D01*
X181997682Y-81999469D01*
X182002318Y-81999469D01*
X182281479Y-82055946D01*
G37*
%TD.AperFunction*%
%TD*%
%TA.AperFunction,Conductor*%
%TO.N,GND*%
G36*
X182255805Y-85575377D02*
G01*
X182735123Y-85824556D01*
X182740883Y-85831412D01*
X182740107Y-85840333D01*
X182739475Y-85841404D01*
X182582015Y-86078734D01*
X182578734Y-86082015D01*
X182341404Y-86239475D01*
X182332616Y-86241194D01*
X182325187Y-86236194D01*
X182324560Y-86235132D01*
X182075377Y-85755806D01*
X182074602Y-85746887D01*
X182077484Y-85742140D01*
X182242139Y-85577485D01*
X182250411Y-85574059D01*
X182255805Y-85575377D01*
G37*
%TD.AperFunction*%
%TD*%
%TA.AperFunction,Conductor*%
%TO.N,Net-(C3-Pad1)*%
G36*
X130979488Y-78808659D02*
G01*
X130984067Y-78814644D01*
X131486695Y-80305360D01*
X131486091Y-80314294D01*
X131483881Y-80317371D01*
X131317371Y-80483881D01*
X131309098Y-80487308D01*
X131305360Y-80486695D01*
X129814644Y-79984067D01*
X129807899Y-79978176D01*
X129806905Y-79970709D01*
X129997771Y-79006973D01*
X130002740Y-78999525D01*
X130006972Y-78997772D01*
X130970709Y-78806905D01*
X130979488Y-78808659D01*
G37*
%TD.AperFunction*%
%TD*%
%TA.AperFunction,Conductor*%
%TO.N,Net-(C3-Pad1)*%
G36*
X132624699Y-90909191D02*
G01*
X132627583Y-90913940D01*
X132790315Y-91429062D01*
X132789539Y-91437983D01*
X132782682Y-91443743D01*
X132781478Y-91444054D01*
X132502320Y-91500530D01*
X132497680Y-91500530D01*
X132264553Y-91453366D01*
X132218520Y-91444053D01*
X132211092Y-91439054D01*
X132209373Y-91430266D01*
X132209680Y-91429075D01*
X132372417Y-90913939D01*
X132378177Y-90907083D01*
X132383574Y-90905764D01*
X132616426Y-90905764D01*
X132624699Y-90909191D01*
G37*
%TD.AperFunction*%
%TD*%
%TA.AperFunction,Conductor*%
%TO.N,Net-(C6-Pad1)*%
G36*
X133913020Y-90997772D02*
G01*
X133920470Y-91002740D01*
X133922227Y-91006979D01*
X134074114Y-91774730D01*
X134072357Y-91783511D01*
X134066570Y-91788020D01*
X132894858Y-92206399D01*
X132885915Y-92205953D01*
X132882651Y-92203653D01*
X132716346Y-92037348D01*
X132712919Y-92029075D01*
X132713600Y-92025141D01*
X132743881Y-91940334D01*
X132749046Y-91934140D01*
X132807314Y-91900500D01*
X132900500Y-91807314D01*
X132966392Y-91693186D01*
X133000500Y-91565892D01*
X133000500Y-91434108D01*
X133000500Y-91434106D01*
X132996656Y-91419763D01*
X132989081Y-91391495D01*
X132988756Y-91389768D01*
X132986269Y-91367158D01*
X132969745Y-91314851D01*
X132969883Y-91307395D01*
X133131979Y-90853428D01*
X133137989Y-90846790D01*
X133145266Y-90845885D01*
X133913020Y-90997772D01*
G37*
%TD.AperFunction*%
%TD*%
%TA.AperFunction,Conductor*%
%TO.N,Net-(C6-Pad1)*%
G36*
X131624699Y-114909191D02*
G01*
X131627583Y-114913940D01*
X131790315Y-115429062D01*
X131789539Y-115437983D01*
X131782682Y-115443743D01*
X131781478Y-115444054D01*
X131502320Y-115500530D01*
X131497680Y-115500530D01*
X131264553Y-115453366D01*
X131218520Y-115444053D01*
X131211092Y-115439054D01*
X131209373Y-115430266D01*
X131209680Y-115429075D01*
X131372417Y-114913939D01*
X131378177Y-114907083D01*
X131383574Y-114905764D01*
X131616426Y-114905764D01*
X131624699Y-114909191D01*
G37*
%TD.AperFunction*%
%TD*%
%TA.AperFunction,Conductor*%
%TO.N,Net-(U3A-+)*%
G36*
X198070929Y-101709681D02*
G01*
X198586060Y-101872417D01*
X198592917Y-101878177D01*
X198594236Y-101883574D01*
X198594236Y-102116425D01*
X198590809Y-102124698D01*
X198586060Y-102127582D01*
X198070937Y-102290315D01*
X198062016Y-102289539D01*
X198056256Y-102282682D01*
X198055949Y-102281494D01*
X197999469Y-102002318D01*
X197999469Y-101997680D01*
X198022554Y-101883574D01*
X198055946Y-101718518D01*
X198060945Y-101711092D01*
X198069733Y-101709373D01*
X198070929Y-101709681D01*
G37*
%TD.AperFunction*%
%TD*%
%TA.AperFunction,Conductor*%
%TO.N,Net-(U3A-+)*%
G36*
X201050642Y-102372767D02*
G01*
X201936665Y-103140572D01*
X201940673Y-103148580D01*
X201938739Y-103155902D01*
X201505051Y-103806687D01*
X201497612Y-103811671D01*
X201493024Y-103811673D01*
X200726144Y-103658578D01*
X200718702Y-103653597D01*
X200716840Y-103645541D01*
X200865107Y-102546324D01*
X200868427Y-102539619D01*
X201034710Y-102373336D01*
X201042982Y-102369910D01*
X201050642Y-102372767D01*
G37*
%TD.AperFunction*%
%TD*%
%TA.AperFunction,Conductor*%
%TO.N,GND*%
G36*
X142506508Y-79003356D02*
G01*
X143322932Y-79549855D01*
X143327901Y-79557305D01*
X143326907Y-79564774D01*
X142628224Y-80974281D01*
X142621479Y-80980172D01*
X142617741Y-80980785D01*
X142382259Y-80980785D01*
X142373986Y-80977358D01*
X142371776Y-80974281D01*
X141673092Y-79564774D01*
X141672488Y-79555840D01*
X141677066Y-79549856D01*
X142493492Y-79003355D01*
X142502273Y-79001602D01*
X142506508Y-79003356D01*
G37*
%TD.AperFunction*%
%TD*%
%TA.AperFunction,Conductor*%
%TO.N,GND*%
G36*
X148495870Y-84418799D02*
G01*
X148498170Y-84422063D01*
X149030856Y-85546427D01*
X149031302Y-85555370D01*
X149026793Y-85561157D01*
X148376510Y-85996640D01*
X148367729Y-85998397D01*
X148363490Y-85996640D01*
X147713206Y-85561157D01*
X147708238Y-85553707D01*
X147709143Y-85546427D01*
X148241830Y-84422063D01*
X148248469Y-84416053D01*
X148252403Y-84415372D01*
X148487597Y-84415372D01*
X148495870Y-84418799D01*
G37*
%TD.AperFunction*%
%TD*%
%TA.AperFunction,Conductor*%
%TO.N,Net-(D1-A)*%
G36*
X203593511Y-85847642D02*
G01*
X203598020Y-85853429D01*
X204016399Y-87025141D01*
X204015953Y-87034084D01*
X204013653Y-87037348D01*
X203847348Y-87203653D01*
X203839075Y-87207080D01*
X203835141Y-87206399D01*
X202663429Y-86788020D01*
X202656790Y-86782010D01*
X202655885Y-86774733D01*
X202807772Y-86006978D01*
X202812740Y-85999529D01*
X202816976Y-85997772D01*
X203584732Y-85845885D01*
X203593511Y-85847642D01*
G37*
%TD.AperFunction*%
%TD*%
%TA.AperFunction,Conductor*%
%TO.N,Net-(D1-A)*%
G36*
X200837861Y-113997486D02*
G01*
X201002513Y-114162138D01*
X201005940Y-114170411D01*
X201004621Y-114175808D01*
X200755444Y-114655123D01*
X200748587Y-114660883D01*
X200739666Y-114660107D01*
X200738595Y-114659475D01*
X200501265Y-114502015D01*
X200497984Y-114498734D01*
X200340524Y-114261404D01*
X200338805Y-114252616D01*
X200343805Y-114245187D01*
X200344859Y-114244564D01*
X200824193Y-113995377D01*
X200833112Y-113994602D01*
X200837861Y-113997486D01*
G37*
%TD.AperFunction*%
%TD*%
%TA.AperFunction,Conductor*%
%TO.N,Net-(D1-K)*%
G36*
X193154084Y-109794046D02*
G01*
X193157348Y-109796346D01*
X193323653Y-109962651D01*
X193327080Y-109970924D01*
X193326399Y-109974858D01*
X192908020Y-111146570D01*
X192902010Y-111153209D01*
X192894730Y-111154113D01*
X192729538Y-111121433D01*
X192126979Y-111002227D01*
X192119529Y-110997259D01*
X192117772Y-110993020D01*
X191965885Y-110225266D01*
X191967642Y-110216488D01*
X191973427Y-110211979D01*
X193145142Y-109793600D01*
X193154084Y-109794046D01*
G37*
%TD.AperFunction*%
%TD*%
%TA.AperFunction,Conductor*%
%TO.N,Net-(D1-K)*%
G36*
X195924793Y-85278747D02*
G01*
X196784939Y-85871512D01*
X196789807Y-85879028D01*
X196790000Y-85881146D01*
X196790000Y-86118853D01*
X196786573Y-86127126D01*
X196784939Y-86128487D01*
X195924793Y-86721252D01*
X195916036Y-86723125D01*
X195909888Y-86719897D01*
X195197289Y-86008278D01*
X195193857Y-86000008D01*
X195197278Y-85991733D01*
X195197290Y-85991721D01*
X195909889Y-85280100D01*
X195918162Y-85276681D01*
X195924793Y-85278747D01*
G37*
%TD.AperFunction*%
%TD*%
%TA.AperFunction,Conductor*%
%TO.N,Net-(D1-K)*%
G36*
X202371157Y-90530706D02*
G01*
X202806640Y-91180990D01*
X202808397Y-91189771D01*
X202806640Y-91194010D01*
X202371157Y-91844293D01*
X202363707Y-91849261D01*
X202356427Y-91848356D01*
X201232063Y-91315669D01*
X201226053Y-91309030D01*
X201225372Y-91305096D01*
X201225372Y-91069903D01*
X201228799Y-91061630D01*
X201232063Y-91059330D01*
X202356427Y-90526642D01*
X202365370Y-90526197D01*
X202371157Y-90530706D01*
G37*
%TD.AperFunction*%
%TD*%
%TA.AperFunction,Conductor*%
%TO.N,Net-(D1-K)*%
G36*
X195924793Y-85278747D02*
G01*
X196784939Y-85871512D01*
X196789807Y-85879028D01*
X196790000Y-85881146D01*
X196790000Y-86118853D01*
X196786573Y-86127126D01*
X196784939Y-86128487D01*
X195924793Y-86721252D01*
X195916036Y-86723125D01*
X195909888Y-86719897D01*
X195197289Y-86008278D01*
X195193857Y-86000008D01*
X195197278Y-85991733D01*
X195197290Y-85991721D01*
X195909889Y-85280100D01*
X195918162Y-85276681D01*
X195924793Y-85278747D01*
G37*
%TD.AperFunction*%
%TD*%
%TA.AperFunction,Conductor*%
%TO.N,GND*%
G36*
X129163670Y-84488011D02*
G01*
X129164183Y-84488558D01*
X129313636Y-84658927D01*
X130091387Y-85545525D01*
X130094267Y-85554005D01*
X130090308Y-85562036D01*
X130089104Y-85562961D01*
X129439744Y-85998001D01*
X129430964Y-85999759D01*
X129430941Y-85999755D01*
X128662714Y-85846391D01*
X128655272Y-85841410D01*
X128653531Y-85832626D01*
X128653723Y-85831819D01*
X128978358Y-84658924D01*
X128981358Y-84653777D01*
X129147125Y-84488010D01*
X129155397Y-84484584D01*
X129163670Y-84488011D01*
G37*
%TD.AperFunction*%
%TD*%
%TA.AperFunction,Conductor*%
%TO.N,Net-(U3A-+)*%
G36*
X143675805Y-114495377D02*
G01*
X144155123Y-114744556D01*
X144160883Y-114751412D01*
X144160107Y-114760333D01*
X144159475Y-114761404D01*
X144002015Y-114998734D01*
X143998734Y-115002015D01*
X143761404Y-115159475D01*
X143752616Y-115161194D01*
X143745187Y-115156194D01*
X143744560Y-115155132D01*
X143495377Y-114675806D01*
X143494602Y-114666887D01*
X143497484Y-114662140D01*
X143662139Y-114497485D01*
X143670411Y-114494059D01*
X143675805Y-114495377D01*
G37*
%TD.AperFunction*%
%TD*%
%TA.AperFunction,Conductor*%
%TO.N,Net-(U3A-+)*%
G36*
X144073020Y-100997772D02*
G01*
X144080470Y-101002740D01*
X144082227Y-101006979D01*
X144234114Y-101774730D01*
X144232357Y-101783511D01*
X144226570Y-101788020D01*
X143054858Y-102206399D01*
X143045915Y-102205953D01*
X143042651Y-102203653D01*
X142876346Y-102037348D01*
X142872919Y-102029075D01*
X142873600Y-102025141D01*
X142958268Y-101788020D01*
X143291979Y-100853428D01*
X143297989Y-100846790D01*
X143305266Y-100845885D01*
X144073020Y-100997772D01*
G37*
%TD.AperFunction*%
%TD*%
%TA.AperFunction,Conductor*%
%TO.N,GND*%
G36*
X192625473Y-84498799D02*
G01*
X192628000Y-84502571D01*
X193096478Y-85626671D01*
X193096497Y-85635626D01*
X193092188Y-85640893D01*
X192441510Y-86076640D01*
X192432729Y-86078397D01*
X192428490Y-86076640D01*
X191778599Y-85641420D01*
X191773631Y-85633970D01*
X191774774Y-85626216D01*
X192371701Y-84501586D01*
X192378606Y-84495886D01*
X192382035Y-84495372D01*
X192617200Y-84495372D01*
X192625473Y-84498799D01*
G37*
%TD.AperFunction*%
%TD*%
%TA.AperFunction,Conductor*%
%TO.N,GND*%
G36*
X195907642Y-77632633D02*
G01*
X196742712Y-78466722D01*
X196746144Y-78474993D01*
X196742722Y-78483268D01*
X196742712Y-78483278D01*
X195907642Y-79317366D01*
X195899367Y-79320788D01*
X195891781Y-79317990D01*
X195891049Y-79317366D01*
X195054107Y-78603503D01*
X195050037Y-78595527D01*
X195050000Y-78594601D01*
X195050000Y-78355398D01*
X195053427Y-78347125D01*
X195054093Y-78346508D01*
X195891783Y-77632008D01*
X195900300Y-77629248D01*
X195907642Y-77632633D01*
G37*
%TD.AperFunction*%
%TD*%
%TA.AperFunction,Conductor*%
%TO.N,GND*%
G36*
X121914856Y-84360907D02*
G01*
X121917659Y-84362977D01*
X122081897Y-84527215D01*
X122084075Y-84530228D01*
X122595525Y-85546305D01*
X122596183Y-85555235D01*
X122591577Y-85561292D01*
X121940802Y-85996355D01*
X121932019Y-85998104D01*
X121927787Y-85996348D01*
X121278584Y-85561413D01*
X121273618Y-85553961D01*
X121274752Y-85546224D01*
X121899045Y-84365778D01*
X121905940Y-84360069D01*
X121914856Y-84360907D01*
G37*
%TD.AperFunction*%
%TD*%
%TA.AperFunction,Conductor*%
%TO.N,Net-(U3A--)*%
G36*
X188581479Y-111055946D02*
G01*
X188588907Y-111060945D01*
X188590626Y-111069733D01*
X188590315Y-111070937D01*
X188427583Y-111586060D01*
X188421823Y-111592917D01*
X188416426Y-111594236D01*
X188183574Y-111594236D01*
X188175301Y-111590809D01*
X188172417Y-111586060D01*
X188009684Y-111070937D01*
X188010460Y-111062016D01*
X188017317Y-111056256D01*
X188018500Y-111055950D01*
X188297682Y-110999469D01*
X188302318Y-110999469D01*
X188581479Y-111055946D01*
G37*
%TD.AperFunction*%
%TD*%
%TA.AperFunction,Conductor*%
%TO.N,Net-(U2D--)*%
G36*
X155094858Y-94553600D02*
G01*
X156266570Y-94971979D01*
X156273209Y-94977989D01*
X156274114Y-94985269D01*
X156122227Y-95753020D01*
X156117259Y-95760470D01*
X156113020Y-95762227D01*
X155345269Y-95914114D01*
X155336488Y-95912357D01*
X155331979Y-95906570D01*
X155277151Y-95753020D01*
X154913600Y-94734857D01*
X154914046Y-94725915D01*
X154916343Y-94722654D01*
X155082652Y-94556345D01*
X155090924Y-94552919D01*
X155094858Y-94553600D01*
G37*
%TD.AperFunction*%
%TD*%
%TA.AperFunction,Conductor*%
%TO.N,Net-(U2D--)*%
G36*
X147070929Y-93209681D02*
G01*
X147586060Y-93372417D01*
X147592917Y-93378177D01*
X147594236Y-93383574D01*
X147594236Y-93616425D01*
X147590809Y-93624698D01*
X147586060Y-93627582D01*
X147070937Y-93790315D01*
X147062016Y-93789539D01*
X147056256Y-93782682D01*
X147055949Y-93781494D01*
X146999469Y-93502318D01*
X146999469Y-93497680D01*
X147022554Y-93383574D01*
X147055946Y-93218518D01*
X147060945Y-93211092D01*
X147069733Y-93209373D01*
X147070929Y-93209681D01*
G37*
%TD.AperFunction*%
%TD*%
%TA.AperFunction,Conductor*%
%TO.N,Net-(U2D--)*%
G36*
X144937983Y-93710460D02*
G01*
X144943743Y-93717317D01*
X144944054Y-93718521D01*
X145000530Y-93997680D01*
X145000530Y-94002320D01*
X144944054Y-94281478D01*
X144939054Y-94288907D01*
X144930266Y-94290626D01*
X144929062Y-94290315D01*
X144413940Y-94127582D01*
X144407083Y-94121822D01*
X144405764Y-94116425D01*
X144405764Y-93883574D01*
X144409191Y-93875301D01*
X144413940Y-93872417D01*
X144929063Y-93709684D01*
X144937983Y-93710460D01*
G37*
%TD.AperFunction*%
%TD*%
%TA.AperFunction,Conductor*%
%TO.N,Net-(U2D--)*%
G36*
X134954084Y-94794046D02*
G01*
X134957348Y-94796346D01*
X135123653Y-94962651D01*
X135127080Y-94970924D01*
X135126399Y-94974858D01*
X134708020Y-96146570D01*
X134702010Y-96153209D01*
X134694730Y-96154113D01*
X134529538Y-96121433D01*
X133926979Y-96002227D01*
X133919529Y-95997259D01*
X133917772Y-95993020D01*
X133765885Y-95225266D01*
X133767642Y-95216488D01*
X133773427Y-95211979D01*
X134945142Y-94793600D01*
X134954084Y-94794046D01*
G37*
%TD.AperFunction*%
%TD*%
%TA.AperFunction,Conductor*%
%TO.N,Net-(C3-Pad1)*%
G36*
X131314294Y-77513908D02*
G01*
X131317371Y-77516118D01*
X131483881Y-77682628D01*
X131487308Y-77690901D01*
X131486695Y-77694639D01*
X130984067Y-79185355D01*
X130978176Y-79192100D01*
X130970707Y-79193094D01*
X130006975Y-79002228D01*
X129999525Y-78997259D01*
X129997771Y-78993024D01*
X129806905Y-78029290D01*
X129808659Y-78020511D01*
X129814641Y-78015933D01*
X131305360Y-77513304D01*
X131314294Y-77513908D01*
G37*
%TD.AperFunction*%
%TD*%
%TA.AperFunction,Conductor*%
%TO.N,Net-(C3-Pad1)*%
G36*
X159474858Y-85193600D02*
G01*
X160646570Y-85611979D01*
X160653209Y-85617989D01*
X160654114Y-85625269D01*
X160502227Y-86393020D01*
X160497259Y-86400470D01*
X160493020Y-86402227D01*
X159725269Y-86554114D01*
X159716488Y-86552357D01*
X159711979Y-86546570D01*
X159657151Y-86393020D01*
X159293600Y-85374857D01*
X159294046Y-85365915D01*
X159296343Y-85362654D01*
X159462652Y-85196345D01*
X159470924Y-85192919D01*
X159474858Y-85193600D01*
G37*
%TD.AperFunction*%
%TD*%
%TA.AperFunction,Conductor*%
%TO.N,Net-(U3B--)*%
G36*
X177124699Y-100909191D02*
G01*
X177127583Y-100913940D01*
X177290315Y-101429062D01*
X177289539Y-101437983D01*
X177282682Y-101443743D01*
X177281478Y-101444054D01*
X177002320Y-101500530D01*
X176997680Y-101500530D01*
X176764553Y-101453366D01*
X176718520Y-101444053D01*
X176711092Y-101439054D01*
X176709373Y-101430266D01*
X176709680Y-101429075D01*
X176872417Y-100913939D01*
X176878177Y-100907083D01*
X176883574Y-100905764D01*
X177116426Y-100905764D01*
X177124699Y-100909191D01*
G37*
%TD.AperFunction*%
%TD*%
%TA.AperFunction,Conductor*%
%TO.N,Net-(U3B--)*%
G36*
X180073020Y-85997772D02*
G01*
X180080470Y-86002740D01*
X180082227Y-86006979D01*
X180234114Y-86774730D01*
X180232357Y-86783511D01*
X180226570Y-86788020D01*
X179054858Y-87206399D01*
X179045915Y-87205953D01*
X179042651Y-87203653D01*
X178876346Y-87037348D01*
X178872919Y-87029075D01*
X178873600Y-87025141D01*
X178958268Y-86788020D01*
X179291979Y-85853428D01*
X179297989Y-85846790D01*
X179305266Y-85845885D01*
X180073020Y-85997772D01*
G37*
%TD.AperFunction*%
%TD*%
%TA.AperFunction,Conductor*%
%TO.N,Net-(U3A--)*%
G36*
X184954114Y-105261044D02*
G01*
X185986213Y-105925802D01*
X186076194Y-105983757D01*
X186081294Y-105991117D01*
X186079695Y-105999928D01*
X186078132Y-106001866D01*
X185913196Y-106166802D01*
X185909553Y-106169274D01*
X184953400Y-106581321D01*
X184944446Y-106581448D01*
X184939043Y-106577079D01*
X184666413Y-106169274D01*
X184503643Y-105925801D01*
X184501895Y-105917019D01*
X184503649Y-105912789D01*
X184938062Y-105264367D01*
X184945512Y-105259403D01*
X184954114Y-105261044D01*
G37*
%TD.AperFunction*%
%TD*%
%TA.AperFunction,Conductor*%
%TO.N,Net-(U3A--)*%
G36*
X186252805Y-113072377D02*
G01*
X186732123Y-113321556D01*
X186737883Y-113328412D01*
X186737107Y-113337333D01*
X186736475Y-113338404D01*
X186579015Y-113575734D01*
X186575734Y-113579015D01*
X186338404Y-113736475D01*
X186329616Y-113738194D01*
X186322187Y-113733194D01*
X186321560Y-113732132D01*
X186072377Y-113252806D01*
X186071602Y-113243887D01*
X186074484Y-113239140D01*
X186239139Y-113074485D01*
X186247411Y-113071059D01*
X186252805Y-113072377D01*
G37*
%TD.AperFunction*%
%TD*%
%TA.AperFunction,Conductor*%
%TO.N,Net-(NOTCH1-Pad1)*%
G36*
X168894858Y-99793600D02*
G01*
X170066570Y-100211979D01*
X170073209Y-100217989D01*
X170074114Y-100225269D01*
X169922227Y-100993020D01*
X169917259Y-101000470D01*
X169913020Y-101002227D01*
X169145269Y-101154114D01*
X169136488Y-101152357D01*
X169131979Y-101146570D01*
X169077151Y-100993020D01*
X168713600Y-99974857D01*
X168714046Y-99965915D01*
X168716343Y-99962654D01*
X168882652Y-99796345D01*
X168890924Y-99792919D01*
X168894858Y-99793600D01*
G37*
%TD.AperFunction*%
%TD*%
%TA.AperFunction,Conductor*%
%TO.N,Net-(NOTCH1-Pad1)*%
G36*
X169913020Y-90997772D02*
G01*
X169920470Y-91002740D01*
X169922227Y-91006979D01*
X170074114Y-91774730D01*
X170072357Y-91783511D01*
X170066570Y-91788020D01*
X168894858Y-92206399D01*
X168885915Y-92205953D01*
X168882651Y-92203653D01*
X168716346Y-92037348D01*
X168712919Y-92029075D01*
X168713600Y-92025141D01*
X168798268Y-91788020D01*
X169131979Y-90853428D01*
X169137989Y-90846790D01*
X169145266Y-90845885D01*
X169913020Y-90997772D01*
G37*
%TD.AperFunction*%
%TD*%
%TA.AperFunction,Conductor*%
%TO.N,Net-(NOTCH1-Pad1)*%
G36*
X169127230Y-89797416D02*
G01*
X170351615Y-90329246D01*
X170357837Y-90335684D01*
X170357684Y-90344637D01*
X170356686Y-90346469D01*
X169922697Y-90996957D01*
X169915255Y-91001937D01*
X169915246Y-91001939D01*
X169915232Y-91001942D01*
X169146917Y-91153790D01*
X169138137Y-91152032D01*
X169133171Y-91144580D01*
X169133158Y-91144513D01*
X169105855Y-91001942D01*
X168877662Y-89810348D01*
X168879471Y-89801579D01*
X168886952Y-89796657D01*
X168889153Y-89796448D01*
X169122570Y-89796448D01*
X169127230Y-89797416D01*
G37*
%TD.AperFunction*%
%TD*%
%TA.AperFunction,Conductor*%
%TO.N,Net-(NOTCH1-Pad1)*%
G36*
X169915233Y-85998057D02*
G01*
X169922684Y-86003023D01*
X169922697Y-86003042D01*
X170356686Y-86653530D01*
X170358427Y-86662314D01*
X170353446Y-86669756D01*
X170351614Y-86670754D01*
X169127231Y-87202583D01*
X169122570Y-87203552D01*
X168889153Y-87203552D01*
X168880880Y-87200125D01*
X168877453Y-87191852D01*
X168877662Y-87189651D01*
X168977032Y-86670754D01*
X169133158Y-85855484D01*
X169138080Y-85848005D01*
X169146848Y-85846196D01*
X169915233Y-85998057D01*
G37*
%TD.AperFunction*%
%TD*%
%TA.AperFunction,Conductor*%
%TO.N,Net-(U3A--)*%
G36*
X184508266Y-95767277D02*
G01*
X185219897Y-96479887D01*
X185223318Y-96488162D01*
X185221252Y-96494793D01*
X184628488Y-97354939D01*
X184620972Y-97359807D01*
X184618854Y-97360000D01*
X184381146Y-97360000D01*
X184372873Y-97356573D01*
X184371512Y-97354939D01*
X183778747Y-96494793D01*
X183776874Y-96486036D01*
X183780100Y-96479890D01*
X184491721Y-95767289D01*
X184499992Y-95763857D01*
X184508266Y-95767277D01*
G37*
%TD.AperFunction*%
%TD*%
%TA.AperFunction,Conductor*%
%TO.N,Net-(U3A--)*%
G36*
X184625870Y-96718799D02*
G01*
X184628170Y-96722063D01*
X185160856Y-97846427D01*
X185161302Y-97855370D01*
X185156793Y-97861157D01*
X184506510Y-98296640D01*
X184497729Y-98298397D01*
X184493490Y-98296640D01*
X183843206Y-97861157D01*
X183838238Y-97853707D01*
X183839143Y-97846427D01*
X184371830Y-96722063D01*
X184378469Y-96716053D01*
X184382403Y-96715372D01*
X184617597Y-96715372D01*
X184625870Y-96718799D01*
G37*
%TD.AperFunction*%
%TD*%
%TA.AperFunction,Conductor*%
%TO.N,Net-(R17-Pad2)*%
G36*
X191937983Y-91210460D02*
G01*
X191943743Y-91217317D01*
X191944054Y-91218521D01*
X192000530Y-91497680D01*
X192000530Y-91502320D01*
X191944054Y-91781478D01*
X191939054Y-91788907D01*
X191930266Y-91790626D01*
X191929062Y-91790315D01*
X191413940Y-91627582D01*
X191407083Y-91621822D01*
X191405764Y-91616425D01*
X191405764Y-91383574D01*
X191409191Y-91375301D01*
X191413940Y-91372417D01*
X191929063Y-91209684D01*
X191937983Y-91210460D01*
G37*
%TD.AperFunction*%
%TD*%
%TA.AperFunction,Conductor*%
%TO.N,Net-(R17-Pad2)*%
G36*
X188346329Y-78357002D02*
G01*
X189035231Y-78493058D01*
X189042683Y-78498023D01*
X189042697Y-78498043D01*
X189432837Y-79082904D01*
X189434577Y-79091688D01*
X189429597Y-79099130D01*
X189428599Y-79099727D01*
X188598246Y-79541417D01*
X188466997Y-79611233D01*
X188447577Y-79621563D01*
X188442082Y-79622933D01*
X188208052Y-79622933D01*
X188199779Y-79619506D01*
X188196352Y-79611233D01*
X188196421Y-79609960D01*
X188253149Y-79091688D01*
X188332447Y-78367208D01*
X188336754Y-78359359D01*
X188345351Y-78356852D01*
X188346329Y-78357002D01*
G37*
%TD.AperFunction*%
%TD*%
%TA.AperFunction,Conductor*%
%TO.N,Net-(C7-Pad2)*%
G36*
X196506507Y-103815857D02*
G01*
X197156793Y-104251342D01*
X197161761Y-104258792D01*
X197160856Y-104266072D01*
X196628170Y-105390437D01*
X196621531Y-105396447D01*
X196617597Y-105397128D01*
X196382403Y-105397128D01*
X196374130Y-105393701D01*
X196371830Y-105390437D01*
X195839143Y-104266072D01*
X195838697Y-104257129D01*
X195843204Y-104251343D01*
X196493491Y-103815858D01*
X196502271Y-103814102D01*
X196506507Y-103815857D01*
G37*
%TD.AperFunction*%
%TD*%
%TA.AperFunction,Conductor*%
%TO.N,Net-(C7-Pad2)*%
G36*
X202283511Y-96972642D02*
G01*
X202288020Y-96978429D01*
X202706399Y-98150141D01*
X202705953Y-98159084D01*
X202703653Y-98162348D01*
X202537348Y-98328653D01*
X202529075Y-98332080D01*
X202525141Y-98331399D01*
X201353429Y-97913020D01*
X201346790Y-97907010D01*
X201345885Y-97899733D01*
X201497772Y-97131978D01*
X201502740Y-97124529D01*
X201506976Y-97122772D01*
X202274732Y-96970885D01*
X202283511Y-96972642D01*
G37*
%TD.AperFunction*%
%TD*%
%TA.AperFunction,Conductor*%
%TO.N,Net-(D2-K)*%
G36*
X195198266Y-91194777D02*
G01*
X195909897Y-91907387D01*
X195913318Y-91915662D01*
X195911252Y-91922293D01*
X195318488Y-92782439D01*
X195310972Y-92787307D01*
X195308854Y-92787500D01*
X195071146Y-92787500D01*
X195062873Y-92784073D01*
X195061512Y-92782439D01*
X194468747Y-91922293D01*
X194466874Y-91913536D01*
X194470100Y-91907390D01*
X195181721Y-91194789D01*
X195189992Y-91191357D01*
X195198266Y-91194777D01*
G37*
%TD.AperFunction*%
%TD*%
%TA.AperFunction,Conductor*%
%TO.N,Net-(D2-K)*%
G36*
X191094858Y-107253600D02*
G01*
X192266570Y-107671979D01*
X192273209Y-107677989D01*
X192274114Y-107685269D01*
X192122227Y-108453020D01*
X192117259Y-108460470D01*
X192113020Y-108462227D01*
X191345269Y-108614114D01*
X191336488Y-108612357D01*
X191331979Y-108606570D01*
X191277151Y-108453020D01*
X190913600Y-107434857D01*
X190914046Y-107425915D01*
X190916343Y-107422654D01*
X191082652Y-107256345D01*
X191090924Y-107252919D01*
X191094858Y-107253600D01*
G37*
%TD.AperFunction*%
%TD*%
%TA.AperFunction,Conductor*%
%TO.N,Net-(C3-Pad2)*%
G36*
X165506507Y-86403357D02*
G01*
X166156793Y-86838842D01*
X166161761Y-86846292D01*
X166160856Y-86853572D01*
X165628170Y-87977937D01*
X165621531Y-87983947D01*
X165617597Y-87984628D01*
X165382403Y-87984628D01*
X165374130Y-87981201D01*
X165371830Y-87977937D01*
X164839143Y-86853572D01*
X164838697Y-86844629D01*
X164843204Y-86838843D01*
X165493491Y-86403358D01*
X165502271Y-86401602D01*
X165506507Y-86403357D01*
G37*
%TD.AperFunction*%
%TD*%
%TA.AperFunction,Conductor*%
%TO.N,Net-(C3-Pad2)*%
G36*
X161503298Y-93379821D02*
G01*
X161508526Y-93387091D01*
X161508836Y-93389767D01*
X161508836Y-93623658D01*
X161508532Y-93626307D01*
X161287193Y-94578370D01*
X161281982Y-94585653D01*
X161273517Y-94587197D01*
X160506679Y-94434858D01*
X160499232Y-94429885D01*
X160497482Y-94425652D01*
X160346116Y-93659777D01*
X160347874Y-93651000D01*
X160354916Y-93646123D01*
X161494461Y-93378377D01*
X161503298Y-93379821D01*
G37*
%TD.AperFunction*%
%TD*%
%TA.AperFunction,Conductor*%
%TO.N,Net-(NOTCH1-Pad1)*%
G36*
X155976703Y-78809210D02*
G01*
X155981670Y-78816661D01*
X155981854Y-78817977D01*
X156123964Y-80553917D01*
X156121224Y-80562443D01*
X156113258Y-80566533D01*
X156112303Y-80566572D01*
X155877831Y-80566572D01*
X155872484Y-80565278D01*
X154456094Y-79837462D01*
X154450301Y-79830633D01*
X154451035Y-79821709D01*
X154451698Y-79820578D01*
X154997306Y-79003036D01*
X155004743Y-78998061D01*
X155967923Y-78807455D01*
X155976703Y-78809210D01*
G37*
%TD.AperFunction*%
%TD*%
%TA.AperFunction,Conductor*%
%TO.N,Net-(NOTCH1-Pad1)*%
G36*
X169897825Y-84385902D02*
G01*
X169899641Y-84388250D01*
X170579592Y-85546036D01*
X170580826Y-85554905D01*
X170576015Y-85561681D01*
X169927212Y-85996348D01*
X169918432Y-85998106D01*
X169914197Y-85996355D01*
X169263112Y-85561085D01*
X169258139Y-85553638D01*
X169258980Y-85546483D01*
X169714328Y-84553885D01*
X169716684Y-84550497D01*
X169881280Y-84385901D01*
X169889552Y-84382475D01*
X169897825Y-84385902D01*
G37*
%TD.AperFunction*%
%TD*%
%TA.AperFunction,Conductor*%
%TO.N,Net-(J3-Pin_2)*%
G36*
X173280110Y-77780101D02*
G01*
X173613451Y-78112983D01*
X173992709Y-78491721D01*
X173996142Y-78499992D01*
X173992721Y-78508267D01*
X173992709Y-78508279D01*
X173280112Y-79219897D01*
X173271837Y-79223318D01*
X173265206Y-79221252D01*
X172405061Y-78628487D01*
X172400193Y-78620971D01*
X172400000Y-78618853D01*
X172400000Y-78381146D01*
X172403427Y-78372873D01*
X172405061Y-78371512D01*
X173265207Y-77778746D01*
X173273963Y-77776874D01*
X173280110Y-77780101D01*
G37*
%TD.AperFunction*%
%TD*%
%TA.AperFunction,Conductor*%
%TO.N,Net-(J3-Pin_2)*%
G36*
X167706673Y-78021698D02*
G01*
X169345241Y-78373017D01*
X169352612Y-78378102D01*
X169354488Y-78384457D01*
X169354488Y-78619898D01*
X169351061Y-78628171D01*
X169350750Y-78628471D01*
X168065622Y-79822132D01*
X168057229Y-79825251D01*
X168049087Y-79821521D01*
X168047937Y-79820067D01*
X167501702Y-79004037D01*
X167499948Y-78995256D01*
X167692764Y-78030847D01*
X167697746Y-78023407D01*
X167706531Y-78021669D01*
X167706673Y-78021698D01*
G37*
%TD.AperFunction*%
%TD*%
%TA.AperFunction,Conductor*%
%TO.N,Net-(J3-Pin_2)*%
G36*
X168479488Y-78808659D02*
G01*
X168484067Y-78814644D01*
X168986695Y-80305360D01*
X168986091Y-80314294D01*
X168983881Y-80317371D01*
X168817371Y-80483881D01*
X168809098Y-80487308D01*
X168805360Y-80486695D01*
X167314644Y-79984067D01*
X167307899Y-79978176D01*
X167306905Y-79970709D01*
X167497771Y-79006973D01*
X167502740Y-78999525D01*
X167506972Y-78997772D01*
X168470709Y-78806905D01*
X168479488Y-78808659D01*
G37*
%TD.AperFunction*%
%TD*%
%TA.AperFunction,Conductor*%
%TO.N,Net-(J3-Pin_2)*%
G36*
X183953019Y-78492773D02*
G01*
X183960470Y-78497739D01*
X183962227Y-78501981D01*
X184098528Y-79191368D01*
X184096771Y-79200148D01*
X184091094Y-79204616D01*
X183046960Y-79589252D01*
X183038013Y-79588896D01*
X183034643Y-79586546D01*
X182868453Y-79420356D01*
X182865026Y-79412083D01*
X182865747Y-79408039D01*
X182942330Y-79200148D01*
X183250383Y-78363904D01*
X183256459Y-78357326D01*
X183263628Y-78356471D01*
X183953019Y-78492773D01*
G37*
%TD.AperFunction*%
%TD*%
%TA.AperFunction,Conductor*%
%TO.N,Net-(J3-Pin_2)*%
G36*
X184369074Y-77900525D02*
G01*
X185379368Y-78366863D01*
X185385444Y-78373441D01*
X185386165Y-78377485D01*
X185386165Y-78612514D01*
X185382738Y-78620787D01*
X185379368Y-78623137D01*
X184369077Y-79089473D01*
X184360130Y-79089829D01*
X184354453Y-79085361D01*
X183963360Y-78501510D01*
X183961604Y-78492731D01*
X183963361Y-78488489D01*
X184044833Y-78366862D01*
X184354454Y-77904636D01*
X184361905Y-77899671D01*
X184369074Y-77900525D01*
G37*
%TD.AperFunction*%
%TD*%
%TA.AperFunction,Conductor*%
%TO.N,Net-(J3-Pin_2)*%
G36*
X186105546Y-77904638D02*
G01*
X186496638Y-78488489D01*
X186498395Y-78497269D01*
X186496638Y-78501511D01*
X186105546Y-79085361D01*
X186098094Y-79090328D01*
X186090922Y-79089473D01*
X185080632Y-78623137D01*
X185074556Y-78616558D01*
X185073835Y-78612514D01*
X185073835Y-78377485D01*
X185077262Y-78369212D01*
X185080629Y-78366863D01*
X186090924Y-77900525D01*
X186099869Y-77900170D01*
X186105546Y-77904638D01*
G37*
%TD.AperFunction*%
%TD*%
%TA.AperFunction,Conductor*%
%TO.N,Net-(J3-Pin_2)*%
G36*
X187421986Y-77401103D02*
G01*
X187425356Y-77403453D01*
X187591546Y-77569643D01*
X187594973Y-77577916D01*
X187594252Y-77581960D01*
X187209616Y-78626094D01*
X187203540Y-78632673D01*
X187196368Y-78633528D01*
X186506981Y-78497227D01*
X186499529Y-78492260D01*
X186497773Y-78488021D01*
X186361471Y-77798628D01*
X186363228Y-77789851D01*
X186368904Y-77785383D01*
X187413040Y-77400747D01*
X187421986Y-77401103D01*
G37*
%TD.AperFunction*%
%TD*%
%TA.AperFunction,Conductor*%
%TO.N,Net-(J3-Pin_2)*%
G36*
X198108940Y-77179314D02*
G01*
X198827023Y-77425636D01*
X199446163Y-77638018D01*
X199452877Y-77643944D01*
X199453845Y-77651354D01*
X199292518Y-78467318D01*
X199287551Y-78474770D01*
X199283320Y-78476525D01*
X198466780Y-78638751D01*
X198457998Y-78637002D01*
X198453289Y-78630620D01*
X198093936Y-77425636D01*
X198093448Y-77422292D01*
X198093448Y-77190382D01*
X198096875Y-77182109D01*
X198105148Y-77178682D01*
X198108940Y-77179314D01*
G37*
%TD.AperFunction*%
%TD*%
%TA.AperFunction,Conductor*%
%TO.N,Net-(D2-K)*%
G36*
X180860029Y-90848331D02*
G01*
X180864997Y-90855781D01*
X180865208Y-90857554D01*
X180924260Y-92242566D01*
X180921189Y-92250977D01*
X180920844Y-92251337D01*
X180754562Y-92417619D01*
X180746289Y-92421046D01*
X180739692Y-92419009D01*
X179645098Y-91671699D01*
X179640198Y-91664204D01*
X179641958Y-91655550D01*
X180076597Y-91003338D01*
X180084035Y-90998355D01*
X180084038Y-90998354D01*
X180851250Y-90846574D01*
X180860029Y-90848331D01*
G37*
%TD.AperFunction*%
%TD*%
%TA.AperFunction,Conductor*%
%TO.N,Net-(D2-K)*%
G36*
X194401972Y-90876627D02*
G01*
X195186481Y-91185719D01*
X195192922Y-91191940D01*
X195192929Y-91191957D01*
X195532517Y-91976494D01*
X195532659Y-91985448D01*
X195526428Y-91991879D01*
X195526162Y-91991990D01*
X193975030Y-92618504D01*
X193966075Y-92618425D01*
X193959800Y-92612038D01*
X193958948Y-92607656D01*
X193958948Y-92376645D01*
X193959401Y-92373420D01*
X194386449Y-90884289D01*
X194392023Y-90877284D01*
X194400920Y-90876270D01*
X194401972Y-90876627D01*
G37*
%TD.AperFunction*%
%TD*%
%TA.AperFunction,Conductor*%
%TO.N,Net-(U3D--)*%
G36*
X181119120Y-99799875D02*
G01*
X181122547Y-99808148D01*
X181122338Y-99810349D01*
X180866841Y-101144513D01*
X180861919Y-101151994D01*
X180853149Y-101153803D01*
X180853082Y-101153790D01*
X180084767Y-101001942D01*
X180077315Y-100996976D01*
X179643312Y-100346468D01*
X179641572Y-100337685D01*
X179646553Y-100330243D01*
X179648373Y-100329251D01*
X180872769Y-99797416D01*
X180877430Y-99796448D01*
X181110847Y-99796448D01*
X181119120Y-99799875D01*
G37*
%TD.AperFunction*%
%TD*%
%TA.AperFunction,Conductor*%
%TO.N,Net-(U3D--)*%
G36*
X180941308Y-95848077D02*
G01*
X180946274Y-95855529D01*
X180946378Y-95856137D01*
X181123085Y-97088808D01*
X181120866Y-97097483D01*
X181113163Y-97102050D01*
X181111503Y-97102168D01*
X180877065Y-97102168D01*
X180873058Y-97101460D01*
X180013351Y-96788063D01*
X180006752Y-96782010D01*
X180005882Y-96774791D01*
X180158474Y-96006679D01*
X180163447Y-95999232D01*
X180167678Y-95997482D01*
X180932529Y-95846319D01*
X180941308Y-95848077D01*
G37*
%TD.AperFunction*%
%TD*%
%TA.AperFunction,Conductor*%
%TO.N,Net-(U3D--)*%
G36*
X193154084Y-97094046D02*
G01*
X193157348Y-97096346D01*
X193323653Y-97262651D01*
X193327080Y-97270924D01*
X193326399Y-97274858D01*
X192908020Y-98446570D01*
X192902010Y-98453209D01*
X192894730Y-98454113D01*
X192729538Y-98421433D01*
X192126979Y-98302227D01*
X192119529Y-98297259D01*
X192117772Y-98293020D01*
X191965885Y-97525266D01*
X191967642Y-97516488D01*
X191973427Y-97511979D01*
X193145142Y-97093600D01*
X193154084Y-97094046D01*
G37*
%TD.AperFunction*%
%TD*%
%TA.AperFunction,Conductor*%
%TO.N,Net-(U3D--)*%
G36*
X181194084Y-94794046D02*
G01*
X181197348Y-94796346D01*
X181363653Y-94962651D01*
X181367080Y-94970924D01*
X181366399Y-94974858D01*
X180948020Y-96146570D01*
X180942010Y-96153209D01*
X180934730Y-96154113D01*
X180769538Y-96121433D01*
X180166979Y-96002227D01*
X180159529Y-95997259D01*
X180157772Y-95993020D01*
X180005885Y-95225266D01*
X180007642Y-95216488D01*
X180013427Y-95211979D01*
X181185142Y-94793600D01*
X181194084Y-94794046D01*
G37*
%TD.AperFunction*%
%TD*%
%TA.AperFunction,Conductor*%
%TO.N,Net-(R17-Pad2)*%
G36*
X192113020Y-95757772D02*
G01*
X192120470Y-95762740D01*
X192122227Y-95766979D01*
X192274114Y-96534730D01*
X192272357Y-96543511D01*
X192266570Y-96548020D01*
X191094858Y-96966399D01*
X191085915Y-96965953D01*
X191082651Y-96963653D01*
X190916346Y-96797348D01*
X190912919Y-96789075D01*
X190913600Y-96785141D01*
X190998268Y-96548020D01*
X191331979Y-95613428D01*
X191337989Y-95606790D01*
X191345266Y-95605885D01*
X192113020Y-95757772D01*
G37*
%TD.AperFunction*%
%TD*%
%TA.AperFunction,Conductor*%
%TO.N,Net-(R17-Pad2)*%
G36*
X181114084Y-109794046D02*
G01*
X181117348Y-109796346D01*
X181283653Y-109962651D01*
X181287080Y-109970924D01*
X181286399Y-109974858D01*
X180868020Y-111146570D01*
X180862010Y-111153209D01*
X180854730Y-111154113D01*
X180689538Y-111121433D01*
X180086979Y-111002227D01*
X180079529Y-110997259D01*
X180077772Y-110993020D01*
X179925885Y-110225266D01*
X179927642Y-110216488D01*
X179933427Y-110211979D01*
X181105142Y-109793600D01*
X181114084Y-109794046D01*
G37*
%TD.AperFunction*%
%TD*%
%TA.AperFunction,Conductor*%
%TO.N,Net-(NOTCH1-Pad1)*%
G36*
X182312983Y-112210460D02*
G01*
X182318743Y-112217317D01*
X182319054Y-112218521D01*
X182375530Y-112497680D01*
X182375530Y-112502320D01*
X182319054Y-112781478D01*
X182314054Y-112788907D01*
X182305266Y-112790626D01*
X182304062Y-112790315D01*
X181788940Y-112627582D01*
X181782083Y-112621822D01*
X181780764Y-112616425D01*
X181780764Y-112383574D01*
X181784191Y-112375301D01*
X181788940Y-112372417D01*
X182304063Y-112209684D01*
X182312983Y-112210460D01*
G37*
%TD.AperFunction*%
%TD*%
%TA.AperFunction,Conductor*%
%TO.N,Net-(NOTCH1-Pad1)*%
G36*
X169913020Y-100997772D02*
G01*
X169920470Y-101002740D01*
X169922227Y-101006979D01*
X170074114Y-101774730D01*
X170072357Y-101783511D01*
X170066570Y-101788020D01*
X168894858Y-102206399D01*
X168885915Y-102205953D01*
X168882651Y-102203653D01*
X168716346Y-102037348D01*
X168712919Y-102029075D01*
X168713600Y-102025141D01*
X168798268Y-101788020D01*
X169131979Y-100853428D01*
X169137989Y-100846790D01*
X169145266Y-100845885D01*
X169913020Y-100997772D01*
G37*
%TD.AperFunction*%
%TD*%
%TA.AperFunction,Conductor*%
%TO.N,Net-(D2-K)*%
G36*
X179642038Y-90344674D02*
G01*
X179642904Y-90345810D01*
X180078001Y-90995255D01*
X180079759Y-91004035D01*
X180079755Y-91004058D01*
X179926410Y-91772194D01*
X179921429Y-91779636D01*
X179912645Y-91781377D01*
X179911733Y-91781156D01*
X178734484Y-91446045D01*
X178729414Y-91443065D01*
X178563685Y-91277336D01*
X178560258Y-91269063D01*
X178563685Y-91260790D01*
X178564299Y-91260218D01*
X179625538Y-90343467D01*
X179634036Y-90340653D01*
X179642038Y-90344674D01*
G37*
%TD.AperFunction*%
%TD*%
%TA.AperFunction,Conductor*%
%TO.N,Net-(D2-K)*%
G36*
X170045870Y-104418799D02*
G01*
X170048170Y-104422063D01*
X170580856Y-105546427D01*
X170581302Y-105555370D01*
X170576793Y-105561157D01*
X169926510Y-105996640D01*
X169917729Y-105998397D01*
X169913490Y-105996640D01*
X169263206Y-105561157D01*
X169258238Y-105553707D01*
X169259143Y-105546427D01*
X169791830Y-104422063D01*
X169798469Y-104416053D01*
X169802403Y-104415372D01*
X170037597Y-104415372D01*
X170045870Y-104418799D01*
G37*
%TD.AperFunction*%
%TD*%
%TA.AperFunction,Conductor*%
%TO.N,Net-(U3D--)*%
G36*
X179424449Y-100561958D02*
G01*
X179429161Y-100565098D01*
X180076660Y-100996596D01*
X180081644Y-101004035D01*
X180081650Y-101004061D01*
X180233425Y-101771248D01*
X180231668Y-101780029D01*
X180224218Y-101784997D01*
X180222445Y-101785208D01*
X178837433Y-101844260D01*
X178829022Y-101841189D01*
X178828662Y-101840844D01*
X178662380Y-101674562D01*
X178658953Y-101666289D01*
X178660990Y-101659692D01*
X179408302Y-100565096D01*
X179415795Y-100560198D01*
X179424449Y-100561958D01*
G37*
%TD.AperFunction*%
%TD*%
%TA.AperFunction,Conductor*%
%TO.N,Net-(U3D--)*%
G36*
X169956372Y-109384086D02*
G01*
X169958720Y-109385902D01*
X170123312Y-109550494D01*
X170125673Y-109553889D01*
X170581018Y-110546480D01*
X170581353Y-110555428D01*
X170576887Y-110561085D01*
X169925802Y-110996355D01*
X169917019Y-110998104D01*
X169912787Y-110996348D01*
X169263984Y-110561681D01*
X169259018Y-110554229D01*
X169260406Y-110546038D01*
X169940359Y-109388249D01*
X169947503Y-109382852D01*
X169956372Y-109384086D01*
G37*
%TD.AperFunction*%
%TD*%
%TA.AperFunction,Conductor*%
%TO.N,Net-(U2D--)*%
G36*
X158626780Y-95436725D02*
G01*
X158628435Y-95438807D01*
X158868458Y-95823735D01*
X158869928Y-95832569D01*
X158865057Y-95839636D01*
X158629057Y-95998272D01*
X158620279Y-96000043D01*
X158620210Y-96000030D01*
X158341006Y-95943545D01*
X158333577Y-95938545D01*
X158331670Y-95931062D01*
X158374070Y-95443983D01*
X158378201Y-95436039D01*
X158385726Y-95433298D01*
X158618507Y-95433298D01*
X158626780Y-95436725D01*
G37*
%TD.AperFunction*%
%TD*%
%TA.AperFunction,Conductor*%
%TO.N,Net-(U2D--)*%
G36*
X149729488Y-78808659D02*
G01*
X149734067Y-78814644D01*
X150236695Y-80305360D01*
X150236091Y-80314294D01*
X150233881Y-80317371D01*
X150067371Y-80483881D01*
X150059098Y-80487308D01*
X150055360Y-80486695D01*
X148564644Y-79984067D01*
X148557899Y-79978176D01*
X148556905Y-79970709D01*
X148747771Y-79006973D01*
X148752740Y-78999525D01*
X148756972Y-78997772D01*
X149720709Y-78806905D01*
X149729488Y-78808659D01*
G37*
%TD.AperFunction*%
%TD*%
%TA.AperFunction,Conductor*%
%TO.N,Net-(U2C--)*%
G36*
X154124699Y-105409191D02*
G01*
X154127583Y-105413940D01*
X154290315Y-105929062D01*
X154289539Y-105937983D01*
X154282682Y-105943743D01*
X154281478Y-105944054D01*
X154002320Y-106000530D01*
X153997680Y-106000530D01*
X153764553Y-105953366D01*
X153718520Y-105944053D01*
X153711092Y-105939054D01*
X153709373Y-105930266D01*
X153709680Y-105929075D01*
X153872417Y-105413939D01*
X153878177Y-105407083D01*
X153883574Y-105405764D01*
X154116426Y-105405764D01*
X154124699Y-105409191D01*
G37*
%TD.AperFunction*%
%TD*%
%TA.AperFunction,Conductor*%
%TO.N,Net-(U2C--)*%
G36*
X156113020Y-100837772D02*
G01*
X156120470Y-100842740D01*
X156122227Y-100846979D01*
X156274114Y-101614730D01*
X156272357Y-101623511D01*
X156266570Y-101628020D01*
X155094858Y-102046399D01*
X155085915Y-102045953D01*
X155082651Y-102043653D01*
X154916346Y-101877348D01*
X154912919Y-101869075D01*
X154913600Y-101865141D01*
X154998268Y-101628020D01*
X155331979Y-100693428D01*
X155337989Y-100686790D01*
X155345266Y-100685885D01*
X156113020Y-100837772D01*
G37*
%TD.AperFunction*%
%TD*%
%TA.AperFunction,Conductor*%
%TO.N,Net-(U2D--)*%
G36*
X156245870Y-96718799D02*
G01*
X156248170Y-96722063D01*
X156780856Y-97846427D01*
X156781302Y-97855370D01*
X156776793Y-97861157D01*
X156126510Y-98296640D01*
X156117729Y-98298397D01*
X156113490Y-98296640D01*
X155463206Y-97861157D01*
X155458238Y-97853707D01*
X155459143Y-97846427D01*
X155991830Y-96722063D01*
X155998469Y-96716053D01*
X156002403Y-96715372D01*
X156237597Y-96715372D01*
X156245870Y-96718799D01*
G37*
%TD.AperFunction*%
%TD*%
%TA.AperFunction,Conductor*%
%TO.N,Net-(U2D--)*%
G36*
X156126507Y-95763357D02*
G01*
X156776793Y-96198842D01*
X156781761Y-96206292D01*
X156780856Y-96213572D01*
X156248170Y-97337937D01*
X156241531Y-97343947D01*
X156237597Y-97344628D01*
X156002403Y-97344628D01*
X155994130Y-97341201D01*
X155991830Y-97337937D01*
X155459143Y-96213572D01*
X155458697Y-96204629D01*
X155463204Y-96198843D01*
X156113491Y-95763358D01*
X156122271Y-95761602D01*
X156126507Y-95763357D01*
G37*
%TD.AperFunction*%
%TD*%
%TA.AperFunction,Conductor*%
%TO.N,Net-(U2C--)*%
G36*
X156245870Y-109418799D02*
G01*
X156248170Y-109422063D01*
X156780856Y-110546427D01*
X156781302Y-110555370D01*
X156776793Y-110561157D01*
X156126510Y-110996640D01*
X156117729Y-110998397D01*
X156113490Y-110996640D01*
X155463206Y-110561157D01*
X155458238Y-110553707D01*
X155459143Y-110546427D01*
X155991830Y-109422063D01*
X155998469Y-109416053D01*
X156002403Y-109415372D01*
X156237597Y-109415372D01*
X156245870Y-109418799D01*
G37*
%TD.AperFunction*%
%TD*%
%TA.AperFunction,Conductor*%
%TO.N,Net-(U2C--)*%
G36*
X156126507Y-108463357D02*
G01*
X156776793Y-108898842D01*
X156781761Y-108906292D01*
X156780856Y-108913572D01*
X156248170Y-110037937D01*
X156241531Y-110043947D01*
X156237597Y-110044628D01*
X156002403Y-110044628D01*
X155994130Y-110041201D01*
X155991830Y-110037937D01*
X155459143Y-108913572D01*
X155458697Y-108904629D01*
X155463204Y-108898843D01*
X156113491Y-108463358D01*
X156122271Y-108461602D01*
X156126507Y-108463357D01*
G37*
%TD.AperFunction*%
%TD*%
%TA.AperFunction,Conductor*%
%TO.N,Net-(U2C--)*%
G36*
X165493020Y-110497772D02*
G01*
X165500470Y-110502740D01*
X165502227Y-110506979D01*
X165654114Y-111274730D01*
X165652357Y-111283511D01*
X165646570Y-111288020D01*
X164474858Y-111706399D01*
X164465915Y-111705953D01*
X164462651Y-111703653D01*
X164296346Y-111537348D01*
X164292919Y-111529075D01*
X164293600Y-111525141D01*
X164378268Y-111288020D01*
X164711979Y-110353428D01*
X164717989Y-110346790D01*
X164725266Y-110345885D01*
X165493020Y-110497772D01*
G37*
%TD.AperFunction*%
%TD*%
%TA.AperFunction,Conductor*%
%TO.N,Net-(U2C--)*%
G36*
X156790593Y-110565994D02*
G01*
X156791218Y-110567046D01*
X157371916Y-111672444D01*
X157373258Y-111677885D01*
X157373258Y-111912076D01*
X157369831Y-111920349D01*
X157361558Y-111923776D01*
X157360398Y-111923718D01*
X155976742Y-111785904D01*
X155968850Y-111781674D01*
X155966260Y-111773102D01*
X155966421Y-111772013D01*
X156118058Y-111004765D01*
X156123021Y-110997316D01*
X156774370Y-110562753D01*
X156783151Y-110561013D01*
X156790593Y-110565994D01*
G37*
%TD.AperFunction*%
%TD*%
%TA.AperFunction,Conductor*%
%TO.N,Net-(U2B--)*%
G36*
X148506507Y-108463357D02*
G01*
X149156793Y-108898842D01*
X149161761Y-108906292D01*
X149160856Y-108913572D01*
X148628170Y-110037937D01*
X148621531Y-110043947D01*
X148617597Y-110044628D01*
X148382403Y-110044628D01*
X148374130Y-110041201D01*
X148371830Y-110037937D01*
X147839143Y-108913572D01*
X147838697Y-108904629D01*
X147843204Y-108898843D01*
X148493491Y-108463358D01*
X148502271Y-108461602D01*
X148506507Y-108463357D01*
G37*
%TD.AperFunction*%
%TD*%
%TA.AperFunction,Conductor*%
%TO.N,Net-(U2B--)*%
G36*
X148625870Y-109418799D02*
G01*
X148628170Y-109422063D01*
X149160856Y-110546427D01*
X149161302Y-110555370D01*
X149156793Y-110561157D01*
X148506510Y-110996640D01*
X148497729Y-110998397D01*
X148493490Y-110996640D01*
X147843206Y-110561157D01*
X147838238Y-110553707D01*
X147839143Y-110546427D01*
X148371830Y-109422063D01*
X148378469Y-109416053D01*
X148382403Y-109415372D01*
X148617597Y-109415372D01*
X148625870Y-109418799D01*
G37*
%TD.AperFunction*%
%TD*%
%TA.AperFunction,Conductor*%
%TO.N,Net-(U2A--)*%
G36*
X148625870Y-96718799D02*
G01*
X148628170Y-96722063D01*
X149160856Y-97846427D01*
X149161302Y-97855370D01*
X149156793Y-97861157D01*
X148506510Y-98296640D01*
X148497729Y-98298397D01*
X148493490Y-98296640D01*
X147843206Y-97861157D01*
X147838238Y-97853707D01*
X147839143Y-97846427D01*
X148371830Y-96722063D01*
X148378469Y-96716053D01*
X148382403Y-96715372D01*
X148617597Y-96715372D01*
X148625870Y-96718799D01*
G37*
%TD.AperFunction*%
%TD*%
%TA.AperFunction,Conductor*%
%TO.N,Net-(U2A--)*%
G36*
X148508266Y-95767277D02*
G01*
X149219897Y-96479887D01*
X149223318Y-96488162D01*
X149221252Y-96494793D01*
X148628488Y-97354939D01*
X148620972Y-97359807D01*
X148618854Y-97360000D01*
X148381146Y-97360000D01*
X148372873Y-97356573D01*
X148371512Y-97354939D01*
X147778747Y-96494793D01*
X147776874Y-96486036D01*
X147780100Y-96479890D01*
X148491721Y-95767289D01*
X148499992Y-95763857D01*
X148508266Y-95767277D01*
G37*
%TD.AperFunction*%
%TD*%
%TA.AperFunction,Conductor*%
%TO.N,Net-(U2A-+)*%
G36*
X165506507Y-94436690D02*
G01*
X166156793Y-94872175D01*
X166161761Y-94879625D01*
X166160856Y-94886905D01*
X165628170Y-96011270D01*
X165621531Y-96017280D01*
X165617597Y-96017961D01*
X165382403Y-96017961D01*
X165374130Y-96014534D01*
X165371830Y-96011270D01*
X164839143Y-94886905D01*
X164838697Y-94877962D01*
X164843204Y-94872176D01*
X165493491Y-94436691D01*
X165502271Y-94434935D01*
X165506507Y-94436690D01*
G37*
%TD.AperFunction*%
%TD*%
%TA.AperFunction,Conductor*%
%TO.N,Net-(U2A-+)*%
G36*
X148493020Y-100837772D02*
G01*
X148500470Y-100842740D01*
X148502227Y-100846979D01*
X148654114Y-101614730D01*
X148652357Y-101623511D01*
X148646570Y-101628020D01*
X147474858Y-102046399D01*
X147465915Y-102045953D01*
X147462651Y-102043653D01*
X147296346Y-101877348D01*
X147292919Y-101869075D01*
X147293600Y-101865141D01*
X147378268Y-101628020D01*
X147711979Y-100693428D01*
X147717989Y-100686790D01*
X147725266Y-100685885D01*
X148493020Y-100837772D01*
G37*
%TD.AperFunction*%
%TD*%
%TA.AperFunction,Conductor*%
%TO.N,Net-(U2A--)*%
G36*
X149534084Y-104714046D02*
G01*
X149537348Y-104716346D01*
X149703653Y-104882651D01*
X149707080Y-104890924D01*
X149706399Y-104894858D01*
X149288020Y-106066570D01*
X149282010Y-106073209D01*
X149274730Y-106074113D01*
X149109538Y-106041433D01*
X148506979Y-105922227D01*
X148499529Y-105917259D01*
X148497772Y-105913020D01*
X148345885Y-105145266D01*
X148347642Y-105136488D01*
X148353427Y-105131979D01*
X149525142Y-104713600D01*
X149534084Y-104714046D01*
G37*
%TD.AperFunction*%
%TD*%
%TA.AperFunction,Conductor*%
%TO.N,Net-(U2A--)*%
G36*
X149297811Y-95433239D02*
G01*
X149304136Y-95439578D01*
X149304265Y-95439904D01*
X149878175Y-96957005D01*
X149877897Y-96965956D01*
X149875505Y-96969418D01*
X149709418Y-97135505D01*
X149701145Y-97138932D01*
X149697005Y-97138175D01*
X148179904Y-96564265D01*
X148173379Y-96558133D01*
X148173101Y-96549182D01*
X148173205Y-96548918D01*
X148497438Y-95763783D01*
X148503759Y-95757448D01*
X149288858Y-95433230D01*
X149297811Y-95433239D01*
G37*
%TD.AperFunction*%
%TD*%
%TA.AperFunction,Conductor*%
%TO.N,+9V*%
G36*
X150214598Y-85562175D02*
G01*
X150215909Y-85562931D01*
X150868757Y-85997994D01*
X150872005Y-86001242D01*
X151307068Y-86654090D01*
X151308804Y-86662875D01*
X151303820Y-86670314D01*
X151302509Y-86671070D01*
X149969151Y-87328922D01*
X149960215Y-87329510D01*
X149955701Y-87326703D01*
X149543296Y-86914298D01*
X149539869Y-86906025D01*
X149541076Y-86900850D01*
X150198930Y-85567488D01*
X150205662Y-85561587D01*
X150214598Y-85562175D01*
G37*
%TD.AperFunction*%
%TD*%
%TA.AperFunction,Conductor*%
%TO.N,Net-(U2C-+)*%
G36*
X160506507Y-102470024D02*
G01*
X161156793Y-102905509D01*
X161161761Y-102912959D01*
X161160856Y-102920239D01*
X160628170Y-104044604D01*
X160621531Y-104050614D01*
X160617597Y-104051295D01*
X160382403Y-104051295D01*
X160374130Y-104047868D01*
X160371830Y-104044604D01*
X159839143Y-102920239D01*
X159838697Y-102911296D01*
X159843204Y-102905510D01*
X160493491Y-102470025D01*
X160502271Y-102468269D01*
X160506507Y-102470024D01*
G37*
%TD.AperFunction*%
%TD*%
%TA.AperFunction,Conductor*%
%TO.N,Net-(U2C-+)*%
G36*
X156573572Y-105259143D02*
G01*
X157697937Y-105791830D01*
X157703947Y-105798469D01*
X157704628Y-105802403D01*
X157704628Y-106037596D01*
X157701201Y-106045869D01*
X157697937Y-106048169D01*
X156573572Y-106580856D01*
X156564629Y-106581302D01*
X156558842Y-106576793D01*
X156202710Y-106045000D01*
X156123358Y-105926508D01*
X156121602Y-105917729D01*
X156123357Y-105913492D01*
X156558843Y-105263205D01*
X156566292Y-105258238D01*
X156573572Y-105259143D01*
G37*
%TD.AperFunction*%
%TD*%
%TA.AperFunction,Conductor*%
%TO.N,Net-(U3B--)*%
G36*
X184493020Y-108457772D02*
G01*
X184500470Y-108462740D01*
X184502227Y-108466979D01*
X184654114Y-109234730D01*
X184652357Y-109243511D01*
X184646570Y-109248020D01*
X183474858Y-109666399D01*
X183465915Y-109665953D01*
X183462651Y-109663653D01*
X183296346Y-109497348D01*
X183292919Y-109489075D01*
X183293600Y-109485141D01*
X183378268Y-109248020D01*
X183711979Y-108313428D01*
X183717989Y-108306790D01*
X183725266Y-108305885D01*
X184493020Y-108457772D01*
G37*
%TD.AperFunction*%
%TD*%
%TA.AperFunction,Conductor*%
%TO.N,Net-(U3B--)*%
G36*
X183337861Y-109457486D02*
G01*
X183502513Y-109622138D01*
X183505940Y-109630411D01*
X183504621Y-109635808D01*
X183255444Y-110115123D01*
X183248587Y-110120883D01*
X183239666Y-110120107D01*
X183238595Y-110119475D01*
X183001265Y-109962015D01*
X182997984Y-109958734D01*
X182840524Y-109721404D01*
X182838805Y-109712616D01*
X182843805Y-109705187D01*
X182844859Y-109704564D01*
X183324193Y-109455377D01*
X183333112Y-109454602D01*
X183337861Y-109457486D01*
G37*
%TD.AperFunction*%
%TD*%
%TA.AperFunction,Conductor*%
%TO.N,Net-(U3B--)*%
G36*
X183281479Y-110015946D02*
G01*
X183288907Y-110020945D01*
X183290626Y-110029733D01*
X183290315Y-110030937D01*
X183127583Y-110546060D01*
X183121823Y-110552917D01*
X183116426Y-110554236D01*
X182883574Y-110554236D01*
X182875301Y-110550809D01*
X182872417Y-110546060D01*
X182709684Y-110030937D01*
X182710460Y-110022016D01*
X182717317Y-110016256D01*
X182718500Y-110015950D01*
X182997682Y-109959469D01*
X183002318Y-109959469D01*
X183281479Y-110015946D01*
G37*
%TD.AperFunction*%
%TD*%
%TA.AperFunction,Conductor*%
%TO.N,Net-(U3B--)*%
G36*
X147070929Y-114209681D02*
G01*
X147586060Y-114372417D01*
X147592917Y-114378177D01*
X147594236Y-114383574D01*
X147594236Y-114616425D01*
X147590809Y-114624698D01*
X147586060Y-114627582D01*
X147070937Y-114790315D01*
X147062016Y-114789539D01*
X147056256Y-114782682D01*
X147055949Y-114781494D01*
X146999469Y-114502318D01*
X146999469Y-114497680D01*
X147022554Y-114383574D01*
X147055946Y-114218518D01*
X147060945Y-114211092D01*
X147069733Y-114209373D01*
X147070929Y-114209681D01*
G37*
%TD.AperFunction*%
%TD*%
%TA.AperFunction,Conductor*%
%TO.N,Net-(C7-Pad2)*%
G36*
X133913020Y-105997772D02*
G01*
X133920470Y-106002740D01*
X133922227Y-106006979D01*
X134074114Y-106774730D01*
X134072357Y-106783511D01*
X134066570Y-106788020D01*
X132894858Y-107206399D01*
X132885915Y-107205953D01*
X132882651Y-107203653D01*
X132716346Y-107037348D01*
X132712919Y-107029075D01*
X132713600Y-107025141D01*
X132798268Y-106788020D01*
X133131979Y-105853428D01*
X133137989Y-105846790D01*
X133145266Y-105845885D01*
X133913020Y-105997772D01*
G37*
%TD.AperFunction*%
%TD*%
%TA.AperFunction,Conductor*%
%TO.N,Net-(C9-Pad1)*%
G36*
X196506507Y-110503357D02*
G01*
X197156793Y-110938842D01*
X197161761Y-110946292D01*
X197160856Y-110953572D01*
X196628170Y-112077937D01*
X196621531Y-112083947D01*
X196617597Y-112084628D01*
X196382403Y-112084628D01*
X196374130Y-112081201D01*
X196371830Y-112077937D01*
X195839143Y-110953572D01*
X195838697Y-110944629D01*
X195843204Y-110938843D01*
X196493491Y-110503358D01*
X196502271Y-110501602D01*
X196506507Y-110503357D01*
G37*
%TD.AperFunction*%
%TD*%
%TA.AperFunction,Conductor*%
%TO.N,Net-(C9-Pad1)*%
G36*
X144863511Y-95847642D02*
G01*
X144868020Y-95853429D01*
X145286399Y-97025141D01*
X145285953Y-97034084D01*
X145283653Y-97037348D01*
X145117348Y-97203653D01*
X145109075Y-97207080D01*
X145105141Y-97206399D01*
X143933429Y-96788020D01*
X143926790Y-96782010D01*
X143925885Y-96774733D01*
X144077772Y-96006978D01*
X144082740Y-95999529D01*
X144086976Y-95997772D01*
X144854732Y-95845885D01*
X144863511Y-95847642D01*
G37*
%TD.AperFunction*%
%TD*%
%TA.AperFunction,Conductor*%
%TO.N,Net-(C9-Pad1)*%
G36*
X133956372Y-99384086D02*
G01*
X133958720Y-99385902D01*
X134123312Y-99550494D01*
X134125673Y-99553889D01*
X134581018Y-100546480D01*
X134581353Y-100555428D01*
X134576887Y-100561085D01*
X133925802Y-100996355D01*
X133917019Y-100998104D01*
X133912787Y-100996348D01*
X133263984Y-100561681D01*
X133259018Y-100554229D01*
X133260406Y-100546038D01*
X133940359Y-99388249D01*
X133947503Y-99382852D01*
X133956372Y-99384086D01*
G37*
%TD.AperFunction*%
%TD*%
%TA.AperFunction,Conductor*%
%TO.N,Net-(C9-Pad1)*%
G36*
X143641157Y-95343206D02*
G01*
X144076640Y-95993490D01*
X144078397Y-96002271D01*
X144076640Y-96006510D01*
X143641157Y-96656793D01*
X143633707Y-96661761D01*
X143626427Y-96660856D01*
X142502063Y-96128169D01*
X142496053Y-96121530D01*
X142495372Y-96117596D01*
X142495372Y-95882403D01*
X142498799Y-95874130D01*
X142502063Y-95871830D01*
X143626427Y-95339142D01*
X143635370Y-95338697D01*
X143641157Y-95343206D01*
G37*
%TD.AperFunction*%
%TD*%
%TA.AperFunction,Conductor*%
%TO.N,Net-(U2C-+)*%
G36*
X160340804Y-101686391D02*
G01*
X160346203Y-101693536D01*
X160346353Y-101694189D01*
X160499755Y-102462608D01*
X160498014Y-102471392D01*
X160498001Y-102471411D01*
X160063081Y-103120591D01*
X160055629Y-103125557D01*
X160046849Y-103123799D01*
X160045506Y-103122750D01*
X159834496Y-102931609D01*
X158997563Y-102173481D01*
X158993733Y-102165389D01*
X158996748Y-102156957D01*
X158997126Y-102156559D01*
X159162982Y-101990703D01*
X159168306Y-101987655D01*
X160331936Y-101685156D01*
X160340804Y-101686391D01*
G37*
%TD.AperFunction*%
%TD*%
%TA.AperFunction,Conductor*%
%TO.N,Net-(U2C-+)*%
G36*
X147070929Y-90709681D02*
G01*
X147586060Y-90872417D01*
X147592917Y-90878177D01*
X147594236Y-90883574D01*
X147594236Y-91116425D01*
X147590809Y-91124698D01*
X147586060Y-91127582D01*
X147070937Y-91290315D01*
X147062016Y-91289539D01*
X147056256Y-91282682D01*
X147055949Y-91281494D01*
X146999469Y-91002318D01*
X146999469Y-90997680D01*
X147022554Y-90883574D01*
X147055946Y-90718518D01*
X147060945Y-90711092D01*
X147069733Y-90709373D01*
X147070929Y-90709681D01*
G37*
%TD.AperFunction*%
%TD*%
%TA.AperFunction,Conductor*%
%TO.N,Net-(U2B--)*%
G36*
X148061391Y-107803570D02*
G01*
X148420890Y-108341315D01*
X148496355Y-108454197D01*
X148498104Y-108462980D01*
X148496348Y-108467212D01*
X148061282Y-109116611D01*
X148053830Y-109121577D01*
X148046325Y-109120562D01*
X148038431Y-109116611D01*
X146854563Y-108524092D01*
X146848700Y-108517325D01*
X146849338Y-108508393D01*
X146851525Y-108505360D01*
X147015573Y-108341312D01*
X147018401Y-108339230D01*
X148046228Y-107799713D01*
X148055145Y-107798904D01*
X148061391Y-107803570D01*
G37*
%TD.AperFunction*%
%TD*%
%TA.AperFunction,Conductor*%
%TO.N,Net-(U2B--)*%
G36*
X134954084Y-84794046D02*
G01*
X134957348Y-84796346D01*
X135123653Y-84962651D01*
X135127080Y-84970924D01*
X135126399Y-84974858D01*
X134708020Y-86146570D01*
X134702010Y-86153209D01*
X134694730Y-86154113D01*
X134529538Y-86121433D01*
X133926979Y-86002227D01*
X133919529Y-85997259D01*
X133917772Y-85993020D01*
X133765885Y-85225266D01*
X133767642Y-85216488D01*
X133773427Y-85211979D01*
X134945142Y-84793600D01*
X134954084Y-84794046D01*
G37*
%TD.AperFunction*%
%TD*%
%TA.AperFunction,Conductor*%
%TO.N,Net-(C6-Pad1)*%
G36*
X134045870Y-89418799D02*
G01*
X134048170Y-89422063D01*
X134580856Y-90546427D01*
X134581302Y-90555370D01*
X134576793Y-90561157D01*
X133926510Y-90996640D01*
X133917729Y-90998397D01*
X133913490Y-90996640D01*
X133263206Y-90561157D01*
X133258238Y-90553707D01*
X133259143Y-90546427D01*
X133791830Y-89422063D01*
X133798469Y-89416053D01*
X133802403Y-89415372D01*
X134037597Y-89415372D01*
X134045870Y-89418799D01*
G37*
%TD.AperFunction*%
%TD*%
%TA.AperFunction,Conductor*%
%TO.N,Net-(C6-Pad1)*%
G36*
X143641157Y-85343206D02*
G01*
X144076640Y-85993490D01*
X144078397Y-86002271D01*
X144076640Y-86006510D01*
X143641157Y-86656793D01*
X143633707Y-86661761D01*
X143626427Y-86660856D01*
X142502063Y-86128169D01*
X142496053Y-86121530D01*
X142495372Y-86117596D01*
X142495372Y-85882403D01*
X142498799Y-85874130D01*
X142502063Y-85871830D01*
X143626427Y-85339142D01*
X143635370Y-85338697D01*
X143641157Y-85343206D01*
G37*
%TD.AperFunction*%
%TD*%
%TA.AperFunction,Conductor*%
%TO.N,Net-(U2B--)*%
G36*
X133628183Y-84528121D02*
G01*
X133628457Y-84528405D01*
X134333807Y-85285673D01*
X134575813Y-85545492D01*
X134578945Y-85553881D01*
X134575226Y-85562027D01*
X134573762Y-85563187D01*
X133924039Y-85998294D01*
X133915258Y-86000050D01*
X133915248Y-86000048D01*
X133915232Y-86000045D01*
X133146640Y-85846183D01*
X133139201Y-85841199D01*
X133137425Y-85832622D01*
X133373255Y-84534303D01*
X133378106Y-84526775D01*
X133384767Y-84524694D01*
X133619910Y-84524694D01*
X133628183Y-84528121D01*
G37*
%TD.AperFunction*%
%TD*%
%TA.AperFunction,Conductor*%
%TO.N,Net-(U2B--)*%
G36*
X136243024Y-78997771D02*
G01*
X136250474Y-79002740D01*
X136252228Y-79006975D01*
X136443094Y-79970707D01*
X136441340Y-79979488D01*
X136435355Y-79984067D01*
X134944639Y-80486695D01*
X134935705Y-80486091D01*
X134932628Y-80483881D01*
X134766118Y-80317371D01*
X134762691Y-80309098D01*
X134763304Y-80305360D01*
X134876140Y-79970707D01*
X135265933Y-78814642D01*
X135271823Y-78807899D01*
X135279289Y-78806905D01*
X136243024Y-78997771D01*
G37*
%TD.AperFunction*%
%TD*%
%TA.AperFunction,Conductor*%
%TO.N,Net-(U1-+)*%
G36*
X127746157Y-104030452D02*
G01*
X128181640Y-104680736D01*
X128183397Y-104689517D01*
X128181640Y-104693756D01*
X127746157Y-105344039D01*
X127738707Y-105349007D01*
X127731427Y-105348102D01*
X126607063Y-104815415D01*
X126601053Y-104808776D01*
X126600372Y-104804842D01*
X126600372Y-104569649D01*
X126603799Y-104561376D01*
X126607063Y-104559076D01*
X127731427Y-104026388D01*
X127740370Y-104025943D01*
X127746157Y-104030452D01*
G37*
%TD.AperFunction*%
%TD*%
%TA.AperFunction,Conductor*%
%TO.N,Net-(U1--)*%
G36*
X122914084Y-92794046D02*
G01*
X122917348Y-92796346D01*
X123083653Y-92962651D01*
X123087080Y-92970924D01*
X123086399Y-92974858D01*
X122668020Y-94146570D01*
X122662010Y-94153209D01*
X122654730Y-94154113D01*
X122489538Y-94121433D01*
X121886979Y-94002227D01*
X121879529Y-93997259D01*
X121877772Y-93993020D01*
X121725885Y-93225266D01*
X121727642Y-93216488D01*
X121733427Y-93211979D01*
X122905142Y-92793600D01*
X122914084Y-92794046D01*
G37*
%TD.AperFunction*%
%TD*%
%TA.AperFunction,Conductor*%
%TO.N,Net-(U1--)*%
G36*
X128638572Y-110026389D02*
G01*
X129762937Y-110559076D01*
X129768947Y-110565715D01*
X129769628Y-110569649D01*
X129769628Y-110804842D01*
X129766201Y-110813115D01*
X129762937Y-110815415D01*
X128638572Y-111348102D01*
X128629629Y-111348548D01*
X128623842Y-111344039D01*
X128267710Y-110812246D01*
X128188358Y-110693754D01*
X128186602Y-110684975D01*
X128188357Y-110680738D01*
X128623843Y-110030451D01*
X128631292Y-110025484D01*
X128638572Y-110026389D01*
G37*
%TD.AperFunction*%
%TD*%
%TA.AperFunction,Conductor*%
%TO.N,Net-(J2-Pin_3)*%
G36*
X123191507Y-104690603D02*
G01*
X123841793Y-105126088D01*
X123846761Y-105133538D01*
X123845856Y-105140818D01*
X123313170Y-106265183D01*
X123306531Y-106271193D01*
X123302597Y-106271874D01*
X123067403Y-106271874D01*
X123059130Y-106268447D01*
X123056830Y-106265183D01*
X122524143Y-105140818D01*
X122523697Y-105131875D01*
X122528204Y-105126089D01*
X123178491Y-104690604D01*
X123187271Y-104688848D01*
X123191507Y-104690603D01*
G37*
%TD.AperFunction*%
%TD*%
%TA.AperFunction,Conductor*%
%TO.N,Net-(J2-Pin_3)*%
G36*
X116304216Y-109879559D02*
G01*
X116309220Y-109886986D01*
X116309454Y-109889313D01*
X116309454Y-110122655D01*
X116308550Y-110127164D01*
X115752223Y-111459128D01*
X115745872Y-111465442D01*
X115736918Y-111465415D01*
X115734933Y-111464351D01*
X115043041Y-111002696D01*
X115038061Y-110995255D01*
X114876430Y-110177750D01*
X114878187Y-110168972D01*
X114885580Y-110164017D01*
X116295427Y-109877847D01*
X116304216Y-109879559D01*
G37*
%TD.AperFunction*%
%TD*%
%TA.AperFunction,Conductor*%
%TO.N,Net-(J2-Pin_2)*%
G36*
X123178020Y-110685018D02*
G01*
X123185470Y-110689986D01*
X123187227Y-110694225D01*
X123339114Y-111461976D01*
X123337357Y-111470757D01*
X123331570Y-111475266D01*
X122159858Y-111893645D01*
X122150915Y-111893199D01*
X122147651Y-111890899D01*
X121981346Y-111724594D01*
X121977919Y-111716321D01*
X121978600Y-111712387D01*
X122063268Y-111475266D01*
X122396979Y-110540674D01*
X122402989Y-110534036D01*
X122410266Y-110533131D01*
X123178020Y-110685018D01*
G37*
%TD.AperFunction*%
%TD*%
%TA.AperFunction,Conductor*%
%TO.N,Net-(J2-Pin_2)*%
G36*
X113332001Y-110837997D02*
G01*
X113336710Y-110844379D01*
X113631738Y-111833667D01*
X113696064Y-112049363D01*
X113696552Y-112052707D01*
X113696552Y-112284617D01*
X113693125Y-112292890D01*
X113684852Y-112296317D01*
X113681056Y-112295684D01*
X112343836Y-111836981D01*
X112337122Y-111831055D01*
X112336154Y-111823645D01*
X112497481Y-111007681D01*
X112502448Y-111000229D01*
X112506677Y-110998474D01*
X113323220Y-110836248D01*
X113332001Y-110837997D01*
G37*
%TD.AperFunction*%
%TD*%
%TA.AperFunction,Conductor*%
%TO.N,Net-(R3-Pad1)*%
G36*
X106394858Y-94793600D02*
G01*
X107566570Y-95211979D01*
X107573209Y-95217989D01*
X107574114Y-95225269D01*
X107422227Y-95993020D01*
X107417259Y-96000470D01*
X107413020Y-96002227D01*
X106645269Y-96154114D01*
X106636488Y-96152357D01*
X106631979Y-96146570D01*
X106577151Y-95993020D01*
X106213600Y-94974857D01*
X106214046Y-94965915D01*
X106216343Y-94962654D01*
X106382652Y-94796345D01*
X106390924Y-94792919D01*
X106394858Y-94793600D01*
G37*
%TD.AperFunction*%
%TD*%
%TA.AperFunction,Conductor*%
%TO.N,Net-(R3-Pad1)*%
G36*
X121160110Y-90740101D02*
G01*
X121493451Y-91072983D01*
X121872709Y-91451721D01*
X121876142Y-91459992D01*
X121872721Y-91468267D01*
X121872709Y-91468279D01*
X121160112Y-92179897D01*
X121151837Y-92183318D01*
X121145206Y-92181252D01*
X120285061Y-91588487D01*
X120280193Y-91580971D01*
X120280000Y-91578853D01*
X120280000Y-91341146D01*
X120283427Y-91332873D01*
X120285061Y-91331512D01*
X121145207Y-90738746D01*
X121153963Y-90736874D01*
X121160110Y-90740101D01*
G37*
%TD.AperFunction*%
%TD*%
%TA.AperFunction,Conductor*%
%TO.N,Net-(R3-Pad2)*%
G36*
X129061545Y-90803782D02*
G01*
X129496348Y-91452787D01*
X129498106Y-91461567D01*
X129496355Y-91465802D01*
X129061189Y-92116730D01*
X129053742Y-92121703D01*
X129046388Y-92120769D01*
X128042055Y-91637375D01*
X128038856Y-91635106D01*
X127874435Y-91470685D01*
X127871008Y-91462412D01*
X127874435Y-91454139D01*
X127877005Y-91452196D01*
X129046128Y-90800075D01*
X129055020Y-90799039D01*
X129061545Y-90803782D01*
G37*
%TD.AperFunction*%
%TD*%
%TA.AperFunction,Conductor*%
%TO.N,Net-(R3-Pad2)*%
G36*
X118363511Y-95847642D02*
G01*
X118368020Y-95853429D01*
X118786399Y-97025141D01*
X118785953Y-97034084D01*
X118783653Y-97037348D01*
X118617348Y-97203653D01*
X118609075Y-97207080D01*
X118605141Y-97206399D01*
X117433429Y-96788020D01*
X117426790Y-96782010D01*
X117425885Y-96774733D01*
X117577772Y-96006978D01*
X117582740Y-95999529D01*
X117586976Y-95997772D01*
X118354732Y-95845885D01*
X118363511Y-95847642D01*
G37*
%TD.AperFunction*%
%TD*%
%TA.AperFunction,Conductor*%
%TO.N,Net-(U1-+)*%
G36*
X121719731Y-95760809D02*
G01*
X121726054Y-95767150D01*
X121726712Y-95769321D01*
X121879755Y-96535941D01*
X121878014Y-96544725D01*
X121878001Y-96544744D01*
X121441957Y-97195603D01*
X121434506Y-97200569D01*
X121425874Y-97198909D01*
X121250833Y-97085469D01*
X120290768Y-96463274D01*
X120285690Y-96455901D01*
X120287314Y-96447095D01*
X120288854Y-96445190D01*
X120453761Y-96280283D01*
X120457565Y-96277745D01*
X121710778Y-95760796D01*
X121719731Y-95760809D01*
G37*
%TD.AperFunction*%
%TD*%
%TA.AperFunction,Conductor*%
%TO.N,Net-(U1-+)*%
G36*
X117573020Y-85997772D02*
G01*
X117580470Y-86002740D01*
X117582227Y-86006979D01*
X117734114Y-86774730D01*
X117732357Y-86783511D01*
X117726570Y-86788020D01*
X116554858Y-87206399D01*
X116545915Y-87205953D01*
X116542651Y-87203653D01*
X116376346Y-87037348D01*
X116372919Y-87029075D01*
X116373600Y-87025141D01*
X116458268Y-86788020D01*
X116791979Y-85853428D01*
X116797989Y-85846790D01*
X116805266Y-85845885D01*
X117573020Y-85997772D01*
G37*
%TD.AperFunction*%
%TD*%
%TA.AperFunction,Conductor*%
%TO.N,Net-(U1--)*%
G36*
X121441157Y-93343206D02*
G01*
X121876640Y-93993490D01*
X121878397Y-94002271D01*
X121876640Y-94006510D01*
X121441157Y-94656793D01*
X121433707Y-94661761D01*
X121426427Y-94660856D01*
X120302063Y-94128169D01*
X120296053Y-94121530D01*
X120295372Y-94117596D01*
X120295372Y-93882403D01*
X120298799Y-93874130D01*
X120302063Y-93871830D01*
X121426427Y-93339142D01*
X121435370Y-93338697D01*
X121441157Y-93343206D01*
G37*
%TD.AperFunction*%
%TD*%
%TA.AperFunction,Conductor*%
%TO.N,Net-(U1--)*%
G36*
X117585800Y-91003643D02*
G01*
X117585812Y-91003651D01*
X118236283Y-91438511D01*
X118241256Y-91445958D01*
X118240049Y-91453845D01*
X117672465Y-92493409D01*
X117670469Y-92496075D01*
X117506635Y-92659909D01*
X117498362Y-92663336D01*
X117490089Y-92659909D01*
X117487784Y-92656636D01*
X116919130Y-91453566D01*
X116918693Y-91444622D01*
X116923194Y-91438848D01*
X117572788Y-91003650D01*
X117581567Y-91001893D01*
X117585800Y-91003643D01*
G37*
%TD.AperFunction*%
%TD*%
M02*
