M48
; DRILL file {KiCad 9.0.3} date 2026-05-18T21:28:48-0300
; FORMAT={-:-/ absolute / metric / decimal}
; #@! TF.CreationDate,2026-05-18T21:28:48-03:00
; #@! TF.GenerationSoftware,Kicad,Pcbnew,9.0.3
; #@! TF.FileFunction,Plated,1,2,PTH
FMAT,2
METRIC
; #@! TA.AperFunction,Plated,PTH,ViaDrill
T1C0.300
; #@! TA.AperFunction,Plated,PTH,ComponentDrill
T2C0.800
; #@! TA.AperFunction,Plated,PTH,ComponentDrill
T3C1.000
; #@! TA.AperFunction,Plated,PTH,ComponentDrill
T4C1.520
%
G90
G05
T1
X131.5Y-115.5
X132.5Y-91.5
X144.0Y-115.0
X145.0Y-94.0
X147.0Y-91.0
X147.0Y-93.5
X147.0Y-114.5
X148.5Y-89.0
X154.0Y-106.0
X158.625Y-96.0
X177.0Y-101.5
X182.0Y-82.0
X182.375Y-112.5
X182.58Y-86.08
X183.0Y-109.96
X186.577Y-113.577
X188.3Y-111.0
X192.0Y-91.5
X198.0Y-102.0
X200.5Y-114.5
T2
X107.42Y-86.0
X107.42Y-91.0
X107.42Y-96.0
X107.42Y-101.0
X107.42Y-106.0
X117.58Y-86.0
X117.58Y-91.0
X117.58Y-96.0
X117.58Y-101.0
X117.58Y-106.0
X121.88Y-91.46
X121.88Y-94.0
X121.88Y-96.54
X121.88Y-99.08
X121.935Y-86.0
X123.185Y-104.687
X123.185Y-110.687
X124.435Y-86.0
X126.935Y-86.0
X128.185Y-104.687
X128.185Y-110.687
X129.435Y-86.0
X129.5Y-91.46
X129.5Y-94.0
X129.5Y-96.54
X129.5Y-99.08
X133.92Y-86.0
X133.92Y-91.0
X133.92Y-96.0
X133.92Y-101.0
X133.92Y-106.0
X133.92Y-111.0
X144.08Y-86.0
X144.08Y-91.0
X144.08Y-96.0
X144.08Y-101.0
X144.08Y-106.0
X144.08Y-111.0
X148.37Y-86.0
X148.5Y-95.76
X148.5Y-98.3
X148.5Y-100.84
X148.5Y-103.38
X148.5Y-105.92
X148.5Y-108.46
X148.5Y-111.0
X150.87Y-86.0
X154.12Y-86.0
X156.12Y-95.76
X156.12Y-98.3
X156.12Y-100.84
X156.12Y-103.38
X156.12Y-105.92
X156.12Y-108.46
X156.12Y-111.0
X156.62Y-86.0
X160.5Y-86.4
X160.5Y-94.433
X160.5Y-102.467
X160.5Y-110.5
X165.5Y-86.4
X165.5Y-94.433
X165.5Y-102.467
X165.5Y-110.5
X169.92Y-86.0
X169.92Y-91.0
X169.92Y-101.0
X169.92Y-106.0
X169.92Y-111.0
X170.0Y-96.0
X174.0Y-78.5
X176.5Y-78.5
X180.08Y-86.0
X180.08Y-91.0
X180.08Y-101.0
X180.08Y-106.0
X180.08Y-111.0
X180.16Y-96.0
X183.96Y-78.495
X184.435Y-86.08
X184.5Y-95.76
X184.5Y-98.3
X184.5Y-100.84
X184.5Y-103.38
X184.5Y-105.92
X184.5Y-108.46
X184.5Y-111.0
X186.5Y-78.495
X186.935Y-86.08
X189.04Y-78.495
X189.935Y-86.08
X192.12Y-95.76
X192.12Y-98.3
X192.12Y-100.84
X192.12Y-103.38
X192.12Y-105.92
X192.12Y-108.46
X192.12Y-111.0
X192.435Y-86.08
X195.19Y-86.0
X195.19Y-91.188
X196.5Y-97.125
X196.5Y-103.812
X196.5Y-110.5
X201.5Y-97.125
X201.5Y-103.812
X201.5Y-110.5
X202.81Y-86.0
X202.81Y-91.188
T3
X109.96Y-111.0
X112.5Y-111.0
X115.04Y-111.0
X130.0Y-79.0
X136.25Y-79.0
X142.5Y-79.0
X148.75Y-79.0
X155.0Y-79.0
X161.25Y-79.0
X167.5Y-79.0
X196.75Y-78.475
X199.29Y-78.475
T4
X112.42Y-78.5
X117.5Y-78.5
X122.58Y-78.5
M30
