%TF.GenerationSoftware,KiCad,Pcbnew,9.0.3*%
%TF.CreationDate,2026-05-18T21:25:21-03:00*%
%TF.ProjectId,PCB TG William v3,50434220-5447-4205-9769-6c6c69616d20,rev?*%
%TF.SameCoordinates,Original*%
%TF.FileFunction,Legend,Top*%
%TF.FilePolarity,Positive*%
%FSLAX46Y46*%
G04 Gerber Fmt 4.6, Leading zero omitted, Abs format (unit mm)*
G04 Created by KiCad (PCBNEW 9.0.3) date 2026-05-18 21:25:21*
%MOMM*%
%LPD*%
G01*
G04 APERTURE LIST*
%ADD10C,0.100000*%
%ADD11C,0.150000*%
%ADD12C,0.120000*%
G04 APERTURE END LIST*
D10*
X163756265Y-81824800D02*
X163899122Y-81872419D01*
X163899122Y-81872419D02*
X164137217Y-81872419D01*
X164137217Y-81872419D02*
X164232455Y-81824800D01*
X164232455Y-81824800D02*
X164280074Y-81777180D01*
X164280074Y-81777180D02*
X164327693Y-81681942D01*
X164327693Y-81681942D02*
X164327693Y-81586704D01*
X164327693Y-81586704D02*
X164280074Y-81491466D01*
X164280074Y-81491466D02*
X164232455Y-81443847D01*
X164232455Y-81443847D02*
X164137217Y-81396228D01*
X164137217Y-81396228D02*
X163946741Y-81348609D01*
X163946741Y-81348609D02*
X163851503Y-81300990D01*
X163851503Y-81300990D02*
X163803884Y-81253371D01*
X163803884Y-81253371D02*
X163756265Y-81158133D01*
X163756265Y-81158133D02*
X163756265Y-81062895D01*
X163756265Y-81062895D02*
X163803884Y-80967657D01*
X163803884Y-80967657D02*
X163851503Y-80920038D01*
X163851503Y-80920038D02*
X163946741Y-80872419D01*
X163946741Y-80872419D02*
X164184836Y-80872419D01*
X164184836Y-80872419D02*
X164327693Y-80920038D01*
X164756265Y-81872419D02*
X164756265Y-80872419D01*
X164756265Y-80872419D02*
X165089598Y-81586704D01*
X165089598Y-81586704D02*
X165422931Y-80872419D01*
X165422931Y-80872419D02*
X165422931Y-81872419D01*
X166089598Y-80872419D02*
X166280074Y-80872419D01*
X166280074Y-80872419D02*
X166375312Y-80920038D01*
X166375312Y-80920038D02*
X166470550Y-81015276D01*
X166470550Y-81015276D02*
X166518169Y-81205752D01*
X166518169Y-81205752D02*
X166518169Y-81539085D01*
X166518169Y-81539085D02*
X166470550Y-81729561D01*
X166470550Y-81729561D02*
X166375312Y-81824800D01*
X166375312Y-81824800D02*
X166280074Y-81872419D01*
X166280074Y-81872419D02*
X166089598Y-81872419D01*
X166089598Y-81872419D02*
X165994360Y-81824800D01*
X165994360Y-81824800D02*
X165899122Y-81729561D01*
X165899122Y-81729561D02*
X165851503Y-81539085D01*
X165851503Y-81539085D02*
X165851503Y-81205752D01*
X165851503Y-81205752D02*
X165899122Y-81015276D01*
X165899122Y-81015276D02*
X165994360Y-80920038D01*
X165994360Y-80920038D02*
X166089598Y-80872419D01*
X167137217Y-80872419D02*
X167327693Y-80872419D01*
X167327693Y-80872419D02*
X167422931Y-80920038D01*
X167422931Y-80920038D02*
X167518169Y-81015276D01*
X167518169Y-81015276D02*
X167565788Y-81205752D01*
X167565788Y-81205752D02*
X167565788Y-81539085D01*
X167565788Y-81539085D02*
X167518169Y-81729561D01*
X167518169Y-81729561D02*
X167422931Y-81824800D01*
X167422931Y-81824800D02*
X167327693Y-81872419D01*
X167327693Y-81872419D02*
X167137217Y-81872419D01*
X167137217Y-81872419D02*
X167041979Y-81824800D01*
X167041979Y-81824800D02*
X166946741Y-81729561D01*
X166946741Y-81729561D02*
X166899122Y-81539085D01*
X166899122Y-81539085D02*
X166899122Y-81205752D01*
X166899122Y-81205752D02*
X166946741Y-81015276D01*
X166946741Y-81015276D02*
X167041979Y-80920038D01*
X167041979Y-80920038D02*
X167137217Y-80872419D01*
X167851503Y-80872419D02*
X168422931Y-80872419D01*
X168137217Y-81872419D02*
X168137217Y-80872419D01*
X168756265Y-81872419D02*
X168756265Y-80872419D01*
X168756265Y-81348609D02*
X169327693Y-81348609D01*
X169327693Y-81872419D02*
X169327693Y-80872419D01*
X169803884Y-81348609D02*
X170137217Y-81348609D01*
X170280074Y-81872419D02*
X169803884Y-81872419D01*
X169803884Y-81872419D02*
X169803884Y-80872419D01*
X169803884Y-80872419D02*
X170280074Y-80872419D01*
X170708646Y-81872419D02*
X170708646Y-80872419D01*
X170708646Y-80872419D02*
X170946741Y-80872419D01*
X170946741Y-80872419D02*
X171089598Y-80920038D01*
X171089598Y-80920038D02*
X171184836Y-81015276D01*
X171184836Y-81015276D02*
X171232455Y-81110514D01*
X171232455Y-81110514D02*
X171280074Y-81300990D01*
X171280074Y-81300990D02*
X171280074Y-81443847D01*
X171280074Y-81443847D02*
X171232455Y-81634323D01*
X171232455Y-81634323D02*
X171184836Y-81729561D01*
X171184836Y-81729561D02*
X171089598Y-81824800D01*
X171089598Y-81824800D02*
X170946741Y-81872419D01*
X170946741Y-81872419D02*
X170708646Y-81872419D01*
X153732455Y-80872419D02*
X153541979Y-80872419D01*
X153541979Y-80872419D02*
X153446741Y-80920038D01*
X153446741Y-80920038D02*
X153399122Y-80967657D01*
X153399122Y-80967657D02*
X153303884Y-81110514D01*
X153303884Y-81110514D02*
X153256265Y-81300990D01*
X153256265Y-81300990D02*
X153256265Y-81681942D01*
X153256265Y-81681942D02*
X153303884Y-81777180D01*
X153303884Y-81777180D02*
X153351503Y-81824800D01*
X153351503Y-81824800D02*
X153446741Y-81872419D01*
X153446741Y-81872419D02*
X153637217Y-81872419D01*
X153637217Y-81872419D02*
X153732455Y-81824800D01*
X153732455Y-81824800D02*
X153780074Y-81777180D01*
X153780074Y-81777180D02*
X153827693Y-81681942D01*
X153827693Y-81681942D02*
X153827693Y-81443847D01*
X153827693Y-81443847D02*
X153780074Y-81348609D01*
X153780074Y-81348609D02*
X153732455Y-81300990D01*
X153732455Y-81300990D02*
X153637217Y-81253371D01*
X153637217Y-81253371D02*
X153446741Y-81253371D01*
X153446741Y-81253371D02*
X153351503Y-81300990D01*
X153351503Y-81300990D02*
X153303884Y-81348609D01*
X153303884Y-81348609D02*
X153256265Y-81443847D01*
X154446741Y-80872419D02*
X154541979Y-80872419D01*
X154541979Y-80872419D02*
X154637217Y-80920038D01*
X154637217Y-80920038D02*
X154684836Y-80967657D01*
X154684836Y-80967657D02*
X154732455Y-81062895D01*
X154732455Y-81062895D02*
X154780074Y-81253371D01*
X154780074Y-81253371D02*
X154780074Y-81491466D01*
X154780074Y-81491466D02*
X154732455Y-81681942D01*
X154732455Y-81681942D02*
X154684836Y-81777180D01*
X154684836Y-81777180D02*
X154637217Y-81824800D01*
X154637217Y-81824800D02*
X154541979Y-81872419D01*
X154541979Y-81872419D02*
X154446741Y-81872419D01*
X154446741Y-81872419D02*
X154351503Y-81824800D01*
X154351503Y-81824800D02*
X154303884Y-81777180D01*
X154303884Y-81777180D02*
X154256265Y-81681942D01*
X154256265Y-81681942D02*
X154208646Y-81491466D01*
X154208646Y-81491466D02*
X154208646Y-81253371D01*
X154208646Y-81253371D02*
X154256265Y-81062895D01*
X154256265Y-81062895D02*
X154303884Y-80967657D01*
X154303884Y-80967657D02*
X154351503Y-80920038D01*
X154351503Y-80920038D02*
X154446741Y-80872419D01*
X155208646Y-81872419D02*
X155208646Y-80872419D01*
X155208646Y-81348609D02*
X155780074Y-81348609D01*
X155780074Y-81872419D02*
X155780074Y-80872419D01*
X156161027Y-81205752D02*
X156684836Y-81205752D01*
X156684836Y-81205752D02*
X156161027Y-81872419D01*
X156161027Y-81872419D02*
X156684836Y-81872419D01*
X147232455Y-81205752D02*
X147232455Y-81872419D01*
X146994360Y-80824800D02*
X146756265Y-81539085D01*
X146756265Y-81539085D02*
X147375312Y-81539085D01*
X147899122Y-81300990D02*
X147803884Y-81253371D01*
X147803884Y-81253371D02*
X147756265Y-81205752D01*
X147756265Y-81205752D02*
X147708646Y-81110514D01*
X147708646Y-81110514D02*
X147708646Y-81062895D01*
X147708646Y-81062895D02*
X147756265Y-80967657D01*
X147756265Y-80967657D02*
X147803884Y-80920038D01*
X147803884Y-80920038D02*
X147899122Y-80872419D01*
X147899122Y-80872419D02*
X148089598Y-80872419D01*
X148089598Y-80872419D02*
X148184836Y-80920038D01*
X148184836Y-80920038D02*
X148232455Y-80967657D01*
X148232455Y-80967657D02*
X148280074Y-81062895D01*
X148280074Y-81062895D02*
X148280074Y-81110514D01*
X148280074Y-81110514D02*
X148232455Y-81205752D01*
X148232455Y-81205752D02*
X148184836Y-81253371D01*
X148184836Y-81253371D02*
X148089598Y-81300990D01*
X148089598Y-81300990D02*
X147899122Y-81300990D01*
X147899122Y-81300990D02*
X147803884Y-81348609D01*
X147803884Y-81348609D02*
X147756265Y-81396228D01*
X147756265Y-81396228D02*
X147708646Y-81491466D01*
X147708646Y-81491466D02*
X147708646Y-81681942D01*
X147708646Y-81681942D02*
X147756265Y-81777180D01*
X147756265Y-81777180D02*
X147803884Y-81824800D01*
X147803884Y-81824800D02*
X147899122Y-81872419D01*
X147899122Y-81872419D02*
X148089598Y-81872419D01*
X148089598Y-81872419D02*
X148184836Y-81824800D01*
X148184836Y-81824800D02*
X148232455Y-81777180D01*
X148232455Y-81777180D02*
X148280074Y-81681942D01*
X148280074Y-81681942D02*
X148280074Y-81491466D01*
X148280074Y-81491466D02*
X148232455Y-81396228D01*
X148232455Y-81396228D02*
X148184836Y-81348609D01*
X148184836Y-81348609D02*
X148089598Y-81300990D01*
X148899122Y-80872419D02*
X148994360Y-80872419D01*
X148994360Y-80872419D02*
X149089598Y-80920038D01*
X149089598Y-80920038D02*
X149137217Y-80967657D01*
X149137217Y-80967657D02*
X149184836Y-81062895D01*
X149184836Y-81062895D02*
X149232455Y-81253371D01*
X149232455Y-81253371D02*
X149232455Y-81491466D01*
X149232455Y-81491466D02*
X149184836Y-81681942D01*
X149184836Y-81681942D02*
X149137217Y-81777180D01*
X149137217Y-81777180D02*
X149089598Y-81824800D01*
X149089598Y-81824800D02*
X148994360Y-81872419D01*
X148994360Y-81872419D02*
X148899122Y-81872419D01*
X148899122Y-81872419D02*
X148803884Y-81824800D01*
X148803884Y-81824800D02*
X148756265Y-81777180D01*
X148756265Y-81777180D02*
X148708646Y-81681942D01*
X148708646Y-81681942D02*
X148661027Y-81491466D01*
X148661027Y-81491466D02*
X148661027Y-81253371D01*
X148661027Y-81253371D02*
X148708646Y-81062895D01*
X148708646Y-81062895D02*
X148756265Y-80967657D01*
X148756265Y-80967657D02*
X148803884Y-80920038D01*
X148803884Y-80920038D02*
X148899122Y-80872419D01*
X149661027Y-81872419D02*
X149661027Y-80872419D01*
X149661027Y-81348609D02*
X150232455Y-81348609D01*
X150232455Y-81872419D02*
X150232455Y-80872419D01*
X150613408Y-81205752D02*
X151137217Y-81205752D01*
X151137217Y-81205752D02*
X150613408Y-81872419D01*
X150613408Y-81872419D02*
X151137217Y-81872419D01*
X135327693Y-81872419D02*
X134756265Y-81872419D01*
X135041979Y-81872419D02*
X135041979Y-80872419D01*
X135041979Y-80872419D02*
X134946741Y-81015276D01*
X134946741Y-81015276D02*
X134851503Y-81110514D01*
X134851503Y-81110514D02*
X134756265Y-81158133D01*
X136184836Y-80872419D02*
X135994360Y-80872419D01*
X135994360Y-80872419D02*
X135899122Y-80920038D01*
X135899122Y-80920038D02*
X135851503Y-80967657D01*
X135851503Y-80967657D02*
X135756265Y-81110514D01*
X135756265Y-81110514D02*
X135708646Y-81300990D01*
X135708646Y-81300990D02*
X135708646Y-81681942D01*
X135708646Y-81681942D02*
X135756265Y-81777180D01*
X135756265Y-81777180D02*
X135803884Y-81824800D01*
X135803884Y-81824800D02*
X135899122Y-81872419D01*
X135899122Y-81872419D02*
X136089598Y-81872419D01*
X136089598Y-81872419D02*
X136184836Y-81824800D01*
X136184836Y-81824800D02*
X136232455Y-81777180D01*
X136232455Y-81777180D02*
X136280074Y-81681942D01*
X136280074Y-81681942D02*
X136280074Y-81443847D01*
X136280074Y-81443847D02*
X136232455Y-81348609D01*
X136232455Y-81348609D02*
X136184836Y-81300990D01*
X136184836Y-81300990D02*
X136089598Y-81253371D01*
X136089598Y-81253371D02*
X135899122Y-81253371D01*
X135899122Y-81253371D02*
X135803884Y-81300990D01*
X135803884Y-81300990D02*
X135756265Y-81348609D01*
X135756265Y-81348609D02*
X135708646Y-81443847D01*
X136708646Y-81872419D02*
X136708646Y-80872419D01*
X136708646Y-81348609D02*
X137280074Y-81348609D01*
X137280074Y-81872419D02*
X137280074Y-80872419D01*
X137661027Y-81205752D02*
X138184836Y-81205752D01*
X138184836Y-81205752D02*
X137661027Y-81872419D01*
X137661027Y-81872419D02*
X138184836Y-81872419D01*
X128946741Y-81300990D02*
X128851503Y-81253371D01*
X128851503Y-81253371D02*
X128803884Y-81205752D01*
X128803884Y-81205752D02*
X128756265Y-81110514D01*
X128756265Y-81110514D02*
X128756265Y-81062895D01*
X128756265Y-81062895D02*
X128803884Y-80967657D01*
X128803884Y-80967657D02*
X128851503Y-80920038D01*
X128851503Y-80920038D02*
X128946741Y-80872419D01*
X128946741Y-80872419D02*
X129137217Y-80872419D01*
X129137217Y-80872419D02*
X129232455Y-80920038D01*
X129232455Y-80920038D02*
X129280074Y-80967657D01*
X129280074Y-80967657D02*
X129327693Y-81062895D01*
X129327693Y-81062895D02*
X129327693Y-81110514D01*
X129327693Y-81110514D02*
X129280074Y-81205752D01*
X129280074Y-81205752D02*
X129232455Y-81253371D01*
X129232455Y-81253371D02*
X129137217Y-81300990D01*
X129137217Y-81300990D02*
X128946741Y-81300990D01*
X128946741Y-81300990D02*
X128851503Y-81348609D01*
X128851503Y-81348609D02*
X128803884Y-81396228D01*
X128803884Y-81396228D02*
X128756265Y-81491466D01*
X128756265Y-81491466D02*
X128756265Y-81681942D01*
X128756265Y-81681942D02*
X128803884Y-81777180D01*
X128803884Y-81777180D02*
X128851503Y-81824800D01*
X128851503Y-81824800D02*
X128946741Y-81872419D01*
X128946741Y-81872419D02*
X129137217Y-81872419D01*
X129137217Y-81872419D02*
X129232455Y-81824800D01*
X129232455Y-81824800D02*
X129280074Y-81777180D01*
X129280074Y-81777180D02*
X129327693Y-81681942D01*
X129327693Y-81681942D02*
X129327693Y-81491466D01*
X129327693Y-81491466D02*
X129280074Y-81396228D01*
X129280074Y-81396228D02*
X129232455Y-81348609D01*
X129232455Y-81348609D02*
X129137217Y-81300990D01*
X129803884Y-81872419D02*
X129994360Y-81872419D01*
X129994360Y-81872419D02*
X130089598Y-81824800D01*
X130089598Y-81824800D02*
X130137217Y-81777180D01*
X130137217Y-81777180D02*
X130232455Y-81634323D01*
X130232455Y-81634323D02*
X130280074Y-81443847D01*
X130280074Y-81443847D02*
X130280074Y-81062895D01*
X130280074Y-81062895D02*
X130232455Y-80967657D01*
X130232455Y-80967657D02*
X130184836Y-80920038D01*
X130184836Y-80920038D02*
X130089598Y-80872419D01*
X130089598Y-80872419D02*
X129899122Y-80872419D01*
X129899122Y-80872419D02*
X129803884Y-80920038D01*
X129803884Y-80920038D02*
X129756265Y-80967657D01*
X129756265Y-80967657D02*
X129708646Y-81062895D01*
X129708646Y-81062895D02*
X129708646Y-81300990D01*
X129708646Y-81300990D02*
X129756265Y-81396228D01*
X129756265Y-81396228D02*
X129803884Y-81443847D01*
X129803884Y-81443847D02*
X129899122Y-81491466D01*
X129899122Y-81491466D02*
X130089598Y-81491466D01*
X130089598Y-81491466D02*
X130184836Y-81443847D01*
X130184836Y-81443847D02*
X130232455Y-81396228D01*
X130232455Y-81396228D02*
X130280074Y-81300990D01*
X130613408Y-81872419D02*
X131137217Y-81205752D01*
X130613408Y-81205752D02*
X131137217Y-81872419D01*
D11*
X155036779Y-74869819D02*
X155036779Y-73869819D01*
X155036779Y-73869819D02*
X155417731Y-73869819D01*
X155417731Y-73869819D02*
X155512969Y-73917438D01*
X155512969Y-73917438D02*
X155560588Y-73965057D01*
X155560588Y-73965057D02*
X155608207Y-74060295D01*
X155608207Y-74060295D02*
X155608207Y-74203152D01*
X155608207Y-74203152D02*
X155560588Y-74298390D01*
X155560588Y-74298390D02*
X155512969Y-74346009D01*
X155512969Y-74346009D02*
X155417731Y-74393628D01*
X155417731Y-74393628D02*
X155036779Y-74393628D01*
X156036779Y-74869819D02*
X156036779Y-74203152D01*
X156036779Y-74393628D02*
X156084398Y-74298390D01*
X156084398Y-74298390D02*
X156132017Y-74250771D01*
X156132017Y-74250771D02*
X156227255Y-74203152D01*
X156227255Y-74203152D02*
X156322493Y-74203152D01*
X156798684Y-74869819D02*
X156703446Y-74822200D01*
X156703446Y-74822200D02*
X156655827Y-74774580D01*
X156655827Y-74774580D02*
X156608208Y-74679342D01*
X156608208Y-74679342D02*
X156608208Y-74393628D01*
X156608208Y-74393628D02*
X156655827Y-74298390D01*
X156655827Y-74298390D02*
X156703446Y-74250771D01*
X156703446Y-74250771D02*
X156798684Y-74203152D01*
X156798684Y-74203152D02*
X156941541Y-74203152D01*
X156941541Y-74203152D02*
X157036779Y-74250771D01*
X157036779Y-74250771D02*
X157084398Y-74298390D01*
X157084398Y-74298390D02*
X157132017Y-74393628D01*
X157132017Y-74393628D02*
X157132017Y-74679342D01*
X157132017Y-74679342D02*
X157084398Y-74774580D01*
X157084398Y-74774580D02*
X157036779Y-74822200D01*
X157036779Y-74822200D02*
X156941541Y-74869819D01*
X156941541Y-74869819D02*
X156798684Y-74869819D01*
X157560589Y-74203152D02*
X157560589Y-75060295D01*
X157560589Y-75060295D02*
X157512970Y-75155533D01*
X157512970Y-75155533D02*
X157417732Y-75203152D01*
X157417732Y-75203152D02*
X157370113Y-75203152D01*
X157560589Y-73869819D02*
X157512970Y-73917438D01*
X157512970Y-73917438D02*
X157560589Y-73965057D01*
X157560589Y-73965057D02*
X157608208Y-73917438D01*
X157608208Y-73917438D02*
X157560589Y-73869819D01*
X157560589Y-73869819D02*
X157560589Y-73965057D01*
X158417731Y-74822200D02*
X158322493Y-74869819D01*
X158322493Y-74869819D02*
X158132017Y-74869819D01*
X158132017Y-74869819D02*
X158036779Y-74822200D01*
X158036779Y-74822200D02*
X157989160Y-74726961D01*
X157989160Y-74726961D02*
X157989160Y-74346009D01*
X157989160Y-74346009D02*
X158036779Y-74250771D01*
X158036779Y-74250771D02*
X158132017Y-74203152D01*
X158132017Y-74203152D02*
X158322493Y-74203152D01*
X158322493Y-74203152D02*
X158417731Y-74250771D01*
X158417731Y-74250771D02*
X158465350Y-74346009D01*
X158465350Y-74346009D02*
X158465350Y-74441247D01*
X158465350Y-74441247D02*
X157989160Y-74536485D01*
X158751065Y-74203152D02*
X159132017Y-74203152D01*
X158893922Y-73869819D02*
X158893922Y-74726961D01*
X158893922Y-74726961D02*
X158941541Y-74822200D01*
X158941541Y-74822200D02*
X159036779Y-74869819D01*
X159036779Y-74869819D02*
X159132017Y-74869819D01*
X159608208Y-74869819D02*
X159512970Y-74822200D01*
X159512970Y-74822200D02*
X159465351Y-74774580D01*
X159465351Y-74774580D02*
X159417732Y-74679342D01*
X159417732Y-74679342D02*
X159417732Y-74393628D01*
X159417732Y-74393628D02*
X159465351Y-74298390D01*
X159465351Y-74298390D02*
X159512970Y-74250771D01*
X159512970Y-74250771D02*
X159608208Y-74203152D01*
X159608208Y-74203152D02*
X159751065Y-74203152D01*
X159751065Y-74203152D02*
X159846303Y-74250771D01*
X159846303Y-74250771D02*
X159893922Y-74298390D01*
X159893922Y-74298390D02*
X159941541Y-74393628D01*
X159941541Y-74393628D02*
X159941541Y-74679342D01*
X159941541Y-74679342D02*
X159893922Y-74774580D01*
X159893922Y-74774580D02*
X159846303Y-74822200D01*
X159846303Y-74822200D02*
X159751065Y-74869819D01*
X159751065Y-74869819D02*
X159608208Y-74869819D01*
X161132018Y-74346009D02*
X161465351Y-74346009D01*
X161608208Y-74869819D02*
X161132018Y-74869819D01*
X161132018Y-74869819D02*
X161132018Y-73869819D01*
X161132018Y-73869819D02*
X161608208Y-73869819D01*
X162036780Y-74869819D02*
X162036780Y-73869819D01*
X162036780Y-73869819D02*
X162370113Y-74584104D01*
X162370113Y-74584104D02*
X162703446Y-73869819D01*
X162703446Y-73869819D02*
X162703446Y-74869819D01*
X163703446Y-73917438D02*
X163608208Y-73869819D01*
X163608208Y-73869819D02*
X163465351Y-73869819D01*
X163465351Y-73869819D02*
X163322494Y-73917438D01*
X163322494Y-73917438D02*
X163227256Y-74012676D01*
X163227256Y-74012676D02*
X163179637Y-74107914D01*
X163179637Y-74107914D02*
X163132018Y-74298390D01*
X163132018Y-74298390D02*
X163132018Y-74441247D01*
X163132018Y-74441247D02*
X163179637Y-74631723D01*
X163179637Y-74631723D02*
X163227256Y-74726961D01*
X163227256Y-74726961D02*
X163322494Y-74822200D01*
X163322494Y-74822200D02*
X163465351Y-74869819D01*
X163465351Y-74869819D02*
X163560589Y-74869819D01*
X163560589Y-74869819D02*
X163703446Y-74822200D01*
X163703446Y-74822200D02*
X163751065Y-74774580D01*
X163751065Y-74774580D02*
X163751065Y-74441247D01*
X163751065Y-74441247D02*
X163560589Y-74441247D01*
X164846304Y-74203152D02*
X165084399Y-74869819D01*
X165084399Y-74869819D02*
X165322494Y-74203152D01*
X165608209Y-73869819D02*
X166227256Y-73869819D01*
X166227256Y-73869819D02*
X165893923Y-74250771D01*
X165893923Y-74250771D02*
X166036780Y-74250771D01*
X166036780Y-74250771D02*
X166132018Y-74298390D01*
X166132018Y-74298390D02*
X166179637Y-74346009D01*
X166179637Y-74346009D02*
X166227256Y-74441247D01*
X166227256Y-74441247D02*
X166227256Y-74679342D01*
X166227256Y-74679342D02*
X166179637Y-74774580D01*
X166179637Y-74774580D02*
X166132018Y-74822200D01*
X166132018Y-74822200D02*
X166036780Y-74869819D01*
X166036780Y-74869819D02*
X165751066Y-74869819D01*
X165751066Y-74869819D02*
X165655828Y-74822200D01*
X165655828Y-74822200D02*
X165608209Y-74774580D01*
X110794286Y-74073866D02*
X111556191Y-74073866D01*
X111175238Y-74454819D02*
X111175238Y-73692914D01*
X112080000Y-74454819D02*
X112270476Y-74454819D01*
X112270476Y-74454819D02*
X112365714Y-74407200D01*
X112365714Y-74407200D02*
X112413333Y-74359580D01*
X112413333Y-74359580D02*
X112508571Y-74216723D01*
X112508571Y-74216723D02*
X112556190Y-74026247D01*
X112556190Y-74026247D02*
X112556190Y-73645295D01*
X112556190Y-73645295D02*
X112508571Y-73550057D01*
X112508571Y-73550057D02*
X112460952Y-73502438D01*
X112460952Y-73502438D02*
X112365714Y-73454819D01*
X112365714Y-73454819D02*
X112175238Y-73454819D01*
X112175238Y-73454819D02*
X112080000Y-73502438D01*
X112080000Y-73502438D02*
X112032381Y-73550057D01*
X112032381Y-73550057D02*
X111984762Y-73645295D01*
X111984762Y-73645295D02*
X111984762Y-73883390D01*
X111984762Y-73883390D02*
X112032381Y-73978628D01*
X112032381Y-73978628D02*
X112080000Y-74026247D01*
X112080000Y-74026247D02*
X112175238Y-74073866D01*
X112175238Y-74073866D02*
X112365714Y-74073866D01*
X112365714Y-74073866D02*
X112460952Y-74026247D01*
X112460952Y-74026247D02*
X112508571Y-73978628D01*
X112508571Y-73978628D02*
X112556190Y-73883390D01*
X112841905Y-73454819D02*
X113175238Y-74454819D01*
X113175238Y-74454819D02*
X113508571Y-73454819D01*
X121294286Y-74073866D02*
X122056191Y-74073866D01*
X122580000Y-74454819D02*
X122770476Y-74454819D01*
X122770476Y-74454819D02*
X122865714Y-74407200D01*
X122865714Y-74407200D02*
X122913333Y-74359580D01*
X122913333Y-74359580D02*
X123008571Y-74216723D01*
X123008571Y-74216723D02*
X123056190Y-74026247D01*
X123056190Y-74026247D02*
X123056190Y-73645295D01*
X123056190Y-73645295D02*
X123008571Y-73550057D01*
X123008571Y-73550057D02*
X122960952Y-73502438D01*
X122960952Y-73502438D02*
X122865714Y-73454819D01*
X122865714Y-73454819D02*
X122675238Y-73454819D01*
X122675238Y-73454819D02*
X122580000Y-73502438D01*
X122580000Y-73502438D02*
X122532381Y-73550057D01*
X122532381Y-73550057D02*
X122484762Y-73645295D01*
X122484762Y-73645295D02*
X122484762Y-73883390D01*
X122484762Y-73883390D02*
X122532381Y-73978628D01*
X122532381Y-73978628D02*
X122580000Y-74026247D01*
X122580000Y-74026247D02*
X122675238Y-74073866D01*
X122675238Y-74073866D02*
X122865714Y-74073866D01*
X122865714Y-74073866D02*
X122960952Y-74026247D01*
X122960952Y-74026247D02*
X123008571Y-73978628D01*
X123008571Y-73978628D02*
X123056190Y-73883390D01*
X123341905Y-73454819D02*
X123675238Y-74454819D01*
X123675238Y-74454819D02*
X124008571Y-73454819D01*
X130241541Y-73869819D02*
X130479636Y-74869819D01*
X130479636Y-74869819D02*
X130670112Y-74155533D01*
X130670112Y-74155533D02*
X130860588Y-74869819D01*
X130860588Y-74869819D02*
X131098684Y-73869819D01*
X131479636Y-74869819D02*
X131479636Y-74203152D01*
X131479636Y-73869819D02*
X131432017Y-73917438D01*
X131432017Y-73917438D02*
X131479636Y-73965057D01*
X131479636Y-73965057D02*
X131527255Y-73917438D01*
X131527255Y-73917438D02*
X131479636Y-73869819D01*
X131479636Y-73869819D02*
X131479636Y-73965057D01*
X132098683Y-74869819D02*
X132003445Y-74822200D01*
X132003445Y-74822200D02*
X131955826Y-74726961D01*
X131955826Y-74726961D02*
X131955826Y-73869819D01*
X132622493Y-74869819D02*
X132527255Y-74822200D01*
X132527255Y-74822200D02*
X132479636Y-74726961D01*
X132479636Y-74726961D02*
X132479636Y-73869819D01*
X133003446Y-74869819D02*
X133003446Y-74203152D01*
X133003446Y-73869819D02*
X132955827Y-73917438D01*
X132955827Y-73917438D02*
X133003446Y-73965057D01*
X133003446Y-73965057D02*
X133051065Y-73917438D01*
X133051065Y-73917438D02*
X133003446Y-73869819D01*
X133003446Y-73869819D02*
X133003446Y-73965057D01*
X133908207Y-74869819D02*
X133908207Y-74346009D01*
X133908207Y-74346009D02*
X133860588Y-74250771D01*
X133860588Y-74250771D02*
X133765350Y-74203152D01*
X133765350Y-74203152D02*
X133574874Y-74203152D01*
X133574874Y-74203152D02*
X133479636Y-74250771D01*
X133908207Y-74822200D02*
X133812969Y-74869819D01*
X133812969Y-74869819D02*
X133574874Y-74869819D01*
X133574874Y-74869819D02*
X133479636Y-74822200D01*
X133479636Y-74822200D02*
X133432017Y-74726961D01*
X133432017Y-74726961D02*
X133432017Y-74631723D01*
X133432017Y-74631723D02*
X133479636Y-74536485D01*
X133479636Y-74536485D02*
X133574874Y-74488866D01*
X133574874Y-74488866D02*
X133812969Y-74488866D01*
X133812969Y-74488866D02*
X133908207Y-74441247D01*
X134384398Y-74869819D02*
X134384398Y-74203152D01*
X134384398Y-74298390D02*
X134432017Y-74250771D01*
X134432017Y-74250771D02*
X134527255Y-74203152D01*
X134527255Y-74203152D02*
X134670112Y-74203152D01*
X134670112Y-74203152D02*
X134765350Y-74250771D01*
X134765350Y-74250771D02*
X134812969Y-74346009D01*
X134812969Y-74346009D02*
X134812969Y-74869819D01*
X134812969Y-74346009D02*
X134860588Y-74250771D01*
X134860588Y-74250771D02*
X134955826Y-74203152D01*
X134955826Y-74203152D02*
X135098683Y-74203152D01*
X135098683Y-74203152D02*
X135193922Y-74250771D01*
X135193922Y-74250771D02*
X135241541Y-74346009D01*
X135241541Y-74346009D02*
X135241541Y-74869819D01*
X136479636Y-74869819D02*
X136479636Y-73869819D01*
X136479636Y-73869819D02*
X136717731Y-73869819D01*
X136717731Y-73869819D02*
X136860588Y-73917438D01*
X136860588Y-73917438D02*
X136955826Y-74012676D01*
X136955826Y-74012676D02*
X137003445Y-74107914D01*
X137003445Y-74107914D02*
X137051064Y-74298390D01*
X137051064Y-74298390D02*
X137051064Y-74441247D01*
X137051064Y-74441247D02*
X137003445Y-74631723D01*
X137003445Y-74631723D02*
X136955826Y-74726961D01*
X136955826Y-74726961D02*
X136860588Y-74822200D01*
X136860588Y-74822200D02*
X136717731Y-74869819D01*
X136717731Y-74869819D02*
X136479636Y-74869819D01*
X137479636Y-74869819D02*
X137479636Y-74203152D01*
X137479636Y-73869819D02*
X137432017Y-73917438D01*
X137432017Y-73917438D02*
X137479636Y-73965057D01*
X137479636Y-73965057D02*
X137527255Y-73917438D01*
X137527255Y-73917438D02*
X137479636Y-73869819D01*
X137479636Y-73869819D02*
X137479636Y-73965057D01*
X138384397Y-74869819D02*
X138384397Y-74346009D01*
X138384397Y-74346009D02*
X138336778Y-74250771D01*
X138336778Y-74250771D02*
X138241540Y-74203152D01*
X138241540Y-74203152D02*
X138051064Y-74203152D01*
X138051064Y-74203152D02*
X137955826Y-74250771D01*
X138384397Y-74822200D02*
X138289159Y-74869819D01*
X138289159Y-74869819D02*
X138051064Y-74869819D01*
X138051064Y-74869819D02*
X137955826Y-74822200D01*
X137955826Y-74822200D02*
X137908207Y-74726961D01*
X137908207Y-74726961D02*
X137908207Y-74631723D01*
X137908207Y-74631723D02*
X137955826Y-74536485D01*
X137955826Y-74536485D02*
X138051064Y-74488866D01*
X138051064Y-74488866D02*
X138289159Y-74488866D01*
X138289159Y-74488866D02*
X138384397Y-74441247D01*
X138812969Y-74822200D02*
X138908207Y-74869819D01*
X138908207Y-74869819D02*
X139098683Y-74869819D01*
X139098683Y-74869819D02*
X139193921Y-74822200D01*
X139193921Y-74822200D02*
X139241540Y-74726961D01*
X139241540Y-74726961D02*
X139241540Y-74679342D01*
X139241540Y-74679342D02*
X139193921Y-74584104D01*
X139193921Y-74584104D02*
X139098683Y-74536485D01*
X139098683Y-74536485D02*
X138955826Y-74536485D01*
X138955826Y-74536485D02*
X138860588Y-74488866D01*
X138860588Y-74488866D02*
X138812969Y-74393628D01*
X138812969Y-74393628D02*
X138812969Y-74346009D01*
X138812969Y-74346009D02*
X138860588Y-74250771D01*
X138860588Y-74250771D02*
X138955826Y-74203152D01*
X138955826Y-74203152D02*
X139098683Y-74203152D01*
X139098683Y-74203152D02*
X139193921Y-74250771D01*
X141003445Y-74869819D02*
X140670112Y-74393628D01*
X140432017Y-74869819D02*
X140432017Y-73869819D01*
X140432017Y-73869819D02*
X140812969Y-73869819D01*
X140812969Y-73869819D02*
X140908207Y-73917438D01*
X140908207Y-73917438D02*
X140955826Y-73965057D01*
X140955826Y-73965057D02*
X141003445Y-74060295D01*
X141003445Y-74060295D02*
X141003445Y-74203152D01*
X141003445Y-74203152D02*
X140955826Y-74298390D01*
X140955826Y-74298390D02*
X140908207Y-74346009D01*
X140908207Y-74346009D02*
X140812969Y-74393628D01*
X140812969Y-74393628D02*
X140432017Y-74393628D01*
X141384398Y-74584104D02*
X141860588Y-74584104D01*
X141289160Y-74869819D02*
X141622493Y-73869819D01*
X141622493Y-73869819D02*
X141955826Y-74869819D01*
X142289160Y-74774580D02*
X142336779Y-74822200D01*
X142336779Y-74822200D02*
X142289160Y-74869819D01*
X142289160Y-74869819D02*
X142241541Y-74822200D01*
X142241541Y-74822200D02*
X142289160Y-74774580D01*
X142289160Y-74774580D02*
X142289160Y-74869819D01*
X142289160Y-74250771D02*
X142336779Y-74298390D01*
X142336779Y-74298390D02*
X142289160Y-74346009D01*
X142289160Y-74346009D02*
X142241541Y-74298390D01*
X142241541Y-74298390D02*
X142289160Y-74250771D01*
X142289160Y-74250771D02*
X142289160Y-74346009D01*
X144051064Y-74869819D02*
X143479636Y-74869819D01*
X143765350Y-74869819D02*
X143765350Y-73869819D01*
X143765350Y-73869819D02*
X143670112Y-74012676D01*
X143670112Y-74012676D02*
X143574874Y-74107914D01*
X143574874Y-74107914D02*
X143479636Y-74155533D01*
X145003445Y-74869819D02*
X144432017Y-74869819D01*
X144717731Y-74869819D02*
X144717731Y-73869819D01*
X144717731Y-73869819D02*
X144622493Y-74012676D01*
X144622493Y-74012676D02*
X144527255Y-74107914D01*
X144527255Y-74107914D02*
X144432017Y-74155533D01*
X145384398Y-73965057D02*
X145432017Y-73917438D01*
X145432017Y-73917438D02*
X145527255Y-73869819D01*
X145527255Y-73869819D02*
X145765350Y-73869819D01*
X145765350Y-73869819D02*
X145860588Y-73917438D01*
X145860588Y-73917438D02*
X145908207Y-73965057D01*
X145908207Y-73965057D02*
X145955826Y-74060295D01*
X145955826Y-74060295D02*
X145955826Y-74155533D01*
X145955826Y-74155533D02*
X145908207Y-74298390D01*
X145908207Y-74298390D02*
X145336779Y-74869819D01*
X145336779Y-74869819D02*
X145955826Y-74869819D01*
X146574874Y-73869819D02*
X146670112Y-73869819D01*
X146670112Y-73869819D02*
X146765350Y-73917438D01*
X146765350Y-73917438D02*
X146812969Y-73965057D01*
X146812969Y-73965057D02*
X146860588Y-74060295D01*
X146860588Y-74060295D02*
X146908207Y-74250771D01*
X146908207Y-74250771D02*
X146908207Y-74488866D01*
X146908207Y-74488866D02*
X146860588Y-74679342D01*
X146860588Y-74679342D02*
X146812969Y-74774580D01*
X146812969Y-74774580D02*
X146765350Y-74822200D01*
X146765350Y-74822200D02*
X146670112Y-74869819D01*
X146670112Y-74869819D02*
X146574874Y-74869819D01*
X146574874Y-74869819D02*
X146479636Y-74822200D01*
X146479636Y-74822200D02*
X146432017Y-74774580D01*
X146432017Y-74774580D02*
X146384398Y-74679342D01*
X146384398Y-74679342D02*
X146336779Y-74488866D01*
X146336779Y-74488866D02*
X146336779Y-74250771D01*
X146336779Y-74250771D02*
X146384398Y-74060295D01*
X146384398Y-74060295D02*
X146432017Y-73965057D01*
X146432017Y-73965057D02*
X146479636Y-73917438D01*
X146479636Y-73917438D02*
X146574874Y-73869819D01*
X147860588Y-74869819D02*
X147289160Y-74869819D01*
X147574874Y-74869819D02*
X147574874Y-73869819D01*
X147574874Y-73869819D02*
X147479636Y-74012676D01*
X147479636Y-74012676D02*
X147384398Y-74107914D01*
X147384398Y-74107914D02*
X147289160Y-74155533D01*
X148432017Y-74298390D02*
X148336779Y-74250771D01*
X148336779Y-74250771D02*
X148289160Y-74203152D01*
X148289160Y-74203152D02*
X148241541Y-74107914D01*
X148241541Y-74107914D02*
X148241541Y-74060295D01*
X148241541Y-74060295D02*
X148289160Y-73965057D01*
X148289160Y-73965057D02*
X148336779Y-73917438D01*
X148336779Y-73917438D02*
X148432017Y-73869819D01*
X148432017Y-73869819D02*
X148622493Y-73869819D01*
X148622493Y-73869819D02*
X148717731Y-73917438D01*
X148717731Y-73917438D02*
X148765350Y-73965057D01*
X148765350Y-73965057D02*
X148812969Y-74060295D01*
X148812969Y-74060295D02*
X148812969Y-74107914D01*
X148812969Y-74107914D02*
X148765350Y-74203152D01*
X148765350Y-74203152D02*
X148717731Y-74250771D01*
X148717731Y-74250771D02*
X148622493Y-74298390D01*
X148622493Y-74298390D02*
X148432017Y-74298390D01*
X148432017Y-74298390D02*
X148336779Y-74346009D01*
X148336779Y-74346009D02*
X148289160Y-74393628D01*
X148289160Y-74393628D02*
X148241541Y-74488866D01*
X148241541Y-74488866D02*
X148241541Y-74679342D01*
X148241541Y-74679342D02*
X148289160Y-74774580D01*
X148289160Y-74774580D02*
X148336779Y-74822200D01*
X148336779Y-74822200D02*
X148432017Y-74869819D01*
X148432017Y-74869819D02*
X148622493Y-74869819D01*
X148622493Y-74869819D02*
X148717731Y-74822200D01*
X148717731Y-74822200D02*
X148765350Y-74774580D01*
X148765350Y-74774580D02*
X148812969Y-74679342D01*
X148812969Y-74679342D02*
X148812969Y-74488866D01*
X148812969Y-74488866D02*
X148765350Y-74393628D01*
X148765350Y-74393628D02*
X148717731Y-74346009D01*
X148717731Y-74346009D02*
X148622493Y-74298390D01*
X149765350Y-74869819D02*
X149193922Y-74869819D01*
X149479636Y-74869819D02*
X149479636Y-73869819D01*
X149479636Y-73869819D02*
X149384398Y-74012676D01*
X149384398Y-74012676D02*
X149289160Y-74107914D01*
X149289160Y-74107914D02*
X149193922Y-74155533D01*
X150384398Y-73869819D02*
X150479636Y-73869819D01*
X150479636Y-73869819D02*
X150574874Y-73917438D01*
X150574874Y-73917438D02*
X150622493Y-73965057D01*
X150622493Y-73965057D02*
X150670112Y-74060295D01*
X150670112Y-74060295D02*
X150717731Y-74250771D01*
X150717731Y-74250771D02*
X150717731Y-74488866D01*
X150717731Y-74488866D02*
X150670112Y-74679342D01*
X150670112Y-74679342D02*
X150622493Y-74774580D01*
X150622493Y-74774580D02*
X150574874Y-74822200D01*
X150574874Y-74822200D02*
X150479636Y-74869819D01*
X150479636Y-74869819D02*
X150384398Y-74869819D01*
X150384398Y-74869819D02*
X150289160Y-74822200D01*
X150289160Y-74822200D02*
X150241541Y-74774580D01*
X150241541Y-74774580D02*
X150193922Y-74679342D01*
X150193922Y-74679342D02*
X150146303Y-74488866D01*
X150146303Y-74488866D02*
X150146303Y-74250771D01*
X150146303Y-74250771D02*
X150193922Y-74060295D01*
X150193922Y-74060295D02*
X150241541Y-73965057D01*
X150241541Y-73965057D02*
X150289160Y-73917438D01*
X150289160Y-73917438D02*
X150384398Y-73869819D01*
X151574874Y-74203152D02*
X151574874Y-74869819D01*
X151336779Y-73822200D02*
X151098684Y-74536485D01*
X151098684Y-74536485D02*
X151717731Y-74536485D01*
X152622493Y-74869819D02*
X152051065Y-74869819D01*
X152336779Y-74869819D02*
X152336779Y-73869819D01*
X152336779Y-73869819D02*
X152241541Y-74012676D01*
X152241541Y-74012676D02*
X152146303Y-74107914D01*
X152146303Y-74107914D02*
X152051065Y-74155533D01*
X152955827Y-73869819D02*
X153574874Y-73869819D01*
X153574874Y-73869819D02*
X153241541Y-74250771D01*
X153241541Y-74250771D02*
X153384398Y-74250771D01*
X153384398Y-74250771D02*
X153479636Y-74298390D01*
X153479636Y-74298390D02*
X153527255Y-74346009D01*
X153527255Y-74346009D02*
X153574874Y-74441247D01*
X153574874Y-74441247D02*
X153574874Y-74679342D01*
X153574874Y-74679342D02*
X153527255Y-74774580D01*
X153527255Y-74774580D02*
X153479636Y-74822200D01*
X153479636Y-74822200D02*
X153384398Y-74869819D01*
X153384398Y-74869819D02*
X153098684Y-74869819D01*
X153098684Y-74869819D02*
X153003446Y-74822200D01*
X153003446Y-74822200D02*
X152955827Y-74774580D01*
X129047619Y-77456819D02*
X129047619Y-76456819D01*
X129523809Y-77456819D02*
X129523809Y-76456819D01*
X129523809Y-76456819D02*
X130095237Y-77456819D01*
X130095237Y-77456819D02*
X130095237Y-76456819D01*
X130523809Y-77171104D02*
X130999999Y-77171104D01*
X130428571Y-77456819D02*
X130761904Y-76456819D01*
X130761904Y-76456819D02*
X131095237Y-77456819D01*
X112333333Y-89084819D02*
X112000000Y-88608628D01*
X111761905Y-89084819D02*
X111761905Y-88084819D01*
X111761905Y-88084819D02*
X112142857Y-88084819D01*
X112142857Y-88084819D02*
X112238095Y-88132438D01*
X112238095Y-88132438D02*
X112285714Y-88180057D01*
X112285714Y-88180057D02*
X112333333Y-88275295D01*
X112333333Y-88275295D02*
X112333333Y-88418152D01*
X112333333Y-88418152D02*
X112285714Y-88513390D01*
X112285714Y-88513390D02*
X112238095Y-88561009D01*
X112238095Y-88561009D02*
X112142857Y-88608628D01*
X112142857Y-88608628D02*
X111761905Y-88608628D01*
X112714286Y-88180057D02*
X112761905Y-88132438D01*
X112761905Y-88132438D02*
X112857143Y-88084819D01*
X112857143Y-88084819D02*
X113095238Y-88084819D01*
X113095238Y-88084819D02*
X113190476Y-88132438D01*
X113190476Y-88132438D02*
X113238095Y-88180057D01*
X113238095Y-88180057D02*
X113285714Y-88275295D01*
X113285714Y-88275295D02*
X113285714Y-88370533D01*
X113285714Y-88370533D02*
X113238095Y-88513390D01*
X113238095Y-88513390D02*
X112666667Y-89084819D01*
X112666667Y-89084819D02*
X113285714Y-89084819D01*
X112333333Y-104084819D02*
X112000000Y-103608628D01*
X111761905Y-104084819D02*
X111761905Y-103084819D01*
X111761905Y-103084819D02*
X112142857Y-103084819D01*
X112142857Y-103084819D02*
X112238095Y-103132438D01*
X112238095Y-103132438D02*
X112285714Y-103180057D01*
X112285714Y-103180057D02*
X112333333Y-103275295D01*
X112333333Y-103275295D02*
X112333333Y-103418152D01*
X112333333Y-103418152D02*
X112285714Y-103513390D01*
X112285714Y-103513390D02*
X112238095Y-103561009D01*
X112238095Y-103561009D02*
X112142857Y-103608628D01*
X112142857Y-103608628D02*
X111761905Y-103608628D01*
X113238095Y-103084819D02*
X112761905Y-103084819D01*
X112761905Y-103084819D02*
X112714286Y-103561009D01*
X112714286Y-103561009D02*
X112761905Y-103513390D01*
X112761905Y-103513390D02*
X112857143Y-103465771D01*
X112857143Y-103465771D02*
X113095238Y-103465771D01*
X113095238Y-103465771D02*
X113190476Y-103513390D01*
X113190476Y-103513390D02*
X113238095Y-103561009D01*
X113238095Y-103561009D02*
X113285714Y-103656247D01*
X113285714Y-103656247D02*
X113285714Y-103894342D01*
X113285714Y-103894342D02*
X113238095Y-103989580D01*
X113238095Y-103989580D02*
X113190476Y-104037200D01*
X113190476Y-104037200D02*
X113095238Y-104084819D01*
X113095238Y-104084819D02*
X112857143Y-104084819D01*
X112857143Y-104084819D02*
X112761905Y-104037200D01*
X112761905Y-104037200D02*
X112714286Y-103989580D01*
X112166666Y-107954819D02*
X112166666Y-108669104D01*
X112166666Y-108669104D02*
X112119047Y-108811961D01*
X112119047Y-108811961D02*
X112023809Y-108907200D01*
X112023809Y-108907200D02*
X111880952Y-108954819D01*
X111880952Y-108954819D02*
X111785714Y-108954819D01*
X112595238Y-108050057D02*
X112642857Y-108002438D01*
X112642857Y-108002438D02*
X112738095Y-107954819D01*
X112738095Y-107954819D02*
X112976190Y-107954819D01*
X112976190Y-107954819D02*
X113071428Y-108002438D01*
X113071428Y-108002438D02*
X113119047Y-108050057D01*
X113119047Y-108050057D02*
X113166666Y-108145295D01*
X113166666Y-108145295D02*
X113166666Y-108240533D01*
X113166666Y-108240533D02*
X113119047Y-108383390D01*
X113119047Y-108383390D02*
X112547619Y-108954819D01*
X112547619Y-108954819D02*
X113166666Y-108954819D01*
X112333333Y-99084819D02*
X112000000Y-98608628D01*
X111761905Y-99084819D02*
X111761905Y-98084819D01*
X111761905Y-98084819D02*
X112142857Y-98084819D01*
X112142857Y-98084819D02*
X112238095Y-98132438D01*
X112238095Y-98132438D02*
X112285714Y-98180057D01*
X112285714Y-98180057D02*
X112333333Y-98275295D01*
X112333333Y-98275295D02*
X112333333Y-98418152D01*
X112333333Y-98418152D02*
X112285714Y-98513390D01*
X112285714Y-98513390D02*
X112238095Y-98561009D01*
X112238095Y-98561009D02*
X112142857Y-98608628D01*
X112142857Y-98608628D02*
X111761905Y-98608628D01*
X113190476Y-98418152D02*
X113190476Y-99084819D01*
X112952381Y-98037200D02*
X112714286Y-98751485D01*
X112714286Y-98751485D02*
X113333333Y-98751485D01*
X112333333Y-94084819D02*
X112000000Y-93608628D01*
X111761905Y-94084819D02*
X111761905Y-93084819D01*
X111761905Y-93084819D02*
X112142857Y-93084819D01*
X112142857Y-93084819D02*
X112238095Y-93132438D01*
X112238095Y-93132438D02*
X112285714Y-93180057D01*
X112285714Y-93180057D02*
X112333333Y-93275295D01*
X112333333Y-93275295D02*
X112333333Y-93418152D01*
X112333333Y-93418152D02*
X112285714Y-93513390D01*
X112285714Y-93513390D02*
X112238095Y-93561009D01*
X112238095Y-93561009D02*
X112142857Y-93608628D01*
X112142857Y-93608628D02*
X111761905Y-93608628D01*
X112666667Y-93084819D02*
X113285714Y-93084819D01*
X113285714Y-93084819D02*
X112952381Y-93465771D01*
X112952381Y-93465771D02*
X113095238Y-93465771D01*
X113095238Y-93465771D02*
X113190476Y-93513390D01*
X113190476Y-93513390D02*
X113238095Y-93561009D01*
X113238095Y-93561009D02*
X113285714Y-93656247D01*
X113285714Y-93656247D02*
X113285714Y-93894342D01*
X113285714Y-93894342D02*
X113238095Y-93989580D01*
X113238095Y-93989580D02*
X113190476Y-94037200D01*
X113190476Y-94037200D02*
X113095238Y-94084819D01*
X113095238Y-94084819D02*
X112809524Y-94084819D01*
X112809524Y-94084819D02*
X112714286Y-94037200D01*
X112714286Y-94037200D02*
X112666667Y-93989580D01*
X112333333Y-84084819D02*
X112000000Y-83608628D01*
X111761905Y-84084819D02*
X111761905Y-83084819D01*
X111761905Y-83084819D02*
X112142857Y-83084819D01*
X112142857Y-83084819D02*
X112238095Y-83132438D01*
X112238095Y-83132438D02*
X112285714Y-83180057D01*
X112285714Y-83180057D02*
X112333333Y-83275295D01*
X112333333Y-83275295D02*
X112333333Y-83418152D01*
X112333333Y-83418152D02*
X112285714Y-83513390D01*
X112285714Y-83513390D02*
X112238095Y-83561009D01*
X112238095Y-83561009D02*
X112142857Y-83608628D01*
X112142857Y-83608628D02*
X111761905Y-83608628D01*
X113285714Y-84084819D02*
X112714286Y-84084819D01*
X113000000Y-84084819D02*
X113000000Y-83084819D01*
X113000000Y-83084819D02*
X112904762Y-83227676D01*
X112904762Y-83227676D02*
X112809524Y-83322914D01*
X112809524Y-83322914D02*
X112714286Y-83370533D01*
X162833333Y-91792913D02*
X162785714Y-91840533D01*
X162785714Y-91840533D02*
X162642857Y-91888152D01*
X162642857Y-91888152D02*
X162547619Y-91888152D01*
X162547619Y-91888152D02*
X162404762Y-91840533D01*
X162404762Y-91840533D02*
X162309524Y-91745294D01*
X162309524Y-91745294D02*
X162261905Y-91650056D01*
X162261905Y-91650056D02*
X162214286Y-91459580D01*
X162214286Y-91459580D02*
X162214286Y-91316723D01*
X162214286Y-91316723D02*
X162261905Y-91126247D01*
X162261905Y-91126247D02*
X162309524Y-91031009D01*
X162309524Y-91031009D02*
X162404762Y-90935771D01*
X162404762Y-90935771D02*
X162547619Y-90888152D01*
X162547619Y-90888152D02*
X162642857Y-90888152D01*
X162642857Y-90888152D02*
X162785714Y-90935771D01*
X162785714Y-90935771D02*
X162833333Y-90983390D01*
X163690476Y-91221485D02*
X163690476Y-91888152D01*
X163452381Y-90840533D02*
X163214286Y-91554818D01*
X163214286Y-91554818D02*
X163833333Y-91554818D01*
X162833333Y-83759580D02*
X162785714Y-83807200D01*
X162785714Y-83807200D02*
X162642857Y-83854819D01*
X162642857Y-83854819D02*
X162547619Y-83854819D01*
X162547619Y-83854819D02*
X162404762Y-83807200D01*
X162404762Y-83807200D02*
X162309524Y-83711961D01*
X162309524Y-83711961D02*
X162261905Y-83616723D01*
X162261905Y-83616723D02*
X162214286Y-83426247D01*
X162214286Y-83426247D02*
X162214286Y-83283390D01*
X162214286Y-83283390D02*
X162261905Y-83092914D01*
X162261905Y-83092914D02*
X162309524Y-82997676D01*
X162309524Y-82997676D02*
X162404762Y-82902438D01*
X162404762Y-82902438D02*
X162547619Y-82854819D01*
X162547619Y-82854819D02*
X162642857Y-82854819D01*
X162642857Y-82854819D02*
X162785714Y-82902438D01*
X162785714Y-82902438D02*
X162833333Y-82950057D01*
X163166667Y-82854819D02*
X163785714Y-82854819D01*
X163785714Y-82854819D02*
X163452381Y-83235771D01*
X163452381Y-83235771D02*
X163595238Y-83235771D01*
X163595238Y-83235771D02*
X163690476Y-83283390D01*
X163690476Y-83283390D02*
X163738095Y-83331009D01*
X163738095Y-83331009D02*
X163785714Y-83426247D01*
X163785714Y-83426247D02*
X163785714Y-83664342D01*
X163785714Y-83664342D02*
X163738095Y-83759580D01*
X163738095Y-83759580D02*
X163690476Y-83807200D01*
X163690476Y-83807200D02*
X163595238Y-83854819D01*
X163595238Y-83854819D02*
X163309524Y-83854819D01*
X163309524Y-83854819D02*
X163214286Y-83807200D01*
X163214286Y-83807200D02*
X163166667Y-83759580D01*
X162833333Y-99826247D02*
X162785714Y-99873867D01*
X162785714Y-99873867D02*
X162642857Y-99921486D01*
X162642857Y-99921486D02*
X162547619Y-99921486D01*
X162547619Y-99921486D02*
X162404762Y-99873867D01*
X162404762Y-99873867D02*
X162309524Y-99778628D01*
X162309524Y-99778628D02*
X162261905Y-99683390D01*
X162261905Y-99683390D02*
X162214286Y-99492914D01*
X162214286Y-99492914D02*
X162214286Y-99350057D01*
X162214286Y-99350057D02*
X162261905Y-99159581D01*
X162261905Y-99159581D02*
X162309524Y-99064343D01*
X162309524Y-99064343D02*
X162404762Y-98969105D01*
X162404762Y-98969105D02*
X162547619Y-98921486D01*
X162547619Y-98921486D02*
X162642857Y-98921486D01*
X162642857Y-98921486D02*
X162785714Y-98969105D01*
X162785714Y-98969105D02*
X162833333Y-99016724D01*
X163738095Y-98921486D02*
X163261905Y-98921486D01*
X163261905Y-98921486D02*
X163214286Y-99397676D01*
X163214286Y-99397676D02*
X163261905Y-99350057D01*
X163261905Y-99350057D02*
X163357143Y-99302438D01*
X163357143Y-99302438D02*
X163595238Y-99302438D01*
X163595238Y-99302438D02*
X163690476Y-99350057D01*
X163690476Y-99350057D02*
X163738095Y-99397676D01*
X163738095Y-99397676D02*
X163785714Y-99492914D01*
X163785714Y-99492914D02*
X163785714Y-99731009D01*
X163785714Y-99731009D02*
X163738095Y-99826247D01*
X163738095Y-99826247D02*
X163690476Y-99873867D01*
X163690476Y-99873867D02*
X163595238Y-99921486D01*
X163595238Y-99921486D02*
X163357143Y-99921486D01*
X163357143Y-99921486D02*
X163261905Y-99873867D01*
X163261905Y-99873867D02*
X163214286Y-99826247D01*
X162833333Y-107859580D02*
X162785714Y-107907200D01*
X162785714Y-107907200D02*
X162642857Y-107954819D01*
X162642857Y-107954819D02*
X162547619Y-107954819D01*
X162547619Y-107954819D02*
X162404762Y-107907200D01*
X162404762Y-107907200D02*
X162309524Y-107811961D01*
X162309524Y-107811961D02*
X162261905Y-107716723D01*
X162261905Y-107716723D02*
X162214286Y-107526247D01*
X162214286Y-107526247D02*
X162214286Y-107383390D01*
X162214286Y-107383390D02*
X162261905Y-107192914D01*
X162261905Y-107192914D02*
X162309524Y-107097676D01*
X162309524Y-107097676D02*
X162404762Y-107002438D01*
X162404762Y-107002438D02*
X162547619Y-106954819D01*
X162547619Y-106954819D02*
X162642857Y-106954819D01*
X162642857Y-106954819D02*
X162785714Y-107002438D01*
X162785714Y-107002438D02*
X162833333Y-107050057D01*
X163690476Y-106954819D02*
X163500000Y-106954819D01*
X163500000Y-106954819D02*
X163404762Y-107002438D01*
X163404762Y-107002438D02*
X163357143Y-107050057D01*
X163357143Y-107050057D02*
X163261905Y-107192914D01*
X163261905Y-107192914D02*
X163214286Y-107383390D01*
X163214286Y-107383390D02*
X163214286Y-107764342D01*
X163214286Y-107764342D02*
X163261905Y-107859580D01*
X163261905Y-107859580D02*
X163309524Y-107907200D01*
X163309524Y-107907200D02*
X163404762Y-107954819D01*
X163404762Y-107954819D02*
X163595238Y-107954819D01*
X163595238Y-107954819D02*
X163690476Y-107907200D01*
X163690476Y-107907200D02*
X163738095Y-107859580D01*
X163738095Y-107859580D02*
X163785714Y-107764342D01*
X163785714Y-107764342D02*
X163785714Y-107526247D01*
X163785714Y-107526247D02*
X163738095Y-107431009D01*
X163738095Y-107431009D02*
X163690476Y-107383390D01*
X163690476Y-107383390D02*
X163595238Y-107335771D01*
X163595238Y-107335771D02*
X163404762Y-107335771D01*
X163404762Y-107335771D02*
X163309524Y-107383390D01*
X163309524Y-107383390D02*
X163261905Y-107431009D01*
X163261905Y-107431009D02*
X163214286Y-107526247D01*
X138833333Y-84084819D02*
X138500000Y-83608628D01*
X138261905Y-84084819D02*
X138261905Y-83084819D01*
X138261905Y-83084819D02*
X138642857Y-83084819D01*
X138642857Y-83084819D02*
X138738095Y-83132438D01*
X138738095Y-83132438D02*
X138785714Y-83180057D01*
X138785714Y-83180057D02*
X138833333Y-83275295D01*
X138833333Y-83275295D02*
X138833333Y-83418152D01*
X138833333Y-83418152D02*
X138785714Y-83513390D01*
X138785714Y-83513390D02*
X138738095Y-83561009D01*
X138738095Y-83561009D02*
X138642857Y-83608628D01*
X138642857Y-83608628D02*
X138261905Y-83608628D01*
X139690476Y-83084819D02*
X139500000Y-83084819D01*
X139500000Y-83084819D02*
X139404762Y-83132438D01*
X139404762Y-83132438D02*
X139357143Y-83180057D01*
X139357143Y-83180057D02*
X139261905Y-83322914D01*
X139261905Y-83322914D02*
X139214286Y-83513390D01*
X139214286Y-83513390D02*
X139214286Y-83894342D01*
X139214286Y-83894342D02*
X139261905Y-83989580D01*
X139261905Y-83989580D02*
X139309524Y-84037200D01*
X139309524Y-84037200D02*
X139404762Y-84084819D01*
X139404762Y-84084819D02*
X139595238Y-84084819D01*
X139595238Y-84084819D02*
X139690476Y-84037200D01*
X139690476Y-84037200D02*
X139738095Y-83989580D01*
X139738095Y-83989580D02*
X139785714Y-83894342D01*
X139785714Y-83894342D02*
X139785714Y-83656247D01*
X139785714Y-83656247D02*
X139738095Y-83561009D01*
X139738095Y-83561009D02*
X139690476Y-83513390D01*
X139690476Y-83513390D02*
X139595238Y-83465771D01*
X139595238Y-83465771D02*
X139404762Y-83465771D01*
X139404762Y-83465771D02*
X139309524Y-83513390D01*
X139309524Y-83513390D02*
X139261905Y-83561009D01*
X139261905Y-83561009D02*
X139214286Y-83656247D01*
X138833333Y-94084819D02*
X138500000Y-93608628D01*
X138261905Y-94084819D02*
X138261905Y-93084819D01*
X138261905Y-93084819D02*
X138642857Y-93084819D01*
X138642857Y-93084819D02*
X138738095Y-93132438D01*
X138738095Y-93132438D02*
X138785714Y-93180057D01*
X138785714Y-93180057D02*
X138833333Y-93275295D01*
X138833333Y-93275295D02*
X138833333Y-93418152D01*
X138833333Y-93418152D02*
X138785714Y-93513390D01*
X138785714Y-93513390D02*
X138738095Y-93561009D01*
X138738095Y-93561009D02*
X138642857Y-93608628D01*
X138642857Y-93608628D02*
X138261905Y-93608628D01*
X139404762Y-93513390D02*
X139309524Y-93465771D01*
X139309524Y-93465771D02*
X139261905Y-93418152D01*
X139261905Y-93418152D02*
X139214286Y-93322914D01*
X139214286Y-93322914D02*
X139214286Y-93275295D01*
X139214286Y-93275295D02*
X139261905Y-93180057D01*
X139261905Y-93180057D02*
X139309524Y-93132438D01*
X139309524Y-93132438D02*
X139404762Y-93084819D01*
X139404762Y-93084819D02*
X139595238Y-93084819D01*
X139595238Y-93084819D02*
X139690476Y-93132438D01*
X139690476Y-93132438D02*
X139738095Y-93180057D01*
X139738095Y-93180057D02*
X139785714Y-93275295D01*
X139785714Y-93275295D02*
X139785714Y-93322914D01*
X139785714Y-93322914D02*
X139738095Y-93418152D01*
X139738095Y-93418152D02*
X139690476Y-93465771D01*
X139690476Y-93465771D02*
X139595238Y-93513390D01*
X139595238Y-93513390D02*
X139404762Y-93513390D01*
X139404762Y-93513390D02*
X139309524Y-93561009D01*
X139309524Y-93561009D02*
X139261905Y-93608628D01*
X139261905Y-93608628D02*
X139214286Y-93703866D01*
X139214286Y-93703866D02*
X139214286Y-93894342D01*
X139214286Y-93894342D02*
X139261905Y-93989580D01*
X139261905Y-93989580D02*
X139309524Y-94037200D01*
X139309524Y-94037200D02*
X139404762Y-94084819D01*
X139404762Y-94084819D02*
X139595238Y-94084819D01*
X139595238Y-94084819D02*
X139690476Y-94037200D01*
X139690476Y-94037200D02*
X139738095Y-93989580D01*
X139738095Y-93989580D02*
X139785714Y-93894342D01*
X139785714Y-93894342D02*
X139785714Y-93703866D01*
X139785714Y-93703866D02*
X139738095Y-93608628D01*
X139738095Y-93608628D02*
X139690476Y-93561009D01*
X139690476Y-93561009D02*
X139595238Y-93513390D01*
X138833333Y-89084819D02*
X138500000Y-88608628D01*
X138261905Y-89084819D02*
X138261905Y-88084819D01*
X138261905Y-88084819D02*
X138642857Y-88084819D01*
X138642857Y-88084819D02*
X138738095Y-88132438D01*
X138738095Y-88132438D02*
X138785714Y-88180057D01*
X138785714Y-88180057D02*
X138833333Y-88275295D01*
X138833333Y-88275295D02*
X138833333Y-88418152D01*
X138833333Y-88418152D02*
X138785714Y-88513390D01*
X138785714Y-88513390D02*
X138738095Y-88561009D01*
X138738095Y-88561009D02*
X138642857Y-88608628D01*
X138642857Y-88608628D02*
X138261905Y-88608628D01*
X139166667Y-88084819D02*
X139833333Y-88084819D01*
X139833333Y-88084819D02*
X139404762Y-89084819D01*
X138357142Y-104084819D02*
X138023809Y-103608628D01*
X137785714Y-104084819D02*
X137785714Y-103084819D01*
X137785714Y-103084819D02*
X138166666Y-103084819D01*
X138166666Y-103084819D02*
X138261904Y-103132438D01*
X138261904Y-103132438D02*
X138309523Y-103180057D01*
X138309523Y-103180057D02*
X138357142Y-103275295D01*
X138357142Y-103275295D02*
X138357142Y-103418152D01*
X138357142Y-103418152D02*
X138309523Y-103513390D01*
X138309523Y-103513390D02*
X138261904Y-103561009D01*
X138261904Y-103561009D02*
X138166666Y-103608628D01*
X138166666Y-103608628D02*
X137785714Y-103608628D01*
X139309523Y-104084819D02*
X138738095Y-104084819D01*
X139023809Y-104084819D02*
X139023809Y-103084819D01*
X139023809Y-103084819D02*
X138928571Y-103227676D01*
X138928571Y-103227676D02*
X138833333Y-103322914D01*
X138833333Y-103322914D02*
X138738095Y-103370533D01*
X139928571Y-103084819D02*
X140023809Y-103084819D01*
X140023809Y-103084819D02*
X140119047Y-103132438D01*
X140119047Y-103132438D02*
X140166666Y-103180057D01*
X140166666Y-103180057D02*
X140214285Y-103275295D01*
X140214285Y-103275295D02*
X140261904Y-103465771D01*
X140261904Y-103465771D02*
X140261904Y-103703866D01*
X140261904Y-103703866D02*
X140214285Y-103894342D01*
X140214285Y-103894342D02*
X140166666Y-103989580D01*
X140166666Y-103989580D02*
X140119047Y-104037200D01*
X140119047Y-104037200D02*
X140023809Y-104084819D01*
X140023809Y-104084819D02*
X139928571Y-104084819D01*
X139928571Y-104084819D02*
X139833333Y-104037200D01*
X139833333Y-104037200D02*
X139785714Y-103989580D01*
X139785714Y-103989580D02*
X139738095Y-103894342D01*
X139738095Y-103894342D02*
X139690476Y-103703866D01*
X139690476Y-103703866D02*
X139690476Y-103465771D01*
X139690476Y-103465771D02*
X139738095Y-103275295D01*
X139738095Y-103275295D02*
X139785714Y-103180057D01*
X139785714Y-103180057D02*
X139833333Y-103132438D01*
X139833333Y-103132438D02*
X139928571Y-103084819D01*
X138833333Y-99084819D02*
X138500000Y-98608628D01*
X138261905Y-99084819D02*
X138261905Y-98084819D01*
X138261905Y-98084819D02*
X138642857Y-98084819D01*
X138642857Y-98084819D02*
X138738095Y-98132438D01*
X138738095Y-98132438D02*
X138785714Y-98180057D01*
X138785714Y-98180057D02*
X138833333Y-98275295D01*
X138833333Y-98275295D02*
X138833333Y-98418152D01*
X138833333Y-98418152D02*
X138785714Y-98513390D01*
X138785714Y-98513390D02*
X138738095Y-98561009D01*
X138738095Y-98561009D02*
X138642857Y-98608628D01*
X138642857Y-98608628D02*
X138261905Y-98608628D01*
X139309524Y-99084819D02*
X139500000Y-99084819D01*
X139500000Y-99084819D02*
X139595238Y-99037200D01*
X139595238Y-99037200D02*
X139642857Y-98989580D01*
X139642857Y-98989580D02*
X139738095Y-98846723D01*
X139738095Y-98846723D02*
X139785714Y-98656247D01*
X139785714Y-98656247D02*
X139785714Y-98275295D01*
X139785714Y-98275295D02*
X139738095Y-98180057D01*
X139738095Y-98180057D02*
X139690476Y-98132438D01*
X139690476Y-98132438D02*
X139595238Y-98084819D01*
X139595238Y-98084819D02*
X139404762Y-98084819D01*
X139404762Y-98084819D02*
X139309524Y-98132438D01*
X139309524Y-98132438D02*
X139261905Y-98180057D01*
X139261905Y-98180057D02*
X139214286Y-98275295D01*
X139214286Y-98275295D02*
X139214286Y-98513390D01*
X139214286Y-98513390D02*
X139261905Y-98608628D01*
X139261905Y-98608628D02*
X139309524Y-98656247D01*
X139309524Y-98656247D02*
X139404762Y-98703866D01*
X139404762Y-98703866D02*
X139595238Y-98703866D01*
X139595238Y-98703866D02*
X139690476Y-98656247D01*
X139690476Y-98656247D02*
X139738095Y-98608628D01*
X139738095Y-98608628D02*
X139785714Y-98513390D01*
X187548095Y-92884819D02*
X187548095Y-93694342D01*
X187548095Y-93694342D02*
X187595714Y-93789580D01*
X187595714Y-93789580D02*
X187643333Y-93837200D01*
X187643333Y-93837200D02*
X187738571Y-93884819D01*
X187738571Y-93884819D02*
X187929047Y-93884819D01*
X187929047Y-93884819D02*
X188024285Y-93837200D01*
X188024285Y-93837200D02*
X188071904Y-93789580D01*
X188071904Y-93789580D02*
X188119523Y-93694342D01*
X188119523Y-93694342D02*
X188119523Y-92884819D01*
X188500476Y-92884819D02*
X189119523Y-92884819D01*
X189119523Y-92884819D02*
X188786190Y-93265771D01*
X188786190Y-93265771D02*
X188929047Y-93265771D01*
X188929047Y-93265771D02*
X189024285Y-93313390D01*
X189024285Y-93313390D02*
X189071904Y-93361009D01*
X189071904Y-93361009D02*
X189119523Y-93456247D01*
X189119523Y-93456247D02*
X189119523Y-93694342D01*
X189119523Y-93694342D02*
X189071904Y-93789580D01*
X189071904Y-93789580D02*
X189024285Y-93837200D01*
X189024285Y-93837200D02*
X188929047Y-93884819D01*
X188929047Y-93884819D02*
X188643333Y-93884819D01*
X188643333Y-93884819D02*
X188548095Y-93837200D01*
X188548095Y-93837200D02*
X188500476Y-93789580D01*
X151548095Y-92884819D02*
X151548095Y-93694342D01*
X151548095Y-93694342D02*
X151595714Y-93789580D01*
X151595714Y-93789580D02*
X151643333Y-93837200D01*
X151643333Y-93837200D02*
X151738571Y-93884819D01*
X151738571Y-93884819D02*
X151929047Y-93884819D01*
X151929047Y-93884819D02*
X152024285Y-93837200D01*
X152024285Y-93837200D02*
X152071904Y-93789580D01*
X152071904Y-93789580D02*
X152119523Y-93694342D01*
X152119523Y-93694342D02*
X152119523Y-92884819D01*
X152548095Y-92980057D02*
X152595714Y-92932438D01*
X152595714Y-92932438D02*
X152690952Y-92884819D01*
X152690952Y-92884819D02*
X152929047Y-92884819D01*
X152929047Y-92884819D02*
X153024285Y-92932438D01*
X153024285Y-92932438D02*
X153071904Y-92980057D01*
X153071904Y-92980057D02*
X153119523Y-93075295D01*
X153119523Y-93075295D02*
X153119523Y-93170533D01*
X153119523Y-93170533D02*
X153071904Y-93313390D01*
X153071904Y-93313390D02*
X152500476Y-93884819D01*
X152500476Y-93884819D02*
X153119523Y-93884819D01*
X124928095Y-88584819D02*
X124928095Y-89394342D01*
X124928095Y-89394342D02*
X124975714Y-89489580D01*
X124975714Y-89489580D02*
X125023333Y-89537200D01*
X125023333Y-89537200D02*
X125118571Y-89584819D01*
X125118571Y-89584819D02*
X125309047Y-89584819D01*
X125309047Y-89584819D02*
X125404285Y-89537200D01*
X125404285Y-89537200D02*
X125451904Y-89489580D01*
X125451904Y-89489580D02*
X125499523Y-89394342D01*
X125499523Y-89394342D02*
X125499523Y-88584819D01*
X126499523Y-89584819D02*
X125928095Y-89584819D01*
X126213809Y-89584819D02*
X126213809Y-88584819D01*
X126213809Y-88584819D02*
X126118571Y-88727676D01*
X126118571Y-88727676D02*
X126023333Y-88822914D01*
X126023333Y-88822914D02*
X125928095Y-88870533D01*
X166500000Y-76456819D02*
X166690476Y-76456819D01*
X166690476Y-76456819D02*
X166785714Y-76504438D01*
X166785714Y-76504438D02*
X166880952Y-76599676D01*
X166880952Y-76599676D02*
X166928571Y-76790152D01*
X166928571Y-76790152D02*
X166928571Y-77123485D01*
X166928571Y-77123485D02*
X166880952Y-77313961D01*
X166880952Y-77313961D02*
X166785714Y-77409200D01*
X166785714Y-77409200D02*
X166690476Y-77456819D01*
X166690476Y-77456819D02*
X166500000Y-77456819D01*
X166500000Y-77456819D02*
X166404762Y-77409200D01*
X166404762Y-77409200D02*
X166309524Y-77313961D01*
X166309524Y-77313961D02*
X166261905Y-77123485D01*
X166261905Y-77123485D02*
X166261905Y-76790152D01*
X166261905Y-76790152D02*
X166309524Y-76599676D01*
X166309524Y-76599676D02*
X166404762Y-76504438D01*
X166404762Y-76504438D02*
X166500000Y-76456819D01*
X167357143Y-76456819D02*
X167357143Y-77266342D01*
X167357143Y-77266342D02*
X167404762Y-77361580D01*
X167404762Y-77361580D02*
X167452381Y-77409200D01*
X167452381Y-77409200D02*
X167547619Y-77456819D01*
X167547619Y-77456819D02*
X167738095Y-77456819D01*
X167738095Y-77456819D02*
X167833333Y-77409200D01*
X167833333Y-77409200D02*
X167880952Y-77361580D01*
X167880952Y-77361580D02*
X167928571Y-77266342D01*
X167928571Y-77266342D02*
X167928571Y-76456819D01*
X168261905Y-76456819D02*
X168833333Y-76456819D01*
X168547619Y-77456819D02*
X168547619Y-76456819D01*
X152785714Y-77456819D02*
X152785714Y-76456819D01*
X152785714Y-76456819D02*
X153357142Y-77456819D01*
X153357142Y-77456819D02*
X153357142Y-76456819D01*
X154023809Y-76456819D02*
X154214285Y-76456819D01*
X154214285Y-76456819D02*
X154309523Y-76504438D01*
X154309523Y-76504438D02*
X154404761Y-76599676D01*
X154404761Y-76599676D02*
X154452380Y-76790152D01*
X154452380Y-76790152D02*
X154452380Y-77123485D01*
X154452380Y-77123485D02*
X154404761Y-77313961D01*
X154404761Y-77313961D02*
X154309523Y-77409200D01*
X154309523Y-77409200D02*
X154214285Y-77456819D01*
X154214285Y-77456819D02*
X154023809Y-77456819D01*
X154023809Y-77456819D02*
X153928571Y-77409200D01*
X153928571Y-77409200D02*
X153833333Y-77313961D01*
X153833333Y-77313961D02*
X153785714Y-77123485D01*
X153785714Y-77123485D02*
X153785714Y-76790152D01*
X153785714Y-76790152D02*
X153833333Y-76599676D01*
X153833333Y-76599676D02*
X153928571Y-76504438D01*
X153928571Y-76504438D02*
X154023809Y-76456819D01*
X154738095Y-76456819D02*
X155309523Y-76456819D01*
X155023809Y-77456819D02*
X155023809Y-76456819D01*
X156214285Y-77361580D02*
X156166666Y-77409200D01*
X156166666Y-77409200D02*
X156023809Y-77456819D01*
X156023809Y-77456819D02*
X155928571Y-77456819D01*
X155928571Y-77456819D02*
X155785714Y-77409200D01*
X155785714Y-77409200D02*
X155690476Y-77313961D01*
X155690476Y-77313961D02*
X155642857Y-77218723D01*
X155642857Y-77218723D02*
X155595238Y-77028247D01*
X155595238Y-77028247D02*
X155595238Y-76885390D01*
X155595238Y-76885390D02*
X155642857Y-76694914D01*
X155642857Y-76694914D02*
X155690476Y-76599676D01*
X155690476Y-76599676D02*
X155785714Y-76504438D01*
X155785714Y-76504438D02*
X155928571Y-76456819D01*
X155928571Y-76456819D02*
X156023809Y-76456819D01*
X156023809Y-76456819D02*
X156166666Y-76504438D01*
X156166666Y-76504438D02*
X156214285Y-76552057D01*
X156642857Y-77456819D02*
X156642857Y-76456819D01*
X156642857Y-76933009D02*
X157214285Y-76933009D01*
X157214285Y-77456819D02*
X157214285Y-76456819D01*
X148130952Y-77456819D02*
X147654762Y-77456819D01*
X147654762Y-77456819D02*
X147654762Y-76456819D01*
X148464286Y-77456819D02*
X148464286Y-76456819D01*
X148464286Y-76456819D02*
X148845238Y-76456819D01*
X148845238Y-76456819D02*
X148940476Y-76504438D01*
X148940476Y-76504438D02*
X148988095Y-76552057D01*
X148988095Y-76552057D02*
X149035714Y-76647295D01*
X149035714Y-76647295D02*
X149035714Y-76790152D01*
X149035714Y-76790152D02*
X148988095Y-76885390D01*
X148988095Y-76885390D02*
X148940476Y-76933009D01*
X148940476Y-76933009D02*
X148845238Y-76980628D01*
X148845238Y-76980628D02*
X148464286Y-76980628D01*
X149797619Y-76933009D02*
X149464286Y-76933009D01*
X149464286Y-77456819D02*
X149464286Y-76456819D01*
X149464286Y-76456819D02*
X149940476Y-76456819D01*
X135035714Y-77456819D02*
X135035714Y-76456819D01*
X135035714Y-76933009D02*
X135607142Y-76933009D01*
X135607142Y-77456819D02*
X135607142Y-76456819D01*
X136083333Y-77456819D02*
X136083333Y-76456819D01*
X136083333Y-76456819D02*
X136464285Y-76456819D01*
X136464285Y-76456819D02*
X136559523Y-76504438D01*
X136559523Y-76504438D02*
X136607142Y-76552057D01*
X136607142Y-76552057D02*
X136654761Y-76647295D01*
X136654761Y-76647295D02*
X136654761Y-76790152D01*
X136654761Y-76790152D02*
X136607142Y-76885390D01*
X136607142Y-76885390D02*
X136559523Y-76933009D01*
X136559523Y-76933009D02*
X136464285Y-76980628D01*
X136464285Y-76980628D02*
X136083333Y-76980628D01*
X137416666Y-76933009D02*
X137083333Y-76933009D01*
X137083333Y-77456819D02*
X137083333Y-76456819D01*
X137083333Y-76456819D02*
X137559523Y-76456819D01*
X174357142Y-109084819D02*
X174023809Y-108608628D01*
X173785714Y-109084819D02*
X173785714Y-108084819D01*
X173785714Y-108084819D02*
X174166666Y-108084819D01*
X174166666Y-108084819D02*
X174261904Y-108132438D01*
X174261904Y-108132438D02*
X174309523Y-108180057D01*
X174309523Y-108180057D02*
X174357142Y-108275295D01*
X174357142Y-108275295D02*
X174357142Y-108418152D01*
X174357142Y-108418152D02*
X174309523Y-108513390D01*
X174309523Y-108513390D02*
X174261904Y-108561009D01*
X174261904Y-108561009D02*
X174166666Y-108608628D01*
X174166666Y-108608628D02*
X173785714Y-108608628D01*
X175309523Y-109084819D02*
X174738095Y-109084819D01*
X175023809Y-109084819D02*
X175023809Y-108084819D01*
X175023809Y-108084819D02*
X174928571Y-108227676D01*
X174928571Y-108227676D02*
X174833333Y-108322914D01*
X174833333Y-108322914D02*
X174738095Y-108370533D01*
X175642857Y-108084819D02*
X176309523Y-108084819D01*
X176309523Y-108084819D02*
X175880952Y-109084819D01*
X174357142Y-104084819D02*
X174023809Y-103608628D01*
X173785714Y-104084819D02*
X173785714Y-103084819D01*
X173785714Y-103084819D02*
X174166666Y-103084819D01*
X174166666Y-103084819D02*
X174261904Y-103132438D01*
X174261904Y-103132438D02*
X174309523Y-103180057D01*
X174309523Y-103180057D02*
X174357142Y-103275295D01*
X174357142Y-103275295D02*
X174357142Y-103418152D01*
X174357142Y-103418152D02*
X174309523Y-103513390D01*
X174309523Y-103513390D02*
X174261904Y-103561009D01*
X174261904Y-103561009D02*
X174166666Y-103608628D01*
X174166666Y-103608628D02*
X173785714Y-103608628D01*
X175309523Y-104084819D02*
X174738095Y-104084819D01*
X175023809Y-104084819D02*
X175023809Y-103084819D01*
X175023809Y-103084819D02*
X174928571Y-103227676D01*
X174928571Y-103227676D02*
X174833333Y-103322914D01*
X174833333Y-103322914D02*
X174738095Y-103370533D01*
X176166666Y-103084819D02*
X175976190Y-103084819D01*
X175976190Y-103084819D02*
X175880952Y-103132438D01*
X175880952Y-103132438D02*
X175833333Y-103180057D01*
X175833333Y-103180057D02*
X175738095Y-103322914D01*
X175738095Y-103322914D02*
X175690476Y-103513390D01*
X175690476Y-103513390D02*
X175690476Y-103894342D01*
X175690476Y-103894342D02*
X175738095Y-103989580D01*
X175738095Y-103989580D02*
X175785714Y-104037200D01*
X175785714Y-104037200D02*
X175880952Y-104084819D01*
X175880952Y-104084819D02*
X176071428Y-104084819D01*
X176071428Y-104084819D02*
X176166666Y-104037200D01*
X176166666Y-104037200D02*
X176214285Y-103989580D01*
X176214285Y-103989580D02*
X176261904Y-103894342D01*
X176261904Y-103894342D02*
X176261904Y-103656247D01*
X176261904Y-103656247D02*
X176214285Y-103561009D01*
X176214285Y-103561009D02*
X176166666Y-103513390D01*
X176166666Y-103513390D02*
X176071428Y-103465771D01*
X176071428Y-103465771D02*
X175880952Y-103465771D01*
X175880952Y-103465771D02*
X175785714Y-103513390D01*
X175785714Y-103513390D02*
X175738095Y-103561009D01*
X175738095Y-103561009D02*
X175690476Y-103656247D01*
X174357142Y-99084819D02*
X174023809Y-98608628D01*
X173785714Y-99084819D02*
X173785714Y-98084819D01*
X173785714Y-98084819D02*
X174166666Y-98084819D01*
X174166666Y-98084819D02*
X174261904Y-98132438D01*
X174261904Y-98132438D02*
X174309523Y-98180057D01*
X174309523Y-98180057D02*
X174357142Y-98275295D01*
X174357142Y-98275295D02*
X174357142Y-98418152D01*
X174357142Y-98418152D02*
X174309523Y-98513390D01*
X174309523Y-98513390D02*
X174261904Y-98561009D01*
X174261904Y-98561009D02*
X174166666Y-98608628D01*
X174166666Y-98608628D02*
X173785714Y-98608628D01*
X175309523Y-99084819D02*
X174738095Y-99084819D01*
X175023809Y-99084819D02*
X175023809Y-98084819D01*
X175023809Y-98084819D02*
X174928571Y-98227676D01*
X174928571Y-98227676D02*
X174833333Y-98322914D01*
X174833333Y-98322914D02*
X174738095Y-98370533D01*
X176214285Y-98084819D02*
X175738095Y-98084819D01*
X175738095Y-98084819D02*
X175690476Y-98561009D01*
X175690476Y-98561009D02*
X175738095Y-98513390D01*
X175738095Y-98513390D02*
X175833333Y-98465771D01*
X175833333Y-98465771D02*
X176071428Y-98465771D01*
X176071428Y-98465771D02*
X176166666Y-98513390D01*
X176166666Y-98513390D02*
X176214285Y-98561009D01*
X176214285Y-98561009D02*
X176261904Y-98656247D01*
X176261904Y-98656247D02*
X176261904Y-98894342D01*
X176261904Y-98894342D02*
X176214285Y-98989580D01*
X176214285Y-98989580D02*
X176166666Y-99037200D01*
X176166666Y-99037200D02*
X176071428Y-99084819D01*
X176071428Y-99084819D02*
X175833333Y-99084819D01*
X175833333Y-99084819D02*
X175738095Y-99037200D01*
X175738095Y-99037200D02*
X175690476Y-98989580D01*
X174437142Y-94084819D02*
X174103809Y-93608628D01*
X173865714Y-94084819D02*
X173865714Y-93084819D01*
X173865714Y-93084819D02*
X174246666Y-93084819D01*
X174246666Y-93084819D02*
X174341904Y-93132438D01*
X174341904Y-93132438D02*
X174389523Y-93180057D01*
X174389523Y-93180057D02*
X174437142Y-93275295D01*
X174437142Y-93275295D02*
X174437142Y-93418152D01*
X174437142Y-93418152D02*
X174389523Y-93513390D01*
X174389523Y-93513390D02*
X174341904Y-93561009D01*
X174341904Y-93561009D02*
X174246666Y-93608628D01*
X174246666Y-93608628D02*
X173865714Y-93608628D01*
X175389523Y-94084819D02*
X174818095Y-94084819D01*
X175103809Y-94084819D02*
X175103809Y-93084819D01*
X175103809Y-93084819D02*
X175008571Y-93227676D01*
X175008571Y-93227676D02*
X174913333Y-93322914D01*
X174913333Y-93322914D02*
X174818095Y-93370533D01*
X176246666Y-93418152D02*
X176246666Y-94084819D01*
X176008571Y-93037200D02*
X175770476Y-93751485D01*
X175770476Y-93751485D02*
X176389523Y-93751485D01*
X174357142Y-89084819D02*
X174023809Y-88608628D01*
X173785714Y-89084819D02*
X173785714Y-88084819D01*
X173785714Y-88084819D02*
X174166666Y-88084819D01*
X174166666Y-88084819D02*
X174261904Y-88132438D01*
X174261904Y-88132438D02*
X174309523Y-88180057D01*
X174309523Y-88180057D02*
X174357142Y-88275295D01*
X174357142Y-88275295D02*
X174357142Y-88418152D01*
X174357142Y-88418152D02*
X174309523Y-88513390D01*
X174309523Y-88513390D02*
X174261904Y-88561009D01*
X174261904Y-88561009D02*
X174166666Y-88608628D01*
X174166666Y-88608628D02*
X173785714Y-88608628D01*
X175309523Y-89084819D02*
X174738095Y-89084819D01*
X175023809Y-89084819D02*
X175023809Y-88084819D01*
X175023809Y-88084819D02*
X174928571Y-88227676D01*
X174928571Y-88227676D02*
X174833333Y-88322914D01*
X174833333Y-88322914D02*
X174738095Y-88370533D01*
X175642857Y-88084819D02*
X176261904Y-88084819D01*
X176261904Y-88084819D02*
X175928571Y-88465771D01*
X175928571Y-88465771D02*
X176071428Y-88465771D01*
X176071428Y-88465771D02*
X176166666Y-88513390D01*
X176166666Y-88513390D02*
X176214285Y-88561009D01*
X176214285Y-88561009D02*
X176261904Y-88656247D01*
X176261904Y-88656247D02*
X176261904Y-88894342D01*
X176261904Y-88894342D02*
X176214285Y-88989580D01*
X176214285Y-88989580D02*
X176166666Y-89037200D01*
X176166666Y-89037200D02*
X176071428Y-89084819D01*
X176071428Y-89084819D02*
X175785714Y-89084819D01*
X175785714Y-89084819D02*
X175690476Y-89037200D01*
X175690476Y-89037200D02*
X175642857Y-88989580D01*
X197666666Y-75454819D02*
X197666666Y-76169104D01*
X197666666Y-76169104D02*
X197619047Y-76311961D01*
X197619047Y-76311961D02*
X197523809Y-76407200D01*
X197523809Y-76407200D02*
X197380952Y-76454819D01*
X197380952Y-76454819D02*
X197285714Y-76454819D01*
X198047619Y-75454819D02*
X198666666Y-75454819D01*
X198666666Y-75454819D02*
X198333333Y-75835771D01*
X198333333Y-75835771D02*
X198476190Y-75835771D01*
X198476190Y-75835771D02*
X198571428Y-75883390D01*
X198571428Y-75883390D02*
X198619047Y-75931009D01*
X198619047Y-75931009D02*
X198666666Y-76026247D01*
X198666666Y-76026247D02*
X198666666Y-76264342D01*
X198666666Y-76264342D02*
X198619047Y-76359580D01*
X198619047Y-76359580D02*
X198571428Y-76407200D01*
X198571428Y-76407200D02*
X198476190Y-76454819D01*
X198476190Y-76454819D02*
X198190476Y-76454819D01*
X198190476Y-76454819D02*
X198095238Y-76407200D01*
X198095238Y-76407200D02*
X198047619Y-76359580D01*
X117136666Y-73304819D02*
X117136666Y-74019104D01*
X117136666Y-74019104D02*
X117089047Y-74161961D01*
X117089047Y-74161961D02*
X116993809Y-74257200D01*
X116993809Y-74257200D02*
X116850952Y-74304819D01*
X116850952Y-74304819D02*
X116755714Y-74304819D01*
X118136666Y-74304819D02*
X117565238Y-74304819D01*
X117850952Y-74304819D02*
X117850952Y-73304819D01*
X117850952Y-73304819D02*
X117755714Y-73447676D01*
X117755714Y-73447676D02*
X117660476Y-73542914D01*
X117660476Y-73542914D02*
X117565238Y-73590533D01*
X160488095Y-76504438D02*
X160392857Y-76456819D01*
X160392857Y-76456819D02*
X160250000Y-76456819D01*
X160250000Y-76456819D02*
X160107143Y-76504438D01*
X160107143Y-76504438D02*
X160011905Y-76599676D01*
X160011905Y-76599676D02*
X159964286Y-76694914D01*
X159964286Y-76694914D02*
X159916667Y-76885390D01*
X159916667Y-76885390D02*
X159916667Y-77028247D01*
X159916667Y-77028247D02*
X159964286Y-77218723D01*
X159964286Y-77218723D02*
X160011905Y-77313961D01*
X160011905Y-77313961D02*
X160107143Y-77409200D01*
X160107143Y-77409200D02*
X160250000Y-77456819D01*
X160250000Y-77456819D02*
X160345238Y-77456819D01*
X160345238Y-77456819D02*
X160488095Y-77409200D01*
X160488095Y-77409200D02*
X160535714Y-77361580D01*
X160535714Y-77361580D02*
X160535714Y-77028247D01*
X160535714Y-77028247D02*
X160345238Y-77028247D01*
X160964286Y-77456819D02*
X160964286Y-76456819D01*
X160964286Y-76456819D02*
X161535714Y-77456819D01*
X161535714Y-77456819D02*
X161535714Y-76456819D01*
X162011905Y-77456819D02*
X162011905Y-76456819D01*
X162011905Y-76456819D02*
X162250000Y-76456819D01*
X162250000Y-76456819D02*
X162392857Y-76504438D01*
X162392857Y-76504438D02*
X162488095Y-76599676D01*
X162488095Y-76599676D02*
X162535714Y-76694914D01*
X162535714Y-76694914D02*
X162583333Y-76885390D01*
X162583333Y-76885390D02*
X162583333Y-77028247D01*
X162583333Y-77028247D02*
X162535714Y-77218723D01*
X162535714Y-77218723D02*
X162488095Y-77313961D01*
X162488095Y-77313961D02*
X162392857Y-77409200D01*
X162392857Y-77409200D02*
X162250000Y-77456819D01*
X162250000Y-77456819D02*
X162011905Y-77456819D01*
X141738095Y-76504438D02*
X141642857Y-76456819D01*
X141642857Y-76456819D02*
X141500000Y-76456819D01*
X141500000Y-76456819D02*
X141357143Y-76504438D01*
X141357143Y-76504438D02*
X141261905Y-76599676D01*
X141261905Y-76599676D02*
X141214286Y-76694914D01*
X141214286Y-76694914D02*
X141166667Y-76885390D01*
X141166667Y-76885390D02*
X141166667Y-77028247D01*
X141166667Y-77028247D02*
X141214286Y-77218723D01*
X141214286Y-77218723D02*
X141261905Y-77313961D01*
X141261905Y-77313961D02*
X141357143Y-77409200D01*
X141357143Y-77409200D02*
X141500000Y-77456819D01*
X141500000Y-77456819D02*
X141595238Y-77456819D01*
X141595238Y-77456819D02*
X141738095Y-77409200D01*
X141738095Y-77409200D02*
X141785714Y-77361580D01*
X141785714Y-77361580D02*
X141785714Y-77028247D01*
X141785714Y-77028247D02*
X141595238Y-77028247D01*
X142214286Y-77456819D02*
X142214286Y-76456819D01*
X142214286Y-76456819D02*
X142785714Y-77456819D01*
X142785714Y-77456819D02*
X142785714Y-76456819D01*
X143261905Y-77456819D02*
X143261905Y-76456819D01*
X143261905Y-76456819D02*
X143500000Y-76456819D01*
X143500000Y-76456819D02*
X143642857Y-76504438D01*
X143642857Y-76504438D02*
X143738095Y-76599676D01*
X143738095Y-76599676D02*
X143785714Y-76694914D01*
X143785714Y-76694914D02*
X143833333Y-76885390D01*
X143833333Y-76885390D02*
X143833333Y-77028247D01*
X143833333Y-77028247D02*
X143785714Y-77218723D01*
X143785714Y-77218723D02*
X143738095Y-77313961D01*
X143738095Y-77313961D02*
X143642857Y-77409200D01*
X143642857Y-77409200D02*
X143500000Y-77456819D01*
X143500000Y-77456819D02*
X143261905Y-77456819D01*
X198261905Y-89522319D02*
X198261905Y-88522319D01*
X198261905Y-88522319D02*
X198500000Y-88522319D01*
X198500000Y-88522319D02*
X198642857Y-88569938D01*
X198642857Y-88569938D02*
X198738095Y-88665176D01*
X198738095Y-88665176D02*
X198785714Y-88760414D01*
X198785714Y-88760414D02*
X198833333Y-88950890D01*
X198833333Y-88950890D02*
X198833333Y-89093747D01*
X198833333Y-89093747D02*
X198785714Y-89284223D01*
X198785714Y-89284223D02*
X198738095Y-89379461D01*
X198738095Y-89379461D02*
X198642857Y-89474700D01*
X198642857Y-89474700D02*
X198500000Y-89522319D01*
X198500000Y-89522319D02*
X198261905Y-89522319D01*
X199214286Y-88617557D02*
X199261905Y-88569938D01*
X199261905Y-88569938D02*
X199357143Y-88522319D01*
X199357143Y-88522319D02*
X199595238Y-88522319D01*
X199595238Y-88522319D02*
X199690476Y-88569938D01*
X199690476Y-88569938D02*
X199738095Y-88617557D01*
X199738095Y-88617557D02*
X199785714Y-88712795D01*
X199785714Y-88712795D02*
X199785714Y-88808033D01*
X199785714Y-88808033D02*
X199738095Y-88950890D01*
X199738095Y-88950890D02*
X199166667Y-89522319D01*
X199166667Y-89522319D02*
X199785714Y-89522319D01*
X194928095Y-89842319D02*
X194928095Y-88842319D01*
X195499523Y-89842319D02*
X195070952Y-89270890D01*
X195499523Y-88842319D02*
X194928095Y-89413747D01*
X198261905Y-84334819D02*
X198261905Y-83334819D01*
X198261905Y-83334819D02*
X198500000Y-83334819D01*
X198500000Y-83334819D02*
X198642857Y-83382438D01*
X198642857Y-83382438D02*
X198738095Y-83477676D01*
X198738095Y-83477676D02*
X198785714Y-83572914D01*
X198785714Y-83572914D02*
X198833333Y-83763390D01*
X198833333Y-83763390D02*
X198833333Y-83906247D01*
X198833333Y-83906247D02*
X198785714Y-84096723D01*
X198785714Y-84096723D02*
X198738095Y-84191961D01*
X198738095Y-84191961D02*
X198642857Y-84287200D01*
X198642857Y-84287200D02*
X198500000Y-84334819D01*
X198500000Y-84334819D02*
X198261905Y-84334819D01*
X199785714Y-84334819D02*
X199214286Y-84334819D01*
X199500000Y-84334819D02*
X199500000Y-83334819D01*
X199500000Y-83334819D02*
X199404762Y-83477676D01*
X199404762Y-83477676D02*
X199309524Y-83572914D01*
X199309524Y-83572914D02*
X199214286Y-83620533D01*
X194928095Y-84654819D02*
X194928095Y-83654819D01*
X195499523Y-84654819D02*
X195070952Y-84083390D01*
X195499523Y-83654819D02*
X194928095Y-84226247D01*
X190542142Y-83939580D02*
X190494523Y-83987200D01*
X190494523Y-83987200D02*
X190351666Y-84034819D01*
X190351666Y-84034819D02*
X190256428Y-84034819D01*
X190256428Y-84034819D02*
X190113571Y-83987200D01*
X190113571Y-83987200D02*
X190018333Y-83891961D01*
X190018333Y-83891961D02*
X189970714Y-83796723D01*
X189970714Y-83796723D02*
X189923095Y-83606247D01*
X189923095Y-83606247D02*
X189923095Y-83463390D01*
X189923095Y-83463390D02*
X189970714Y-83272914D01*
X189970714Y-83272914D02*
X190018333Y-83177676D01*
X190018333Y-83177676D02*
X190113571Y-83082438D01*
X190113571Y-83082438D02*
X190256428Y-83034819D01*
X190256428Y-83034819D02*
X190351666Y-83034819D01*
X190351666Y-83034819D02*
X190494523Y-83082438D01*
X190494523Y-83082438D02*
X190542142Y-83130057D01*
X191494523Y-84034819D02*
X190923095Y-84034819D01*
X191208809Y-84034819D02*
X191208809Y-83034819D01*
X191208809Y-83034819D02*
X191113571Y-83177676D01*
X191113571Y-83177676D02*
X191018333Y-83272914D01*
X191018333Y-83272914D02*
X190923095Y-83320533D01*
X192351666Y-83034819D02*
X192161190Y-83034819D01*
X192161190Y-83034819D02*
X192065952Y-83082438D01*
X192065952Y-83082438D02*
X192018333Y-83130057D01*
X192018333Y-83130057D02*
X191923095Y-83272914D01*
X191923095Y-83272914D02*
X191875476Y-83463390D01*
X191875476Y-83463390D02*
X191875476Y-83844342D01*
X191875476Y-83844342D02*
X191923095Y-83939580D01*
X191923095Y-83939580D02*
X191970714Y-83987200D01*
X191970714Y-83987200D02*
X192065952Y-84034819D01*
X192065952Y-84034819D02*
X192256428Y-84034819D01*
X192256428Y-84034819D02*
X192351666Y-83987200D01*
X192351666Y-83987200D02*
X192399285Y-83939580D01*
X192399285Y-83939580D02*
X192446904Y-83844342D01*
X192446904Y-83844342D02*
X192446904Y-83606247D01*
X192446904Y-83606247D02*
X192399285Y-83511009D01*
X192399285Y-83511009D02*
X192351666Y-83463390D01*
X192351666Y-83463390D02*
X192256428Y-83415771D01*
X192256428Y-83415771D02*
X192065952Y-83415771D01*
X192065952Y-83415771D02*
X191970714Y-83463390D01*
X191970714Y-83463390D02*
X191923095Y-83511009D01*
X191923095Y-83511009D02*
X191875476Y-83606247D01*
X185042142Y-83939580D02*
X184994523Y-83987200D01*
X184994523Y-83987200D02*
X184851666Y-84034819D01*
X184851666Y-84034819D02*
X184756428Y-84034819D01*
X184756428Y-84034819D02*
X184613571Y-83987200D01*
X184613571Y-83987200D02*
X184518333Y-83891961D01*
X184518333Y-83891961D02*
X184470714Y-83796723D01*
X184470714Y-83796723D02*
X184423095Y-83606247D01*
X184423095Y-83606247D02*
X184423095Y-83463390D01*
X184423095Y-83463390D02*
X184470714Y-83272914D01*
X184470714Y-83272914D02*
X184518333Y-83177676D01*
X184518333Y-83177676D02*
X184613571Y-83082438D01*
X184613571Y-83082438D02*
X184756428Y-83034819D01*
X184756428Y-83034819D02*
X184851666Y-83034819D01*
X184851666Y-83034819D02*
X184994523Y-83082438D01*
X184994523Y-83082438D02*
X185042142Y-83130057D01*
X185994523Y-84034819D02*
X185423095Y-84034819D01*
X185708809Y-84034819D02*
X185708809Y-83034819D01*
X185708809Y-83034819D02*
X185613571Y-83177676D01*
X185613571Y-83177676D02*
X185518333Y-83272914D01*
X185518333Y-83272914D02*
X185423095Y-83320533D01*
X186899285Y-83034819D02*
X186423095Y-83034819D01*
X186423095Y-83034819D02*
X186375476Y-83511009D01*
X186375476Y-83511009D02*
X186423095Y-83463390D01*
X186423095Y-83463390D02*
X186518333Y-83415771D01*
X186518333Y-83415771D02*
X186756428Y-83415771D01*
X186756428Y-83415771D02*
X186851666Y-83463390D01*
X186851666Y-83463390D02*
X186899285Y-83511009D01*
X186899285Y-83511009D02*
X186946904Y-83606247D01*
X186946904Y-83606247D02*
X186946904Y-83844342D01*
X186946904Y-83844342D02*
X186899285Y-83939580D01*
X186899285Y-83939580D02*
X186851666Y-83987200D01*
X186851666Y-83987200D02*
X186756428Y-84034819D01*
X186756428Y-84034819D02*
X186518333Y-84034819D01*
X186518333Y-84034819D02*
X186423095Y-83987200D01*
X186423095Y-83987200D02*
X186375476Y-83939580D01*
X154727142Y-83859580D02*
X154679523Y-83907200D01*
X154679523Y-83907200D02*
X154536666Y-83954819D01*
X154536666Y-83954819D02*
X154441428Y-83954819D01*
X154441428Y-83954819D02*
X154298571Y-83907200D01*
X154298571Y-83907200D02*
X154203333Y-83811961D01*
X154203333Y-83811961D02*
X154155714Y-83716723D01*
X154155714Y-83716723D02*
X154108095Y-83526247D01*
X154108095Y-83526247D02*
X154108095Y-83383390D01*
X154108095Y-83383390D02*
X154155714Y-83192914D01*
X154155714Y-83192914D02*
X154203333Y-83097676D01*
X154203333Y-83097676D02*
X154298571Y-83002438D01*
X154298571Y-83002438D02*
X154441428Y-82954819D01*
X154441428Y-82954819D02*
X154536666Y-82954819D01*
X154536666Y-82954819D02*
X154679523Y-83002438D01*
X154679523Y-83002438D02*
X154727142Y-83050057D01*
X155679523Y-83954819D02*
X155108095Y-83954819D01*
X155393809Y-83954819D02*
X155393809Y-82954819D01*
X155393809Y-82954819D02*
X155298571Y-83097676D01*
X155298571Y-83097676D02*
X155203333Y-83192914D01*
X155203333Y-83192914D02*
X155108095Y-83240533D01*
X156536666Y-83288152D02*
X156536666Y-83954819D01*
X156298571Y-82907200D02*
X156060476Y-83621485D01*
X156060476Y-83621485D02*
X156679523Y-83621485D01*
X148977142Y-83859580D02*
X148929523Y-83907200D01*
X148929523Y-83907200D02*
X148786666Y-83954819D01*
X148786666Y-83954819D02*
X148691428Y-83954819D01*
X148691428Y-83954819D02*
X148548571Y-83907200D01*
X148548571Y-83907200D02*
X148453333Y-83811961D01*
X148453333Y-83811961D02*
X148405714Y-83716723D01*
X148405714Y-83716723D02*
X148358095Y-83526247D01*
X148358095Y-83526247D02*
X148358095Y-83383390D01*
X148358095Y-83383390D02*
X148405714Y-83192914D01*
X148405714Y-83192914D02*
X148453333Y-83097676D01*
X148453333Y-83097676D02*
X148548571Y-83002438D01*
X148548571Y-83002438D02*
X148691428Y-82954819D01*
X148691428Y-82954819D02*
X148786666Y-82954819D01*
X148786666Y-82954819D02*
X148929523Y-83002438D01*
X148929523Y-83002438D02*
X148977142Y-83050057D01*
X149929523Y-83954819D02*
X149358095Y-83954819D01*
X149643809Y-83954819D02*
X149643809Y-82954819D01*
X149643809Y-82954819D02*
X149548571Y-83097676D01*
X149548571Y-83097676D02*
X149453333Y-83192914D01*
X149453333Y-83192914D02*
X149358095Y-83240533D01*
X150262857Y-82954819D02*
X150881904Y-82954819D01*
X150881904Y-82954819D02*
X150548571Y-83335771D01*
X150548571Y-83335771D02*
X150691428Y-83335771D01*
X150691428Y-83335771D02*
X150786666Y-83383390D01*
X150786666Y-83383390D02*
X150834285Y-83431009D01*
X150834285Y-83431009D02*
X150881904Y-83526247D01*
X150881904Y-83526247D02*
X150881904Y-83764342D01*
X150881904Y-83764342D02*
X150834285Y-83859580D01*
X150834285Y-83859580D02*
X150786666Y-83907200D01*
X150786666Y-83907200D02*
X150691428Y-83954819D01*
X150691428Y-83954819D02*
X150405714Y-83954819D01*
X150405714Y-83954819D02*
X150310476Y-83907200D01*
X150310476Y-83907200D02*
X150262857Y-83859580D01*
X127542142Y-83859580D02*
X127494523Y-83907200D01*
X127494523Y-83907200D02*
X127351666Y-83954819D01*
X127351666Y-83954819D02*
X127256428Y-83954819D01*
X127256428Y-83954819D02*
X127113571Y-83907200D01*
X127113571Y-83907200D02*
X127018333Y-83811961D01*
X127018333Y-83811961D02*
X126970714Y-83716723D01*
X126970714Y-83716723D02*
X126923095Y-83526247D01*
X126923095Y-83526247D02*
X126923095Y-83383390D01*
X126923095Y-83383390D02*
X126970714Y-83192914D01*
X126970714Y-83192914D02*
X127018333Y-83097676D01*
X127018333Y-83097676D02*
X127113571Y-83002438D01*
X127113571Y-83002438D02*
X127256428Y-82954819D01*
X127256428Y-82954819D02*
X127351666Y-82954819D01*
X127351666Y-82954819D02*
X127494523Y-83002438D01*
X127494523Y-83002438D02*
X127542142Y-83050057D01*
X128494523Y-83954819D02*
X127923095Y-83954819D01*
X128208809Y-83954819D02*
X128208809Y-82954819D01*
X128208809Y-82954819D02*
X128113571Y-83097676D01*
X128113571Y-83097676D02*
X128018333Y-83192914D01*
X128018333Y-83192914D02*
X127923095Y-83240533D01*
X128875476Y-83050057D02*
X128923095Y-83002438D01*
X128923095Y-83002438D02*
X129018333Y-82954819D01*
X129018333Y-82954819D02*
X129256428Y-82954819D01*
X129256428Y-82954819D02*
X129351666Y-83002438D01*
X129351666Y-83002438D02*
X129399285Y-83050057D01*
X129399285Y-83050057D02*
X129446904Y-83145295D01*
X129446904Y-83145295D02*
X129446904Y-83240533D01*
X129446904Y-83240533D02*
X129399285Y-83383390D01*
X129399285Y-83383390D02*
X128827857Y-83954819D01*
X128827857Y-83954819D02*
X129446904Y-83954819D01*
X122607142Y-83794580D02*
X122559523Y-83842200D01*
X122559523Y-83842200D02*
X122416666Y-83889819D01*
X122416666Y-83889819D02*
X122321428Y-83889819D01*
X122321428Y-83889819D02*
X122178571Y-83842200D01*
X122178571Y-83842200D02*
X122083333Y-83746961D01*
X122083333Y-83746961D02*
X122035714Y-83651723D01*
X122035714Y-83651723D02*
X121988095Y-83461247D01*
X121988095Y-83461247D02*
X121988095Y-83318390D01*
X121988095Y-83318390D02*
X122035714Y-83127914D01*
X122035714Y-83127914D02*
X122083333Y-83032676D01*
X122083333Y-83032676D02*
X122178571Y-82937438D01*
X122178571Y-82937438D02*
X122321428Y-82889819D01*
X122321428Y-82889819D02*
X122416666Y-82889819D01*
X122416666Y-82889819D02*
X122559523Y-82937438D01*
X122559523Y-82937438D02*
X122607142Y-82985057D01*
X123559523Y-83889819D02*
X122988095Y-83889819D01*
X123273809Y-83889819D02*
X123273809Y-82889819D01*
X123273809Y-82889819D02*
X123178571Y-83032676D01*
X123178571Y-83032676D02*
X123083333Y-83127914D01*
X123083333Y-83127914D02*
X122988095Y-83175533D01*
X124511904Y-83889819D02*
X123940476Y-83889819D01*
X124226190Y-83889819D02*
X124226190Y-82889819D01*
X124226190Y-82889819D02*
X124130952Y-83032676D01*
X124130952Y-83032676D02*
X124035714Y-83127914D01*
X124035714Y-83127914D02*
X123940476Y-83175533D01*
X174607142Y-75109580D02*
X174559523Y-75157200D01*
X174559523Y-75157200D02*
X174416666Y-75204819D01*
X174416666Y-75204819D02*
X174321428Y-75204819D01*
X174321428Y-75204819D02*
X174178571Y-75157200D01*
X174178571Y-75157200D02*
X174083333Y-75061961D01*
X174083333Y-75061961D02*
X174035714Y-74966723D01*
X174035714Y-74966723D02*
X173988095Y-74776247D01*
X173988095Y-74776247D02*
X173988095Y-74633390D01*
X173988095Y-74633390D02*
X174035714Y-74442914D01*
X174035714Y-74442914D02*
X174083333Y-74347676D01*
X174083333Y-74347676D02*
X174178571Y-74252438D01*
X174178571Y-74252438D02*
X174321428Y-74204819D01*
X174321428Y-74204819D02*
X174416666Y-74204819D01*
X174416666Y-74204819D02*
X174559523Y-74252438D01*
X174559523Y-74252438D02*
X174607142Y-74300057D01*
X175559523Y-75204819D02*
X174988095Y-75204819D01*
X175273809Y-75204819D02*
X175273809Y-74204819D01*
X175273809Y-74204819D02*
X175178571Y-74347676D01*
X175178571Y-74347676D02*
X175083333Y-74442914D01*
X175083333Y-74442914D02*
X174988095Y-74490533D01*
X176178571Y-74204819D02*
X176273809Y-74204819D01*
X176273809Y-74204819D02*
X176369047Y-74252438D01*
X176369047Y-74252438D02*
X176416666Y-74300057D01*
X176416666Y-74300057D02*
X176464285Y-74395295D01*
X176464285Y-74395295D02*
X176511904Y-74585771D01*
X176511904Y-74585771D02*
X176511904Y-74823866D01*
X176511904Y-74823866D02*
X176464285Y-75014342D01*
X176464285Y-75014342D02*
X176416666Y-75109580D01*
X176416666Y-75109580D02*
X176369047Y-75157200D01*
X176369047Y-75157200D02*
X176273809Y-75204819D01*
X176273809Y-75204819D02*
X176178571Y-75204819D01*
X176178571Y-75204819D02*
X176083333Y-75157200D01*
X176083333Y-75157200D02*
X176035714Y-75109580D01*
X176035714Y-75109580D02*
X175988095Y-75014342D01*
X175988095Y-75014342D02*
X175940476Y-74823866D01*
X175940476Y-74823866D02*
X175940476Y-74585771D01*
X175940476Y-74585771D02*
X175988095Y-74395295D01*
X175988095Y-74395295D02*
X176035714Y-74300057D01*
X176035714Y-74300057D02*
X176083333Y-74252438D01*
X176083333Y-74252438D02*
X176178571Y-74204819D01*
X198833333Y-107859580D02*
X198785714Y-107907200D01*
X198785714Y-107907200D02*
X198642857Y-107954819D01*
X198642857Y-107954819D02*
X198547619Y-107954819D01*
X198547619Y-107954819D02*
X198404762Y-107907200D01*
X198404762Y-107907200D02*
X198309524Y-107811961D01*
X198309524Y-107811961D02*
X198261905Y-107716723D01*
X198261905Y-107716723D02*
X198214286Y-107526247D01*
X198214286Y-107526247D02*
X198214286Y-107383390D01*
X198214286Y-107383390D02*
X198261905Y-107192914D01*
X198261905Y-107192914D02*
X198309524Y-107097676D01*
X198309524Y-107097676D02*
X198404762Y-107002438D01*
X198404762Y-107002438D02*
X198547619Y-106954819D01*
X198547619Y-106954819D02*
X198642857Y-106954819D01*
X198642857Y-106954819D02*
X198785714Y-107002438D01*
X198785714Y-107002438D02*
X198833333Y-107050057D01*
X199309524Y-107954819D02*
X199500000Y-107954819D01*
X199500000Y-107954819D02*
X199595238Y-107907200D01*
X199595238Y-107907200D02*
X199642857Y-107859580D01*
X199642857Y-107859580D02*
X199738095Y-107716723D01*
X199738095Y-107716723D02*
X199785714Y-107526247D01*
X199785714Y-107526247D02*
X199785714Y-107145295D01*
X199785714Y-107145295D02*
X199738095Y-107050057D01*
X199738095Y-107050057D02*
X199690476Y-107002438D01*
X199690476Y-107002438D02*
X199595238Y-106954819D01*
X199595238Y-106954819D02*
X199404762Y-106954819D01*
X199404762Y-106954819D02*
X199309524Y-107002438D01*
X199309524Y-107002438D02*
X199261905Y-107050057D01*
X199261905Y-107050057D02*
X199214286Y-107145295D01*
X199214286Y-107145295D02*
X199214286Y-107383390D01*
X199214286Y-107383390D02*
X199261905Y-107478628D01*
X199261905Y-107478628D02*
X199309524Y-107526247D01*
X199309524Y-107526247D02*
X199404762Y-107573866D01*
X199404762Y-107573866D02*
X199595238Y-107573866D01*
X199595238Y-107573866D02*
X199690476Y-107526247D01*
X199690476Y-107526247D02*
X199738095Y-107478628D01*
X199738095Y-107478628D02*
X199785714Y-107383390D01*
X198833333Y-101172080D02*
X198785714Y-101219700D01*
X198785714Y-101219700D02*
X198642857Y-101267319D01*
X198642857Y-101267319D02*
X198547619Y-101267319D01*
X198547619Y-101267319D02*
X198404762Y-101219700D01*
X198404762Y-101219700D02*
X198309524Y-101124461D01*
X198309524Y-101124461D02*
X198261905Y-101029223D01*
X198261905Y-101029223D02*
X198214286Y-100838747D01*
X198214286Y-100838747D02*
X198214286Y-100695890D01*
X198214286Y-100695890D02*
X198261905Y-100505414D01*
X198261905Y-100505414D02*
X198309524Y-100410176D01*
X198309524Y-100410176D02*
X198404762Y-100314938D01*
X198404762Y-100314938D02*
X198547619Y-100267319D01*
X198547619Y-100267319D02*
X198642857Y-100267319D01*
X198642857Y-100267319D02*
X198785714Y-100314938D01*
X198785714Y-100314938D02*
X198833333Y-100362557D01*
X199404762Y-100695890D02*
X199309524Y-100648271D01*
X199309524Y-100648271D02*
X199261905Y-100600652D01*
X199261905Y-100600652D02*
X199214286Y-100505414D01*
X199214286Y-100505414D02*
X199214286Y-100457795D01*
X199214286Y-100457795D02*
X199261905Y-100362557D01*
X199261905Y-100362557D02*
X199309524Y-100314938D01*
X199309524Y-100314938D02*
X199404762Y-100267319D01*
X199404762Y-100267319D02*
X199595238Y-100267319D01*
X199595238Y-100267319D02*
X199690476Y-100314938D01*
X199690476Y-100314938D02*
X199738095Y-100362557D01*
X199738095Y-100362557D02*
X199785714Y-100457795D01*
X199785714Y-100457795D02*
X199785714Y-100505414D01*
X199785714Y-100505414D02*
X199738095Y-100600652D01*
X199738095Y-100600652D02*
X199690476Y-100648271D01*
X199690476Y-100648271D02*
X199595238Y-100695890D01*
X199595238Y-100695890D02*
X199404762Y-100695890D01*
X199404762Y-100695890D02*
X199309524Y-100743509D01*
X199309524Y-100743509D02*
X199261905Y-100791128D01*
X199261905Y-100791128D02*
X199214286Y-100886366D01*
X199214286Y-100886366D02*
X199214286Y-101076842D01*
X199214286Y-101076842D02*
X199261905Y-101172080D01*
X199261905Y-101172080D02*
X199309524Y-101219700D01*
X199309524Y-101219700D02*
X199404762Y-101267319D01*
X199404762Y-101267319D02*
X199595238Y-101267319D01*
X199595238Y-101267319D02*
X199690476Y-101219700D01*
X199690476Y-101219700D02*
X199738095Y-101172080D01*
X199738095Y-101172080D02*
X199785714Y-101076842D01*
X199785714Y-101076842D02*
X199785714Y-100886366D01*
X199785714Y-100886366D02*
X199738095Y-100791128D01*
X199738095Y-100791128D02*
X199690476Y-100743509D01*
X199690476Y-100743509D02*
X199595238Y-100695890D01*
X198833333Y-94484580D02*
X198785714Y-94532200D01*
X198785714Y-94532200D02*
X198642857Y-94579819D01*
X198642857Y-94579819D02*
X198547619Y-94579819D01*
X198547619Y-94579819D02*
X198404762Y-94532200D01*
X198404762Y-94532200D02*
X198309524Y-94436961D01*
X198309524Y-94436961D02*
X198261905Y-94341723D01*
X198261905Y-94341723D02*
X198214286Y-94151247D01*
X198214286Y-94151247D02*
X198214286Y-94008390D01*
X198214286Y-94008390D02*
X198261905Y-93817914D01*
X198261905Y-93817914D02*
X198309524Y-93722676D01*
X198309524Y-93722676D02*
X198404762Y-93627438D01*
X198404762Y-93627438D02*
X198547619Y-93579819D01*
X198547619Y-93579819D02*
X198642857Y-93579819D01*
X198642857Y-93579819D02*
X198785714Y-93627438D01*
X198785714Y-93627438D02*
X198833333Y-93675057D01*
X199166667Y-93579819D02*
X199833333Y-93579819D01*
X199833333Y-93579819D02*
X199404762Y-94579819D01*
X125518333Y-108046826D02*
X125470714Y-108094446D01*
X125470714Y-108094446D02*
X125327857Y-108142065D01*
X125327857Y-108142065D02*
X125232619Y-108142065D01*
X125232619Y-108142065D02*
X125089762Y-108094446D01*
X125089762Y-108094446D02*
X124994524Y-107999207D01*
X124994524Y-107999207D02*
X124946905Y-107903969D01*
X124946905Y-107903969D02*
X124899286Y-107713493D01*
X124899286Y-107713493D02*
X124899286Y-107570636D01*
X124899286Y-107570636D02*
X124946905Y-107380160D01*
X124946905Y-107380160D02*
X124994524Y-107284922D01*
X124994524Y-107284922D02*
X125089762Y-107189684D01*
X125089762Y-107189684D02*
X125232619Y-107142065D01*
X125232619Y-107142065D02*
X125327857Y-107142065D01*
X125327857Y-107142065D02*
X125470714Y-107189684D01*
X125470714Y-107189684D02*
X125518333Y-107237303D01*
X125899286Y-107237303D02*
X125946905Y-107189684D01*
X125946905Y-107189684D02*
X126042143Y-107142065D01*
X126042143Y-107142065D02*
X126280238Y-107142065D01*
X126280238Y-107142065D02*
X126375476Y-107189684D01*
X126375476Y-107189684D02*
X126423095Y-107237303D01*
X126423095Y-107237303D02*
X126470714Y-107332541D01*
X126470714Y-107332541D02*
X126470714Y-107427779D01*
X126470714Y-107427779D02*
X126423095Y-107570636D01*
X126423095Y-107570636D02*
X125851667Y-108142065D01*
X125851667Y-108142065D02*
X126470714Y-108142065D01*
X125518333Y-102046826D02*
X125470714Y-102094446D01*
X125470714Y-102094446D02*
X125327857Y-102142065D01*
X125327857Y-102142065D02*
X125232619Y-102142065D01*
X125232619Y-102142065D02*
X125089762Y-102094446D01*
X125089762Y-102094446D02*
X124994524Y-101999207D01*
X124994524Y-101999207D02*
X124946905Y-101903969D01*
X124946905Y-101903969D02*
X124899286Y-101713493D01*
X124899286Y-101713493D02*
X124899286Y-101570636D01*
X124899286Y-101570636D02*
X124946905Y-101380160D01*
X124946905Y-101380160D02*
X124994524Y-101284922D01*
X124994524Y-101284922D02*
X125089762Y-101189684D01*
X125089762Y-101189684D02*
X125232619Y-101142065D01*
X125232619Y-101142065D02*
X125327857Y-101142065D01*
X125327857Y-101142065D02*
X125470714Y-101189684D01*
X125470714Y-101189684D02*
X125518333Y-101237303D01*
X126470714Y-102142065D02*
X125899286Y-102142065D01*
X126185000Y-102142065D02*
X126185000Y-101142065D01*
X126185000Y-101142065D02*
X126089762Y-101284922D01*
X126089762Y-101284922D02*
X125994524Y-101380160D01*
X125994524Y-101380160D02*
X125899286Y-101427779D01*
X185904761Y-75289819D02*
X185571428Y-74813628D01*
X185333333Y-75289819D02*
X185333333Y-74289819D01*
X185333333Y-74289819D02*
X185714285Y-74289819D01*
X185714285Y-74289819D02*
X185809523Y-74337438D01*
X185809523Y-74337438D02*
X185857142Y-74385057D01*
X185857142Y-74385057D02*
X185904761Y-74480295D01*
X185904761Y-74480295D02*
X185904761Y-74623152D01*
X185904761Y-74623152D02*
X185857142Y-74718390D01*
X185857142Y-74718390D02*
X185809523Y-74766009D01*
X185809523Y-74766009D02*
X185714285Y-74813628D01*
X185714285Y-74813628D02*
X185333333Y-74813628D01*
X186190476Y-74289819D02*
X186523809Y-75289819D01*
X186523809Y-75289819D02*
X186857142Y-74289819D01*
X187714285Y-75289819D02*
X187142857Y-75289819D01*
X187428571Y-75289819D02*
X187428571Y-74289819D01*
X187428571Y-74289819D02*
X187333333Y-74432676D01*
X187333333Y-74432676D02*
X187238095Y-74527914D01*
X187238095Y-74527914D02*
X187142857Y-74575533D01*
X174357142Y-84084819D02*
X174023809Y-83608628D01*
X173785714Y-84084819D02*
X173785714Y-83084819D01*
X173785714Y-83084819D02*
X174166666Y-83084819D01*
X174166666Y-83084819D02*
X174261904Y-83132438D01*
X174261904Y-83132438D02*
X174309523Y-83180057D01*
X174309523Y-83180057D02*
X174357142Y-83275295D01*
X174357142Y-83275295D02*
X174357142Y-83418152D01*
X174357142Y-83418152D02*
X174309523Y-83513390D01*
X174309523Y-83513390D02*
X174261904Y-83561009D01*
X174261904Y-83561009D02*
X174166666Y-83608628D01*
X174166666Y-83608628D02*
X173785714Y-83608628D01*
X175309523Y-84084819D02*
X174738095Y-84084819D01*
X175023809Y-84084819D02*
X175023809Y-83084819D01*
X175023809Y-83084819D02*
X174928571Y-83227676D01*
X174928571Y-83227676D02*
X174833333Y-83322914D01*
X174833333Y-83322914D02*
X174738095Y-83370533D01*
X175690476Y-83180057D02*
X175738095Y-83132438D01*
X175738095Y-83132438D02*
X175833333Y-83084819D01*
X175833333Y-83084819D02*
X176071428Y-83084819D01*
X176071428Y-83084819D02*
X176166666Y-83132438D01*
X176166666Y-83132438D02*
X176214285Y-83180057D01*
X176214285Y-83180057D02*
X176261904Y-83275295D01*
X176261904Y-83275295D02*
X176261904Y-83370533D01*
X176261904Y-83370533D02*
X176214285Y-83513390D01*
X176214285Y-83513390D02*
X175642857Y-84084819D01*
X175642857Y-84084819D02*
X176261904Y-84084819D01*
X138357142Y-109084819D02*
X138023809Y-108608628D01*
X137785714Y-109084819D02*
X137785714Y-108084819D01*
X137785714Y-108084819D02*
X138166666Y-108084819D01*
X138166666Y-108084819D02*
X138261904Y-108132438D01*
X138261904Y-108132438D02*
X138309523Y-108180057D01*
X138309523Y-108180057D02*
X138357142Y-108275295D01*
X138357142Y-108275295D02*
X138357142Y-108418152D01*
X138357142Y-108418152D02*
X138309523Y-108513390D01*
X138309523Y-108513390D02*
X138261904Y-108561009D01*
X138261904Y-108561009D02*
X138166666Y-108608628D01*
X138166666Y-108608628D02*
X137785714Y-108608628D01*
X139309523Y-109084819D02*
X138738095Y-109084819D01*
X139023809Y-109084819D02*
X139023809Y-108084819D01*
X139023809Y-108084819D02*
X138928571Y-108227676D01*
X138928571Y-108227676D02*
X138833333Y-108322914D01*
X138833333Y-108322914D02*
X138738095Y-108370533D01*
X140261904Y-109084819D02*
X139690476Y-109084819D01*
X139976190Y-109084819D02*
X139976190Y-108084819D01*
X139976190Y-108084819D02*
X139880952Y-108227676D01*
X139880952Y-108227676D02*
X139785714Y-108322914D01*
X139785714Y-108322914D02*
X139690476Y-108370533D01*
D12*
%TO.C,INA*%
X131200000Y-79000000D02*
G75*
G02*
X128800000Y-79000000I-1200000J0D01*
G01*
X128800000Y-79000000D02*
G75*
G02*
X131200000Y-79000000I1200000J0D01*
G01*
%TO.C,R2*%
X109230000Y-89630000D02*
X115770000Y-89630000D01*
X115770000Y-92370000D01*
X109230000Y-92370000D01*
X109230000Y-89630000D01*
X116540000Y-91000000D02*
X115770000Y-91000000D01*
X108460000Y-91000000D02*
X109230000Y-91000000D01*
%TO.C,R5*%
X109230000Y-104630000D02*
X115770000Y-104630000D01*
X115770000Y-107370000D01*
X109230000Y-107370000D01*
X109230000Y-104630000D01*
X116540000Y-106000000D02*
X115770000Y-106000000D01*
X108460000Y-106000000D02*
X109230000Y-106000000D01*
%TO.C,J2*%
X108580000Y-112380000D02*
X108580000Y-111000000D01*
X109960000Y-112380000D02*
X108580000Y-112380000D01*
X111230000Y-112380000D02*
X116420000Y-112380000D01*
X111230000Y-112380000D02*
X111230000Y-109620000D01*
X116420000Y-112380000D02*
X116420000Y-109620000D01*
X111230000Y-109620000D02*
X116420000Y-109620000D01*
%TO.C,R4*%
X109230000Y-99630000D02*
X115770000Y-99630000D01*
X115770000Y-102370000D01*
X109230000Y-102370000D01*
X109230000Y-99630000D01*
X116540000Y-101000000D02*
X115770000Y-101000000D01*
X108460000Y-101000000D02*
X109230000Y-101000000D01*
%TO.C,R3*%
X109230000Y-94630000D02*
X115770000Y-94630000D01*
X115770000Y-97370000D01*
X109230000Y-97370000D01*
X109230000Y-94630000D01*
X116540000Y-96000000D02*
X115770000Y-96000000D01*
X108460000Y-96000000D02*
X109230000Y-96000000D01*
%TO.C,R1*%
X109230000Y-84630000D02*
X115770000Y-84630000D01*
X115770000Y-87370000D01*
X109230000Y-87370000D01*
X109230000Y-84630000D01*
X116540000Y-86000000D02*
X115770000Y-86000000D01*
X108460000Y-86000000D02*
X109230000Y-86000000D01*
%TO.C,C4*%
X166720000Y-96303333D02*
X159280000Y-96303333D01*
X166720000Y-92563333D02*
X166720000Y-96303333D01*
X159280000Y-96303333D02*
X159280000Y-92563333D01*
X159280000Y-92563333D02*
X166720000Y-92563333D01*
%TO.C,C3*%
X166720000Y-88270000D02*
X159280000Y-88270000D01*
X166720000Y-84530000D02*
X166720000Y-88270000D01*
X159280000Y-88270000D02*
X159280000Y-84530000D01*
X159280000Y-84530000D02*
X166720000Y-84530000D01*
%TO.C,C5*%
X166720000Y-104336667D02*
X159280000Y-104336667D01*
X166720000Y-100596667D02*
X166720000Y-104336667D01*
X159280000Y-104336667D02*
X159280000Y-100596667D01*
X159280000Y-100596667D02*
X166720000Y-100596667D01*
%TO.C,C6*%
X166720000Y-112370000D02*
X159280000Y-112370000D01*
X166720000Y-108630000D02*
X166720000Y-112370000D01*
X159280000Y-112370000D02*
X159280000Y-108630000D01*
X159280000Y-108630000D02*
X166720000Y-108630000D01*
%TO.C,R6*%
X135730000Y-84630000D02*
X142270000Y-84630000D01*
X142270000Y-87370000D01*
X135730000Y-87370000D01*
X135730000Y-84630000D01*
X143040000Y-86000000D02*
X142270000Y-86000000D01*
X134960000Y-86000000D02*
X135730000Y-86000000D01*
%TO.C,R8*%
X135730000Y-94630000D02*
X142270000Y-94630000D01*
X142270000Y-97370000D01*
X135730000Y-97370000D01*
X135730000Y-94630000D01*
X143040000Y-96000000D02*
X142270000Y-96000000D01*
X134960000Y-96000000D02*
X135730000Y-96000000D01*
%TO.C,R7*%
X135730000Y-89630000D02*
X142270000Y-89630000D01*
X142270000Y-92370000D01*
X135730000Y-92370000D01*
X135730000Y-89630000D01*
X143040000Y-91000000D02*
X142270000Y-91000000D01*
X134960000Y-91000000D02*
X135730000Y-91000000D01*
%TO.C,R10*%
X135730000Y-104630000D02*
X142270000Y-104630000D01*
X142270000Y-107370000D01*
X135730000Y-107370000D01*
X135730000Y-104630000D01*
X143040000Y-106000000D02*
X142270000Y-106000000D01*
X134960000Y-106000000D02*
X135730000Y-106000000D01*
%TO.C,R9*%
X135730000Y-99630000D02*
X142270000Y-99630000D01*
X142270000Y-102370000D01*
X135730000Y-102370000D01*
X135730000Y-99630000D01*
X143040000Y-101000000D02*
X142270000Y-101000000D01*
X134960000Y-101000000D02*
X135730000Y-101000000D01*
%TO.C,U3*%
X185660000Y-94430000D02*
X185660000Y-112330000D01*
X185660000Y-112330000D02*
X190960000Y-112330000D01*
X187310000Y-94430000D02*
X185660000Y-94430000D01*
X190960000Y-94430000D02*
X189310000Y-94430000D01*
X190960000Y-112330000D02*
X190960000Y-94430000D01*
X189310000Y-94430000D02*
G75*
G02*
X187310000Y-94430000I-1000000J0D01*
G01*
%TO.C,U2*%
X149660000Y-94430000D02*
X149660000Y-112330000D01*
X149660000Y-112330000D02*
X154960000Y-112330000D01*
X151310000Y-94430000D02*
X149660000Y-94430000D01*
X154960000Y-94430000D02*
X153310000Y-94430000D01*
X154960000Y-112330000D02*
X154960000Y-94430000D01*
X153310000Y-94430000D02*
G75*
G02*
X151310000Y-94430000I-1000000J0D01*
G01*
%TO.C,U1*%
X123040000Y-90130000D02*
X123040000Y-100410000D01*
X123040000Y-100410000D02*
X128340000Y-100410000D01*
X124690000Y-90130000D02*
X123040000Y-90130000D01*
X128340000Y-90130000D02*
X126690000Y-90130000D01*
X128340000Y-100410000D02*
X128340000Y-90130000D01*
X126690000Y-90130000D02*
G75*
G02*
X124690000Y-90130000I-1000000J0D01*
G01*
%TO.C,OUT*%
X168700000Y-79000000D02*
G75*
G02*
X166300000Y-79000000I-1200000J0D01*
G01*
X166300000Y-79000000D02*
G75*
G02*
X168700000Y-79000000I1200000J0D01*
G01*
%TO.C,NOTCH*%
X156200000Y-79000000D02*
G75*
G02*
X153800000Y-79000000I-1200000J0D01*
G01*
X153800000Y-79000000D02*
G75*
G02*
X156200000Y-79000000I1200000J0D01*
G01*
%TO.C,LPF*%
X149950000Y-79000000D02*
G75*
G02*
X147550000Y-79000000I-1200000J0D01*
G01*
X147550000Y-79000000D02*
G75*
G02*
X149950000Y-79000000I1200000J0D01*
G01*
%TO.C,HPF*%
X137450000Y-79000000D02*
G75*
G02*
X135050000Y-79000000I-1200000J0D01*
G01*
X135050000Y-79000000D02*
G75*
G02*
X137450000Y-79000000I1200000J0D01*
G01*
%TO.C,R17*%
X170960000Y-111000000D02*
X171730000Y-111000000D01*
X179040000Y-111000000D02*
X178270000Y-111000000D01*
X171730000Y-109630000D02*
X178270000Y-109630000D01*
X178270000Y-112370000D01*
X171730000Y-112370000D01*
X171730000Y-109630000D01*
%TO.C,R16*%
X170960000Y-106000000D02*
X171730000Y-106000000D01*
X179040000Y-106000000D02*
X178270000Y-106000000D01*
X171730000Y-104630000D02*
X178270000Y-104630000D01*
X178270000Y-107370000D01*
X171730000Y-107370000D01*
X171730000Y-104630000D01*
%TO.C,R15*%
X170960000Y-101000000D02*
X171730000Y-101000000D01*
X179040000Y-101000000D02*
X178270000Y-101000000D01*
X171730000Y-99630000D02*
X178270000Y-99630000D01*
X178270000Y-102370000D01*
X171730000Y-102370000D01*
X171730000Y-99630000D01*
%TO.C,R14*%
X171040000Y-96000000D02*
X171810000Y-96000000D01*
X179120000Y-96000000D02*
X178350000Y-96000000D01*
X171810000Y-94630000D02*
X178350000Y-94630000D01*
X178350000Y-97370000D01*
X171810000Y-97370000D01*
X171810000Y-94630000D01*
%TO.C,R13*%
X170960000Y-91000000D02*
X171730000Y-91000000D01*
X179040000Y-91000000D02*
X178270000Y-91000000D01*
X171730000Y-89630000D02*
X178270000Y-89630000D01*
X178270000Y-92370000D01*
X171730000Y-92370000D01*
X171730000Y-89630000D01*
%TO.C,J3*%
X198020000Y-79805000D02*
X200620000Y-79805000D01*
X198020000Y-79805000D02*
X198020000Y-77145000D01*
X200620000Y-79805000D02*
X200620000Y-77145000D01*
X195420000Y-78475000D02*
X195420000Y-77145000D01*
X195420000Y-77145000D02*
X196750000Y-77145000D01*
X198020000Y-77145000D02*
X200620000Y-77145000D01*
%TO.C,J1*%
X109880000Y-74690000D02*
X125120000Y-74690000D01*
X109880000Y-81040000D02*
X125120000Y-81040000D01*
X109880000Y-82310000D02*
X109880000Y-74690000D01*
X109880000Y-82310000D02*
X125120000Y-82310000D01*
X125120000Y-82310000D02*
X125120000Y-74690000D01*
%TO.C,GND*%
X162450000Y-79000000D02*
G75*
G02*
X160050000Y-79000000I-1200000J0D01*
G01*
X160050000Y-79000000D02*
G75*
G02*
X162450000Y-79000000I1200000J0D01*
G01*
X143700000Y-79000000D02*
G75*
G02*
X141300000Y-79000000I-1200000J0D01*
G01*
X141300000Y-79000000D02*
G75*
G02*
X143700000Y-79000000I1200000J0D01*
G01*
%TO.C,D2*%
X196230000Y-91187500D02*
X196880000Y-91187500D01*
X197480000Y-90067500D02*
X197480000Y-92307500D01*
X197600000Y-90067500D02*
X197600000Y-92307500D01*
X197720000Y-90067500D02*
X197720000Y-92307500D01*
X201770000Y-91187500D02*
X201120000Y-91187500D01*
X196880000Y-90067500D02*
X201120000Y-90067500D01*
X201120000Y-92307500D01*
X196880000Y-92307500D01*
X196880000Y-90067500D01*
%TO.C,D1*%
X196230000Y-86000000D02*
X196880000Y-86000000D01*
X197480000Y-84880000D02*
X197480000Y-87120000D01*
X197600000Y-84880000D02*
X197600000Y-87120000D01*
X197720000Y-84880000D02*
X197720000Y-87120000D01*
X201770000Y-86000000D02*
X201120000Y-86000000D01*
X196880000Y-84880000D02*
X201120000Y-84880000D01*
X201120000Y-87120000D01*
X196880000Y-87120000D01*
X196880000Y-84880000D01*
%TO.C,C16*%
X189065000Y-84710000D02*
X193305000Y-84710000D01*
X189065000Y-85510000D02*
X189065000Y-84710000D01*
X189065000Y-87450000D02*
X189065000Y-86650000D01*
X193305000Y-84710000D02*
X193305000Y-85510000D01*
X193305000Y-86650000D02*
X193305000Y-87450000D01*
X193305000Y-87450000D02*
X189065000Y-87450000D01*
%TO.C,C15*%
X183565000Y-84710000D02*
X187805000Y-84710000D01*
X183565000Y-85510000D02*
X183565000Y-84710000D01*
X183565000Y-87450000D02*
X183565000Y-86650000D01*
X187805000Y-84710000D02*
X187805000Y-85510000D01*
X187805000Y-86650000D02*
X187805000Y-87450000D01*
X187805000Y-87450000D02*
X183565000Y-87450000D01*
%TO.C,C14*%
X153250000Y-84630000D02*
X157490000Y-84630000D01*
X153250000Y-85430000D02*
X153250000Y-84630000D01*
X153250000Y-87370000D02*
X153250000Y-86570000D01*
X157490000Y-84630000D02*
X157490000Y-85430000D01*
X157490000Y-86570000D02*
X157490000Y-87370000D01*
X157490000Y-87370000D02*
X153250000Y-87370000D01*
%TO.C,C13*%
X147500000Y-84630000D02*
X151740000Y-84630000D01*
X147500000Y-85430000D02*
X147500000Y-84630000D01*
X147500000Y-87370000D02*
X147500000Y-86570000D01*
X151740000Y-84630000D02*
X151740000Y-85430000D01*
X151740000Y-86570000D02*
X151740000Y-87370000D01*
X151740000Y-87370000D02*
X147500000Y-87370000D01*
%TO.C,C12*%
X126065000Y-84630000D02*
X130305000Y-84630000D01*
X126065000Y-85430000D02*
X126065000Y-84630000D01*
X126065000Y-87370000D02*
X126065000Y-86570000D01*
X130305000Y-84630000D02*
X130305000Y-85430000D01*
X130305000Y-86570000D02*
X130305000Y-87370000D01*
X130305000Y-87370000D02*
X126065000Y-87370000D01*
%TO.C,C11*%
X121065000Y-84630000D02*
X125305000Y-84630000D01*
X121065000Y-85430000D02*
X121065000Y-84630000D01*
X121065000Y-87370000D02*
X121065000Y-86570000D01*
X125305000Y-84630000D02*
X125305000Y-85430000D01*
X125305000Y-86570000D02*
X125305000Y-87370000D01*
X125305000Y-87370000D02*
X121065000Y-87370000D01*
%TO.C,C10*%
X172445225Y-77025000D02*
X172945225Y-77025000D01*
X172695225Y-76775000D02*
X172695225Y-77275000D01*
X175250000Y-75920000D02*
X175250000Y-81080000D01*
X175290000Y-75920000D02*
X175290000Y-81080000D01*
X175330000Y-75921000D02*
X175330000Y-81079000D01*
X175370000Y-75923000D02*
X175370000Y-81077000D01*
X175410000Y-75925000D02*
X175410000Y-81075000D01*
X175450000Y-75928000D02*
X175450000Y-81072000D01*
X175490000Y-75931000D02*
X175490000Y-77460000D01*
X175490000Y-79540000D02*
X175490000Y-81069000D01*
X175530000Y-75935000D02*
X175530000Y-77460000D01*
X175530000Y-79540000D02*
X175530000Y-81065000D01*
X175570000Y-75940000D02*
X175570000Y-77460000D01*
X175570000Y-79540000D02*
X175570000Y-81060000D01*
X175610000Y-75945000D02*
X175610000Y-77460000D01*
X175610000Y-79540000D02*
X175610000Y-81055000D01*
X175650000Y-75951000D02*
X175650000Y-77460000D01*
X175650000Y-79540000D02*
X175650000Y-81049000D01*
X175690000Y-75957000D02*
X175690000Y-77460000D01*
X175690000Y-79540000D02*
X175690000Y-81043000D01*
X175730000Y-75964000D02*
X175730000Y-77460000D01*
X175730000Y-79540000D02*
X175730000Y-81036000D01*
X175770000Y-75972000D02*
X175770000Y-77460000D01*
X175770000Y-79540000D02*
X175770000Y-81028000D01*
X175810000Y-75981000D02*
X175810000Y-77460000D01*
X175810000Y-79540000D02*
X175810000Y-81019000D01*
X175850000Y-75990000D02*
X175850000Y-77460000D01*
X175850000Y-79540000D02*
X175850000Y-81010000D01*
X175890000Y-75999000D02*
X175890000Y-77460000D01*
X175890000Y-79540000D02*
X175890000Y-81001000D01*
X175930000Y-76010000D02*
X175930000Y-77460000D01*
X175930000Y-79540000D02*
X175930000Y-80990000D01*
X175970000Y-76021000D02*
X175970000Y-77460000D01*
X175970000Y-79540000D02*
X175970000Y-80979000D01*
X176010000Y-76033000D02*
X176010000Y-77460000D01*
X176010000Y-79540000D02*
X176010000Y-80967000D01*
X176050000Y-76045000D02*
X176050000Y-77460000D01*
X176050000Y-79540000D02*
X176050000Y-80955000D01*
X176090000Y-76058000D02*
X176090000Y-77460000D01*
X176090000Y-79540000D02*
X176090000Y-80942000D01*
X176130000Y-76072000D02*
X176130000Y-77460000D01*
X176130000Y-79540000D02*
X176130000Y-80928000D01*
X176170000Y-76087000D02*
X176170000Y-77460000D01*
X176170000Y-79540000D02*
X176170000Y-80913000D01*
X176210000Y-76102000D02*
X176210000Y-77460000D01*
X176210000Y-79540000D02*
X176210000Y-80898000D01*
X176250000Y-76118000D02*
X176250000Y-77460000D01*
X176250000Y-79540000D02*
X176250000Y-80882000D01*
X176290000Y-76135000D02*
X176290000Y-77460000D01*
X176290000Y-79540000D02*
X176290000Y-80865000D01*
X176330000Y-76153000D02*
X176330000Y-77460000D01*
X176330000Y-79540000D02*
X176330000Y-80847000D01*
X176370000Y-76171000D02*
X176370000Y-77460000D01*
X176370000Y-79540000D02*
X176370000Y-80829000D01*
X176410000Y-76191000D02*
X176410000Y-77460000D01*
X176410000Y-79540000D02*
X176410000Y-80809000D01*
X176450000Y-76211000D02*
X176450000Y-77460000D01*
X176450000Y-79540000D02*
X176450000Y-80789000D01*
X176490000Y-76232000D02*
X176490000Y-77460000D01*
X176490000Y-79540000D02*
X176490000Y-80768000D01*
X176530000Y-76254000D02*
X176530000Y-77460000D01*
X176530000Y-79540000D02*
X176530000Y-80746000D01*
X176570000Y-76277000D02*
X176570000Y-77460000D01*
X176570000Y-79540000D02*
X176570000Y-80723000D01*
X176610000Y-76301000D02*
X176610000Y-77460000D01*
X176610000Y-79540000D02*
X176610000Y-80699000D01*
X176650000Y-76325000D02*
X176650000Y-77460000D01*
X176650000Y-79540000D02*
X176650000Y-80675000D01*
X176690000Y-76351000D02*
X176690000Y-77460000D01*
X176690000Y-79540000D02*
X176690000Y-80649000D01*
X176730000Y-76378000D02*
X176730000Y-77460000D01*
X176730000Y-79540000D02*
X176730000Y-80622000D01*
X176770000Y-76406000D02*
X176770000Y-77460000D01*
X176770000Y-79540000D02*
X176770000Y-80594000D01*
X176810000Y-76435000D02*
X176810000Y-77460000D01*
X176810000Y-79540000D02*
X176810000Y-80565000D01*
X176850000Y-76465000D02*
X176850000Y-77460000D01*
X176850000Y-79540000D02*
X176850000Y-80535000D01*
X176890000Y-76497000D02*
X176890000Y-77460000D01*
X176890000Y-79540000D02*
X176890000Y-80503000D01*
X176930000Y-76530000D02*
X176930000Y-77460000D01*
X176930000Y-79540000D02*
X176930000Y-80470000D01*
X176970000Y-76564000D02*
X176970000Y-77460000D01*
X176970000Y-79540000D02*
X176970000Y-80436000D01*
X177010000Y-76599000D02*
X177010000Y-77460000D01*
X177010000Y-79540000D02*
X177010000Y-80401000D01*
X177050000Y-76636000D02*
X177050000Y-77460000D01*
X177050000Y-79540000D02*
X177050000Y-80364000D01*
X177090000Y-76675000D02*
X177090000Y-77460000D01*
X177090000Y-79540000D02*
X177090000Y-80325000D01*
X177130000Y-76715000D02*
X177130000Y-77460000D01*
X177130000Y-79540000D02*
X177130000Y-80285000D01*
X177170000Y-76757000D02*
X177170000Y-77460000D01*
X177170000Y-79540000D02*
X177170000Y-80243000D01*
X177210000Y-76801000D02*
X177210000Y-77460000D01*
X177210000Y-79540000D02*
X177210000Y-80199000D01*
X177250000Y-76848000D02*
X177250000Y-77460000D01*
X177250000Y-79540000D02*
X177250000Y-80152000D01*
X177290000Y-76896000D02*
X177290000Y-77460000D01*
X177290000Y-79540000D02*
X177290000Y-80104000D01*
X177330000Y-76947000D02*
X177330000Y-77460000D01*
X177330000Y-79540000D02*
X177330000Y-80053000D01*
X177370000Y-77001000D02*
X177370000Y-77460000D01*
X177370000Y-79540000D02*
X177370000Y-79999000D01*
X177410000Y-77057000D02*
X177410000Y-77460000D01*
X177410000Y-79540000D02*
X177410000Y-79943000D01*
X177450000Y-77117000D02*
X177450000Y-77460000D01*
X177450000Y-79540000D02*
X177450000Y-79883000D01*
X177490000Y-77181000D02*
X177490000Y-77460000D01*
X177490000Y-79540000D02*
X177490000Y-79819000D01*
X177530000Y-77249000D02*
X177530000Y-77460000D01*
X177530000Y-79540000D02*
X177530000Y-79751000D01*
X177570000Y-77323000D02*
X177570000Y-79677000D01*
X177610000Y-77402000D02*
X177610000Y-79598000D01*
X177650000Y-77489000D02*
X177650000Y-79511000D01*
X177690000Y-77586000D02*
X177690000Y-79414000D01*
X177730000Y-77695000D02*
X177730000Y-79305000D01*
X177770000Y-77823000D02*
X177770000Y-79177000D01*
X177810000Y-77983000D02*
X177810000Y-79017000D01*
X177850000Y-78217000D02*
X177850000Y-78783000D01*
X177870000Y-78500000D02*
G75*
G02*
X172630000Y-78500000I-2620000J0D01*
G01*
X172630000Y-78500000D02*
G75*
G02*
X177870000Y-78500000I2620000J0D01*
G01*
%TO.C,C9*%
X195280000Y-108630000D02*
X202720000Y-108630000D01*
X195280000Y-112370000D02*
X195280000Y-108630000D01*
X202720000Y-108630000D02*
X202720000Y-112370000D01*
X202720000Y-112370000D02*
X195280000Y-112370000D01*
%TO.C,C8*%
X195280000Y-101942500D02*
X202720000Y-101942500D01*
X195280000Y-105682500D02*
X195280000Y-101942500D01*
X202720000Y-101942500D02*
X202720000Y-105682500D01*
X202720000Y-105682500D02*
X195280000Y-105682500D01*
%TO.C,C7*%
X195280000Y-95255000D02*
X202720000Y-95255000D01*
X195280000Y-98995000D02*
X195280000Y-95255000D01*
X202720000Y-95255000D02*
X202720000Y-98995000D01*
X202720000Y-98995000D02*
X195280000Y-98995000D01*
%TO.C,C2*%
X121965000Y-108817246D02*
X129405000Y-108817246D01*
X121965000Y-112557246D02*
X121965000Y-108817246D01*
X129405000Y-108817246D02*
X129405000Y-112557246D01*
X129405000Y-112557246D02*
X121965000Y-112557246D01*
%TO.C,C1*%
X121965000Y-102817246D02*
X129405000Y-102817246D01*
X121965000Y-106557246D02*
X121965000Y-102817246D01*
X129405000Y-102817246D02*
X129405000Y-106557246D01*
X129405000Y-106557246D02*
X121965000Y-106557246D01*
%TO.C,RV1*%
X181625000Y-75975000D02*
X191375000Y-75975000D01*
X181625000Y-81025000D02*
X181625000Y-75975000D01*
X191375000Y-75975000D02*
X191375000Y-81025000D01*
X191375000Y-81025000D02*
X181625000Y-81025000D01*
%TO.C,R12*%
X170960000Y-86000000D02*
X171730000Y-86000000D01*
X179040000Y-86000000D02*
X178270000Y-86000000D01*
X171730000Y-84630000D02*
X178270000Y-84630000D01*
X178270000Y-87370000D01*
X171730000Y-87370000D01*
X171730000Y-84630000D01*
%TO.C,R11*%
X134960000Y-111000000D02*
X135730000Y-111000000D01*
X143040000Y-111000000D02*
X142270000Y-111000000D01*
X135730000Y-109630000D02*
X142270000Y-109630000D01*
X142270000Y-112370000D01*
X135730000Y-112370000D01*
X135730000Y-109630000D01*
%TD*%
M02*
