%TF.GenerationSoftware,KiCad,Pcbnew,9.0.3*%
%TF.CreationDate,2026-05-18T21:25:21-03:00*%
%TF.ProjectId,PCB TG William v3,50434220-5447-4205-9769-6c6c69616d20,rev?*%
%TF.SameCoordinates,Original*%
%TF.FileFunction,Soldermask,Top*%
%TF.FilePolarity,Negative*%
%FSLAX46Y46*%
G04 Gerber Fmt 4.6, Leading zero omitted, Abs format (unit mm)*
G04 Created by KiCad (PCBNEW 9.0.3) date 2026-05-18 21:25:21*
%MOMM*%
%LPD*%
G01*
G04 APERTURE LIST*
G04 Aperture macros list*
%AMRoundRect*
0 Rectangle with rounded corners*
0 $1 Rounding radius*
0 $2 $3 $4 $5 $6 $7 $8 $9 X,Y pos of 4 corners*
0 Add a 4 corners polygon primitive as box body*
4,1,4,$2,$3,$4,$5,$6,$7,$8,$9,$2,$3,0*
0 Add four circle primitives for the rounded corners*
1,1,$1+$1,$2,$3*
1,1,$1+$1,$4,$5*
1,1,$1+$1,$6,$7*
1,1,$1+$1,$8,$9*
0 Add four rect primitives between the rounded corners*
20,1,$1+$1,$2,$3,$4,$5,0*
20,1,$1+$1,$4,$5,$6,$7,0*
20,1,$1+$1,$6,$7,$8,$9,0*
20,1,$1+$1,$8,$9,$2,$3,0*%
G04 Aperture macros list end*
%ADD10C,2.000000*%
%ADD11C,3.500000*%
%ADD12C,1.600000*%
%ADD13R,1.700000X1.700000*%
%ADD14C,1.700000*%
%ADD15RoundRect,0.250000X-0.550000X-0.550000X0.550000X-0.550000X0.550000X0.550000X-0.550000X0.550000X0*%
%ADD16R,3.000000X3.000000*%
%ADD17C,3.000000*%
%ADD18C,1.440000*%
G04 APERTURE END LIST*
D10*
%TO.C,INA*%
X130000000Y-79000000D03*
%TD*%
D11*
%TO.C,REF\u002A\u002A*%
X104000000Y-113500000D03*
%TD*%
D12*
%TO.C,R2*%
X117580000Y-91000000D03*
X107420000Y-91000000D03*
%TD*%
%TO.C,R5*%
X117580000Y-106000000D03*
X107420000Y-106000000D03*
%TD*%
D13*
%TO.C,J2*%
X109960000Y-111000000D03*
D14*
X112500000Y-111000000D03*
X115040000Y-111000000D03*
%TD*%
D12*
%TO.C,R4*%
X117580000Y-101000000D03*
X107420000Y-101000000D03*
%TD*%
%TO.C,R3*%
X117580000Y-96000000D03*
X107420000Y-96000000D03*
%TD*%
%TO.C,R1*%
X117580000Y-86000000D03*
X107420000Y-86000000D03*
%TD*%
%TO.C,C4*%
X165500000Y-94433333D03*
X160500000Y-94433333D03*
%TD*%
%TO.C,C3*%
X165500000Y-86400000D03*
X160500000Y-86400000D03*
%TD*%
%TO.C,C5*%
X165500000Y-102466667D03*
X160500000Y-102466667D03*
%TD*%
%TO.C,C6*%
X165500000Y-110500000D03*
X160500000Y-110500000D03*
%TD*%
%TO.C,R6*%
X144080000Y-86000000D03*
X133920000Y-86000000D03*
%TD*%
%TO.C,R8*%
X144080000Y-96000000D03*
X133920000Y-96000000D03*
%TD*%
%TO.C,R7*%
X144080000Y-91000000D03*
X133920000Y-91000000D03*
%TD*%
%TO.C,R10*%
X144080000Y-106000000D03*
X133920000Y-106000000D03*
%TD*%
%TO.C,R9*%
X144080000Y-101000000D03*
X133920000Y-101000000D03*
%TD*%
D15*
%TO.C,U3*%
X184500000Y-95760000D03*
D12*
X184500000Y-98300000D03*
X184500000Y-100840000D03*
X184500000Y-103380000D03*
X184500000Y-105920000D03*
X184500000Y-108460000D03*
X184500000Y-111000000D03*
X192120000Y-111000000D03*
X192120000Y-108460000D03*
X192120000Y-105920000D03*
X192120000Y-103380000D03*
X192120000Y-100840000D03*
X192120000Y-98300000D03*
X192120000Y-95760000D03*
%TD*%
D15*
%TO.C,U2*%
X148500000Y-95760000D03*
D12*
X148500000Y-98300000D03*
X148500000Y-100840000D03*
X148500000Y-103380000D03*
X148500000Y-105920000D03*
X148500000Y-108460000D03*
X148500000Y-111000000D03*
X156120000Y-111000000D03*
X156120000Y-108460000D03*
X156120000Y-105920000D03*
X156120000Y-103380000D03*
X156120000Y-100840000D03*
X156120000Y-98300000D03*
X156120000Y-95760000D03*
%TD*%
D15*
%TO.C,U1*%
X121880000Y-91460000D03*
D12*
X121880000Y-94000000D03*
X121880000Y-96540000D03*
X121880000Y-99080000D03*
X129500000Y-99080000D03*
X129500000Y-96540000D03*
X129500000Y-94000000D03*
X129500000Y-91460000D03*
%TD*%
D10*
%TO.C,OUT*%
X167500000Y-79000000D03*
%TD*%
%TO.C,NOTCH*%
X155000000Y-79000000D03*
%TD*%
%TO.C,LPF*%
X148750000Y-79000000D03*
%TD*%
%TO.C,HPF*%
X136250000Y-79000000D03*
%TD*%
D12*
%TO.C,R17*%
X169920000Y-111000000D03*
X180080000Y-111000000D03*
%TD*%
%TO.C,R16*%
X169920000Y-106000000D03*
X180080000Y-106000000D03*
%TD*%
%TO.C,R15*%
X169920000Y-101000000D03*
X180080000Y-101000000D03*
%TD*%
%TO.C,R14*%
X170000000Y-96000000D03*
X180160000Y-96000000D03*
%TD*%
%TO.C,R13*%
X169920000Y-91000000D03*
X180080000Y-91000000D03*
%TD*%
D13*
%TO.C,J3*%
X196750000Y-78475000D03*
D14*
X199290000Y-78475000D03*
%TD*%
D16*
%TO.C,J1*%
X112420000Y-78500000D03*
D17*
X117500000Y-78500000D03*
X122580000Y-78500000D03*
%TD*%
D10*
%TO.C,GND*%
X161250000Y-79000000D03*
%TD*%
%TO.C,GND*%
X142500000Y-79000000D03*
%TD*%
D15*
%TO.C,D2*%
X195190000Y-91187500D03*
D12*
X202810000Y-91187500D03*
%TD*%
D15*
%TO.C,D1*%
X195190000Y-86000000D03*
D12*
X202810000Y-86000000D03*
%TD*%
%TO.C,C16*%
X189935000Y-86080000D03*
X192435000Y-86080000D03*
%TD*%
%TO.C,C15*%
X184435000Y-86080000D03*
X186935000Y-86080000D03*
%TD*%
%TO.C,C14*%
X154120000Y-86000000D03*
X156620000Y-86000000D03*
%TD*%
%TO.C,C13*%
X148370000Y-86000000D03*
X150870000Y-86000000D03*
%TD*%
%TO.C,C12*%
X126935000Y-86000000D03*
X129435000Y-86000000D03*
%TD*%
%TO.C,C11*%
X121935000Y-86000000D03*
X124435000Y-86000000D03*
%TD*%
D15*
%TO.C,C10*%
X174000000Y-78500000D03*
D12*
X176500000Y-78500000D03*
%TD*%
%TO.C,C9*%
X196500000Y-110500000D03*
X201500000Y-110500000D03*
%TD*%
%TO.C,C8*%
X196500000Y-103812500D03*
X201500000Y-103812500D03*
%TD*%
%TO.C,C7*%
X196500000Y-97125000D03*
X201500000Y-97125000D03*
%TD*%
%TO.C,C2*%
X123185000Y-110687246D03*
X128185000Y-110687246D03*
%TD*%
%TO.C,C1*%
X123185000Y-104687246D03*
X128185000Y-104687246D03*
%TD*%
D18*
%TO.C,RV1*%
X189040000Y-78495000D03*
X186500000Y-78495000D03*
X183960000Y-78495000D03*
%TD*%
D12*
%TO.C,R12*%
X169920000Y-86000000D03*
X180080000Y-86000000D03*
%TD*%
%TO.C,R11*%
X133920000Y-111000000D03*
X144080000Y-111000000D03*
%TD*%
D11*
%TO.C,REF\u002A\u002A*%
X207000000Y-113500000D03*
%TD*%
%TO.C,REF\u002A\u002A*%
X104000000Y-77500000D03*
%TD*%
%TO.C,REF\u002A\u002A*%
X207000000Y-77500000D03*
%TD*%
M02*
